<svg width="320" height="103" viewBox="0 0 320 103" fill="none" xmlns="http://www.w3.org/2000/svg">
<g filter="url(#filter0_b_117_636)">
<rect width="320" height="87" rx="12" fill="#CDC7B7" style="mix-blend-mode:luminosity"/>
<rect width="320" height="87" rx="12" fill="white" fill-opacity="0.5"/>
<rect width="320" height="87" rx="12" fill="#CDC7B7" style="mix-blend-mode:soft-light"/>
<path d="M269.801 24V16.8984H269.702L267.575 18.416V17.127L269.801 15.5449H271.114V24H269.801ZM273.449 24V15.1406H274.72V18.6035H274.814C275.125 17.9238 275.734 17.5137 276.66 17.5137C278.084 17.5137 278.869 18.3633 278.869 19.8809V24H277.603V20.1797C277.603 19.125 277.164 18.6035 276.232 18.6035C275.3 18.6035 274.72 19.2422 274.72 20.2676V24H273.449ZM285.431 24.1055C284.219 24.1055 283.322 23.3672 283.322 22.2129V22.2012C283.322 21.0645 284.177 20.4023 285.695 20.3086L287.418 20.209V19.6465C287.418 18.9492 286.978 18.5625 286.117 18.5625C285.414 18.5625 284.951 18.8203 284.799 19.2715L284.793 19.2949H283.568L283.574 19.2539C283.726 18.2109 284.728 17.5137 286.176 17.5137C287.775 17.5137 288.677 18.3105 288.677 19.6465V24H287.418V23.0977H287.318C286.943 23.7422 286.275 24.1055 285.431 24.1055ZM284.588 22.1602C284.588 22.7461 285.086 23.0918 285.771 23.0918C286.72 23.0918 287.418 22.4707 287.418 21.6504V21.1055L285.865 21.2051C284.986 21.2578 284.588 21.5742 284.588 22.1484V22.1602ZM293.04 26.2441C291.423 26.2441 290.427 25.5352 290.274 24.4746L290.286 24.4629H291.569L291.575 24.4746C291.681 24.9141 292.196 25.2246 293.057 25.2246C294.106 25.2246 294.727 24.7324 294.727 23.8652V22.6113H294.634C294.247 23.3027 293.544 23.6895 292.671 23.6895C291.036 23.6895 290.028 22.4297 290.028 20.6367V20.625C290.028 18.8086 291.042 17.5254 292.694 17.5254C293.585 17.5254 294.276 17.9648 294.645 18.6797H294.722V17.6367H295.987V23.8711C295.987 25.3184 294.845 26.2441 293.04 26.2441ZM293.022 22.6406C294.1 22.6406 294.751 21.8203 294.751 20.6309V20.6191C294.751 19.4355 294.095 18.6035 293.022 18.6035C291.938 18.6035 291.329 19.4355 291.329 20.6191V20.6309C291.329 21.8145 291.938 22.6406 293.022 22.6406ZM300.391 24.123C298.521 24.123 297.379 22.875 297.379 20.8242V20.8125C297.379 18.7676 298.527 17.5137 300.391 17.5137C302.248 17.5137 303.396 18.7617 303.396 20.8125V20.8242C303.396 22.875 302.254 24.123 300.391 24.123ZM300.391 23.0625C301.48 23.0625 302.102 22.2305 302.102 20.8242V20.8125C302.102 19.4004 301.48 18.5742 300.391 18.5742C299.295 18.5742 298.68 19.4004 298.68 20.8125V20.8242C298.68 22.2363 299.295 23.0625 300.391 23.0625Z" fill="black" fill-opacity="0.2"/>
<path d="M269.801 24V16.8984H269.702L267.575 18.416V17.127L269.801 15.5449H271.114V24H269.801ZM273.449 24V15.1406H274.72V18.6035H274.814C275.125 17.9238 275.734 17.5137 276.66 17.5137C278.084 17.5137 278.869 18.3633 278.869 19.8809V24H277.603V20.1797C277.603 19.125 277.164 18.6035 276.232 18.6035C275.3 18.6035 274.72 19.2422 274.72 20.2676V24H273.449ZM285.431 24.1055C284.219 24.1055 283.322 23.3672 283.322 22.2129V22.2012C283.322 21.0645 284.177 20.4023 285.695 20.3086L287.418 20.209V19.6465C287.418 18.9492 286.978 18.5625 286.117 18.5625C285.414 18.5625 284.951 18.8203 284.799 19.2715L284.793 19.2949H283.568L283.574 19.2539C283.726 18.2109 284.728 17.5137 286.176 17.5137C287.775 17.5137 288.677 18.3105 288.677 19.6465V24H287.418V23.0977H287.318C286.943 23.7422 286.275 24.1055 285.431 24.1055ZM284.588 22.1602C284.588 22.7461 285.086 23.0918 285.771 23.0918C286.72 23.0918 287.418 22.4707 287.418 21.6504V21.1055L285.865 21.2051C284.986 21.2578 284.588 21.5742 284.588 22.1484V22.1602ZM293.04 26.2441C291.423 26.2441 290.427 25.5352 290.274 24.4746L290.286 24.4629H291.569L291.575 24.4746C291.681 24.9141 292.196 25.2246 293.057 25.2246C294.106 25.2246 294.727 24.7324 294.727 23.8652V22.6113H294.634C294.247 23.3027 293.544 23.6895 292.671 23.6895C291.036 23.6895 290.028 22.4297 290.028 20.6367V20.625C290.028 18.8086 291.042 17.5254 292.694 17.5254C293.585 17.5254 294.276 17.9648 294.645 18.6797H294.722V17.6367H295.987V23.8711C295.987 25.3184 294.845 26.2441 293.04 26.2441ZM293.022 22.6406C294.1 22.6406 294.751 21.8203 294.751 20.6309V20.6191C294.751 19.4355 294.095 18.6035 293.022 18.6035C291.938 18.6035 291.329 19.4355 291.329 20.6191V20.6309C291.329 21.8145 291.938 22.6406 293.022 22.6406ZM300.391 24.123C298.521 24.123 297.379 22.875 297.379 20.8242V20.8125C297.379 18.7676 298.527 17.5137 300.391 17.5137C302.248 17.5137 303.396 18.7617 303.396 20.8125V20.8242C303.396 22.875 302.254 24.123 300.391 24.123ZM300.391 23.0625C301.48 23.0625 302.102 22.2305 302.102 20.8242V20.8125C302.102 19.4004 301.48 18.5742 300.391 18.5742C299.295 18.5742 298.68 19.4004 298.68 20.8125V20.8242C298.68 22.2363 299.295 23.0625 300.391 23.0625Z" fill="black" fill-opacity="0.36" style="mix-blend-mode:overlay"/>
<path d="M38.0605 24V15.5449H41.3945C43.1289 15.5449 44.207 16.5527 44.207 18.123V18.1348C44.207 19.2715 43.5977 20.1973 42.5664 20.543L44.4648 24H42.9473L41.2246 20.748H39.373V24H38.0605ZM39.373 19.6816H41.2656C42.2734 19.6816 42.8594 19.1309 42.8594 18.1699V18.1582C42.8594 17.2207 42.2383 16.6465 41.2246 16.6465H39.373V19.6816ZM45.3058 24L48.3585 15.5449H49.7765L52.8292 24H51.4464L50.6847 21.7148H47.4503L46.6827 24H45.3058ZM49.0148 17.0273L47.8019 20.6602H50.3331L49.1144 17.0273H49.0148ZM55.592 24V20.5371L52.6155 15.5449H54.0745L56.2014 19.2305H56.301L58.428 15.5449H59.887L56.9045 20.5371V24H55.592ZM63.9154 24.2051C62.0052 24.2051 60.7806 23.2383 60.6634 21.8145L60.6576 21.7383H61.9466L61.9525 21.8027C62.0228 22.5703 62.8373 23.0625 63.9681 23.0625C65.0462 23.0625 65.8138 22.5234 65.8138 21.7383V21.7324C65.8138 21.082 65.3568 20.6602 64.2377 20.4199L63.3119 20.2207C61.5951 19.8574 60.8568 19.0605 60.8568 17.8125V17.8066C60.8627 16.3477 62.1283 15.3398 63.9212 15.3398C65.7142 15.3398 66.8861 16.3535 66.9798 17.666L66.9857 17.748H65.7142L65.7025 17.6719C65.5912 16.9805 64.9291 16.4766 63.9037 16.4824C62.9134 16.4824 62.181 16.9453 62.181 17.7422V17.748C62.181 18.375 62.6263 18.7852 63.722 19.0195L64.642 19.2246C66.4173 19.6055 67.1439 20.3203 67.1439 21.5742V21.5801C67.1439 23.1973 65.8841 24.2051 63.9154 24.2051Z" fill="black" fill-opacity="0.2"/>
<path d="M38.0605 24V15.5449H41.3945C43.1289 15.5449 44.207 16.5527 44.207 18.123V18.1348C44.207 19.2715 43.5977 20.1973 42.5664 20.543L44.4648 24H42.9473L41.2246 20.748H39.373V24H38.0605ZM39.373 19.6816H41.2656C42.2734 19.6816 42.8594 19.1309 42.8594 18.1699V18.1582C42.8594 17.2207 42.2383 16.6465 41.2246 16.6465H39.373V19.6816ZM45.3058 24L48.3585 15.5449H49.7765L52.8292 24H51.4464L50.6847 21.7148H47.4503L46.6827 24H45.3058ZM49.0148 17.0273L47.8019 20.6602H50.3331L49.1144 17.0273H49.0148ZM55.592 24V20.5371L52.6155 15.5449H54.0745L56.2014 19.2305H56.301L58.428 15.5449H59.887L56.9045 20.5371V24H55.592ZM63.9154 24.2051C62.0052 24.2051 60.7806 23.2383 60.6634 21.8145L60.6576 21.7383H61.9466L61.9525 21.8027C62.0228 22.5703 62.8373 23.0625 63.9681 23.0625C65.0462 23.0625 65.8138 22.5234 65.8138 21.7383V21.7324C65.8138 21.082 65.3568 20.6602 64.2377 20.4199L63.3119 20.2207C61.5951 19.8574 60.8568 19.0605 60.8568 17.8125V17.8066C60.8627 16.3477 62.1283 15.3398 63.9212 15.3398C65.7142 15.3398 66.8861 16.3535 66.9798 17.666L66.9857 17.748H65.7142L65.7025 17.6719C65.5912 16.9805 64.9291 16.4766 63.9037 16.4824C62.9134 16.4824 62.181 16.9453 62.181 17.7422V17.748C62.181 18.375 62.6263 18.7852 63.722 19.0195L64.642 19.2246C66.4173 19.6055 67.1439 20.3203 67.1439 21.5742V21.5801C67.1439 23.1973 65.8841 24.2051 63.9154 24.2051Z" fill="black" fill-opacity="0.36" style="mix-blend-mode:overlay"/>
<g clip-path="url(#clip0_117_636)">
<path fill-rule="evenodd" clip-rule="evenodd" d="M25.4444 10H14.5556C12.0396 10 10 12.0396 10 14.5556V25.4444C10 27.9604 12.0396 30 14.5556 30H25.4444C27.9604 30 30 27.9604 30 25.4444V14.5556C30 12.0396 27.9604 10 25.4444 10Z" fill="#DFEDF5"/>
<path fill-rule="evenodd" clip-rule="evenodd" d="M25.4444 10H14.5556C12.0396 10 10 12.0396 10 14.5556V25.4444C10 27.9604 12.0396 30 14.5556 30H25.4444C27.9604 30 30 27.9604 30 25.4444V14.5556C30 12.0396 27.9604 10 25.4444 10Z" fill="white"/>
</g>
<path d="M13.2373 51V41.1357H14.7686V51H13.2373ZM19.735 51.0479C18.1012 51.0479 17.4313 50.4736 17.4313 49.0449V44.7451H16.2692V43.5762H17.4313V41.7031H18.942V43.5762H20.5348V44.7451H18.942V48.6895C18.942 49.4893 19.2428 49.8174 19.9743 49.8174C20.1998 49.8174 20.3297 49.8105 20.5348 49.79V50.9727C20.2955 51.0137 20.0221 51.0479 19.735 51.0479ZM22.4046 45.1484L23.0061 41.1357H24.5852L23.4505 45.1484H22.4046ZM28.4989 51.1436C26.7079 51.1436 25.5732 50.3027 25.4296 49.0586V49.0518H26.913L26.9198 49.0586C27.1044 49.6191 27.6445 49.9951 28.5263 49.9951C29.4423 49.9951 30.078 49.5781 30.078 48.9697V48.9561C30.078 48.4912 29.7294 48.1768 28.8681 47.9785L27.6855 47.7051C26.2841 47.3838 25.6347 46.748 25.6347 45.6611V45.6543C25.6347 44.3623 26.8378 43.4326 28.5195 43.4326C30.2148 43.4326 31.3017 44.2803 31.4316 45.4902V45.4971H30.0165V45.4834C29.873 44.9639 29.3466 44.5742 28.5126 44.5742C27.6991 44.5742 27.1112 44.9775 27.1112 45.5723V45.5859C27.1112 46.0508 27.453 46.3379 28.287 46.5361L29.4628 46.8027C30.8915 47.1377 31.5751 47.7461 31.5751 48.8193V48.833C31.5751 50.207 30.2626 51.1436 28.4989 51.1436ZM41.05 51.2393C38.5754 51.2393 37.051 49.7695 37.051 47.6025V41.1357H38.5822V47.4863C38.5822 48.915 39.4777 49.8857 41.05 49.8857C42.6223 49.8857 43.5109 48.915 43.5109 47.4863V41.1357H45.0422V47.6025C45.0422 49.7695 43.5314 51.2393 41.05 51.2393ZM50.1248 51L46.6112 41.1357H48.2723L50.911 49.1543H51.0272L53.6659 41.1357H55.327L51.8133 51H50.1248ZM63.9679 51.1846C61.7804 51.1846 60.2355 50.0088 60.2355 48.334V48.3203C60.2355 47.0762 61.131 46.085 62.423 45.8047V45.7705C61.3155 45.4561 60.5909 44.6289 60.5909 43.583V43.5693C60.5909 42.0586 62.006 40.9512 63.9679 40.9512C65.9366 40.9512 67.3448 42.0586 67.3448 43.5693V43.583C67.3448 44.6289 66.6271 45.4561 65.5196 45.7705V45.8047C66.8116 46.085 67.7071 47.0762 67.7071 48.3203V48.334C67.7071 50.0088 66.1622 51.1846 63.9679 51.1846ZM63.9679 45.2578C65.0753 45.2578 65.8273 44.6152 65.8273 43.7129V43.6992C65.8273 42.7969 65.0685 42.168 63.9679 42.168C62.8673 42.168 62.1085 42.7969 62.1085 43.6992V43.7129C62.1085 44.6152 62.8673 45.2578 63.9679 45.2578ZM63.9679 49.9541C65.2325 49.9541 66.128 49.2363 66.128 48.2383V48.2246C66.128 47.2129 65.2394 46.4814 63.9679 46.4814C62.7032 46.4814 61.8146 47.2129 61.8146 48.2246V48.2383C61.8146 49.2363 62.7101 49.9541 63.9679 49.9541ZM70.0486 47.7324L69.905 41.1289H71.5662L71.4295 47.7324H70.0486ZM70.7459 51.1504C70.1101 51.1504 69.6863 50.7402 69.6863 50.1318C69.6863 49.5166 70.1101 49.1064 70.7459 49.1064C71.3748 49.1064 71.7918 49.5166 71.7918 50.1318C71.7918 50.7402 71.3748 51.1504 70.7459 51.1504ZM81.9707 51.2393C79.1748 51.2393 77.4112 49.2432 77.4112 46.0713V46.0576C77.4112 42.9268 79.1954 40.8965 81.9571 40.8965C84.1993 40.8965 85.792 42.168 86.1475 44.0752L86.1612 44.1436H84.6299L84.6094 44.0752C84.2539 42.9062 83.3106 42.25 81.9571 42.25C80.1319 42.25 78.9766 43.7266 78.9766 46.0508V46.0645C78.9766 48.4229 80.1387 49.8857 81.9912 49.8857C83.6045 49.8857 84.7051 48.8672 84.7188 47.3496V47.1309H82.1827V45.8936H86.2295V47.1172C86.2295 49.6191 84.5547 51.2393 81.9707 51.2393ZM91.1481 51.1436C88.9743 51.1436 87.6618 49.6602 87.6618 47.3086V47.3018C87.6618 44.9844 89.0016 43.4326 91.0729 43.4326C93.1442 43.4326 94.4157 44.9297 94.4157 47.1582V47.6777H89.152C89.1794 49.0996 89.9587 49.9268 91.1823 49.9268C92.1325 49.9268 92.6999 49.4551 92.8776 49.0723L92.905 49.0176L94.3337 49.0107L94.32 49.0723C94.0739 50.0498 93.0485 51.1436 91.1481 51.1436ZM91.0798 44.6494C90.068 44.6494 89.3024 45.3398 89.1725 46.6182H92.946C92.8298 45.292 92.0846 44.6494 91.0798 44.6494ZM98.8421 51.0479C97.2083 51.0479 96.5384 50.4736 96.5384 49.0449V44.7451H95.3763V43.5762H96.5384V41.7031H98.0491V43.5762H99.6419V44.7451H98.0491V48.6895C98.0491 49.4893 98.3499 49.8174 99.0814 49.8174C99.307 49.8174 99.4368 49.8105 99.6419 49.79V50.9727C99.4027 51.0137 99.1292 51.0479 98.8421 51.0479ZM109.295 51.2393C106.423 51.2393 104.687 49.2363 104.687 46.0713V46.0576C104.687 42.8857 106.464 40.8965 109.295 40.8965C112.131 40.8965 113.895 42.8926 113.895 46.0576V46.0713C113.895 49.2295 112.145 51.2393 109.295 51.2393ZM109.295 49.8857C111.168 49.8857 112.33 48.3818 112.33 46.0713V46.0576C112.33 43.7266 111.161 42.25 109.295 42.25C107.428 42.25 106.253 43.7266 106.253 46.0576V46.0713C106.253 48.3818 107.394 49.8857 109.295 49.8857ZM118.137 51.1436C116.462 51.1436 115.594 50.1387 115.594 48.3818V43.5762H117.077V48.0332C117.077 49.2637 117.529 49.8721 118.615 49.8721C119.805 49.8721 120.441 49.127 120.441 47.9307V43.5762H121.917V51H120.441V49.8789H120.324C119.969 50.6787 119.217 51.1436 118.137 51.1436ZM126.72 51.0479C125.086 51.0479 124.416 50.4736 124.416 49.0449V44.7451H123.254V43.5762H124.416V41.7031H125.927V43.5762H127.519V44.7451H125.927V48.6895C125.927 49.4893 126.227 49.8174 126.959 49.8174C127.184 49.8174 127.314 49.8105 127.519 49.79V50.9727C127.28 51.0137 127.007 51.0479 126.72 51.0479ZM131.7 51.1436C129.909 51.1436 128.774 50.3027 128.63 49.0586V49.0518H130.114L130.121 49.0586C130.305 49.6191 130.845 49.9951 131.727 49.9951C132.643 49.9951 133.279 49.5781 133.279 48.9697V48.9561C133.279 48.4912 132.93 48.1768 132.069 47.9785L130.886 47.7051C129.485 47.3838 128.835 46.748 128.835 45.6611V45.6543C128.835 44.3623 130.039 43.4326 131.72 43.4326C133.416 43.4326 134.502 44.2803 134.632 45.4902V45.4971H133.217V45.4834C133.074 44.9639 132.547 44.5742 131.713 44.5742C130.9 44.5742 130.312 44.9775 130.312 45.5723V45.5859C130.312 46.0508 130.654 46.3379 131.488 46.5361L132.664 46.8027C134.092 47.1377 134.776 47.7461 134.776 48.8193V48.833C134.776 50.207 133.463 51.1436 131.7 51.1436ZM137.179 42.25C136.666 42.25 136.249 41.833 136.249 41.3271C136.249 40.8145 136.666 40.3975 137.179 40.3975C137.685 40.3975 138.109 40.8145 138.109 41.3271C138.109 41.833 137.685 42.25 137.179 42.25ZM136.434 51V43.5762H137.91V51H136.434ZM142.637 51.123C140.771 51.123 139.561 49.626 139.561 47.2949V47.2812C139.561 44.9297 140.751 43.4463 142.637 43.4463C143.656 43.4463 144.524 43.9521 144.921 44.752H145.037V40.6641H146.513V51H145.037V49.8311H144.921C144.49 50.6445 143.677 51.123 142.637 51.123ZM143.061 49.8584C144.299 49.8584 145.057 48.8809 145.057 47.2949V47.2812C145.057 45.6953 144.292 44.7178 143.061 44.7178C141.817 44.7178 141.072 45.6885 141.072 47.2812V47.2949C141.072 48.8877 141.817 49.8584 143.061 49.8584ZM151.699 51.1436C149.525 51.1436 148.212 49.6602 148.212 47.3086V47.3018C148.212 44.9844 149.552 43.4326 151.623 43.4326C153.695 43.4326 154.966 44.9297 154.966 47.1582V47.6777H149.703C149.73 49.0996 150.509 49.9268 151.733 49.9268C152.683 49.9268 153.25 49.4551 153.428 49.0723L153.456 49.0176L154.884 49.0107L154.871 49.0723C154.624 50.0498 153.599 51.1436 151.699 51.1436ZM151.63 44.6494C150.619 44.6494 149.853 45.3398 149.723 46.6182H153.497C153.38 45.292 152.635 44.6494 151.63 44.6494ZM157.123 47.7324L156.98 41.1289H158.641L158.504 47.7324H157.123ZM157.82 51.1504C157.185 51.1504 156.761 50.7402 156.761 50.1318C156.761 49.5166 157.185 49.1064 157.82 49.1064C158.449 49.1064 158.866 49.5166 158.866 50.1318C158.866 50.7402 158.449 51.1504 157.82 51.1504Z" fill="black" fill-opacity="0.5"/>
<path d="M13.2373 51V41.1357H14.7686V51H13.2373ZM19.735 51.0479C18.1012 51.0479 17.4313 50.4736 17.4313 49.0449V44.7451H16.2692V43.5762H17.4313V41.7031H18.942V43.5762H20.5348V44.7451H18.942V48.6895C18.942 49.4893 19.2428 49.8174 19.9743 49.8174C20.1998 49.8174 20.3297 49.8105 20.5348 49.79V50.9727C20.2955 51.0137 20.0221 51.0479 19.735 51.0479ZM22.4046 45.1484L23.0061 41.1357H24.5852L23.4505 45.1484H22.4046ZM28.4989 51.1436C26.7079 51.1436 25.5732 50.3027 25.4296 49.0586V49.0518H26.913L26.9198 49.0586C27.1044 49.6191 27.6445 49.9951 28.5263 49.9951C29.4423 49.9951 30.078 49.5781 30.078 48.9697V48.9561C30.078 48.4912 29.7294 48.1768 28.8681 47.9785L27.6855 47.7051C26.2841 47.3838 25.6347 46.748 25.6347 45.6611V45.6543C25.6347 44.3623 26.8378 43.4326 28.5195 43.4326C30.2148 43.4326 31.3017 44.2803 31.4316 45.4902V45.4971H30.0165V45.4834C29.873 44.9639 29.3466 44.5742 28.5126 44.5742C27.6991 44.5742 27.1112 44.9775 27.1112 45.5723V45.5859C27.1112 46.0508 27.453 46.3379 28.287 46.5361L29.4628 46.8027C30.8915 47.1377 31.5751 47.7461 31.5751 48.8193V48.833C31.5751 50.207 30.2626 51.1436 28.4989 51.1436ZM41.05 51.2393C38.5754 51.2393 37.051 49.7695 37.051 47.6025V41.1357H38.5822V47.4863C38.5822 48.915 39.4777 49.8857 41.05 49.8857C42.6223 49.8857 43.5109 48.915 43.5109 47.4863V41.1357H45.0422V47.6025C45.0422 49.7695 43.5314 51.2393 41.05 51.2393ZM50.1248 51L46.6112 41.1357H48.2723L50.911 49.1543H51.0272L53.6659 41.1357H55.327L51.8133 51H50.1248ZM63.9679 51.1846C61.7804 51.1846 60.2355 50.0088 60.2355 48.334V48.3203C60.2355 47.0762 61.131 46.085 62.423 45.8047V45.7705C61.3155 45.4561 60.5909 44.6289 60.5909 43.583V43.5693C60.5909 42.0586 62.006 40.9512 63.9679 40.9512C65.9366 40.9512 67.3448 42.0586 67.3448 43.5693V43.583C67.3448 44.6289 66.6271 45.4561 65.5196 45.7705V45.8047C66.8116 46.085 67.7071 47.0762 67.7071 48.3203V48.334C67.7071 50.0088 66.1622 51.1846 63.9679 51.1846ZM63.9679 45.2578C65.0753 45.2578 65.8273 44.6152 65.8273 43.7129V43.6992C65.8273 42.7969 65.0685 42.168 63.9679 42.168C62.8673 42.168 62.1085 42.7969 62.1085 43.6992V43.7129C62.1085 44.6152 62.8673 45.2578 63.9679 45.2578ZM63.9679 49.9541C65.2325 49.9541 66.128 49.2363 66.128 48.2383V48.2246C66.128 47.2129 65.2394 46.4814 63.9679 46.4814C62.7032 46.4814 61.8146 47.2129 61.8146 48.2246V48.2383C61.8146 49.2363 62.7101 49.9541 63.9679 49.9541ZM70.0486 47.7324L69.905 41.1289H71.5662L71.4295 47.7324H70.0486ZM70.7459 51.1504C70.1101 51.1504 69.6863 50.7402 69.6863 50.1318C69.6863 49.5166 70.1101 49.1064 70.7459 49.1064C71.3748 49.1064 71.7918 49.5166 71.7918 50.1318C71.7918 50.7402 71.3748 51.1504 70.7459 51.1504ZM81.9707 51.2393C79.1748 51.2393 77.4112 49.2432 77.4112 46.0713V46.0576C77.4112 42.9268 79.1954 40.8965 81.9571 40.8965C84.1993 40.8965 85.792 42.168 86.1475 44.0752L86.1612 44.1436H84.6299L84.6094 44.0752C84.2539 42.9062 83.3106 42.25 81.9571 42.25C80.1319 42.25 78.9766 43.7266 78.9766 46.0508V46.0645C78.9766 48.4229 80.1387 49.8857 81.9912 49.8857C83.6045 49.8857 84.7051 48.8672 84.7188 47.3496V47.1309H82.1827V45.8936H86.2295V47.1172C86.2295 49.6191 84.5547 51.2393 81.9707 51.2393ZM91.1481 51.1436C88.9743 51.1436 87.6618 49.6602 87.6618 47.3086V47.3018C87.6618 44.9844 89.0016 43.4326 91.0729 43.4326C93.1442 43.4326 94.4157 44.9297 94.4157 47.1582V47.6777H89.152C89.1794 49.0996 89.9587 49.9268 91.1823 49.9268C92.1325 49.9268 92.6999 49.4551 92.8776 49.0723L92.905 49.0176L94.3337 49.0107L94.32 49.0723C94.0739 50.0498 93.0485 51.1436 91.1481 51.1436ZM91.0798 44.6494C90.068 44.6494 89.3024 45.3398 89.1725 46.6182H92.946C92.8298 45.292 92.0846 44.6494 91.0798 44.6494ZM98.8421 51.0479C97.2083 51.0479 96.5384 50.4736 96.5384 49.0449V44.7451H95.3763V43.5762H96.5384V41.7031H98.0491V43.5762H99.6419V44.7451H98.0491V48.6895C98.0491 49.4893 98.3499 49.8174 99.0814 49.8174C99.307 49.8174 99.4368 49.8105 99.6419 49.79V50.9727C99.4027 51.0137 99.1292 51.0479 98.8421 51.0479ZM109.295 51.2393C106.423 51.2393 104.687 49.2363 104.687 46.0713V46.0576C104.687 42.8857 106.464 40.8965 109.295 40.8965C112.131 40.8965 113.895 42.8926 113.895 46.0576V46.0713C113.895 49.2295 112.145 51.2393 109.295 51.2393ZM109.295 49.8857C111.168 49.8857 112.33 48.3818 112.33 46.0713V46.0576C112.33 43.7266 111.161 42.25 109.295 42.25C107.428 42.25 106.253 43.7266 106.253 46.0576V46.0713C106.253 48.3818 107.394 49.8857 109.295 49.8857ZM118.137 51.1436C116.462 51.1436 115.594 50.1387 115.594 48.3818V43.5762H117.077V48.0332C117.077 49.2637 117.529 49.8721 118.615 49.8721C119.805 49.8721 120.441 49.127 120.441 47.9307V43.5762H121.917V51H120.441V49.8789H120.324C119.969 50.6787 119.217 51.1436 118.137 51.1436ZM126.72 51.0479C125.086 51.0479 124.416 50.4736 124.416 49.0449V44.7451H123.254V43.5762H124.416V41.7031H125.927V43.5762H127.519V44.7451H125.927V48.6895C125.927 49.4893 126.227 49.8174 126.959 49.8174C127.184 49.8174 127.314 49.8105 127.519 49.79V50.9727C127.28 51.0137 127.007 51.0479 126.72 51.0479ZM131.7 51.1436C129.909 51.1436 128.774 50.3027 128.63 49.0586V49.0518H130.114L130.121 49.0586C130.305 49.6191 130.845 49.9951 131.727 49.9951C132.643 49.9951 133.279 49.5781 133.279 48.9697V48.9561C133.279 48.4912 132.93 48.1768 132.069 47.9785L130.886 47.7051C129.485 47.3838 128.835 46.748 128.835 45.6611V45.6543C128.835 44.3623 130.039 43.4326 131.72 43.4326C133.416 43.4326 134.502 44.2803 134.632 45.4902V45.4971H133.217V45.4834C133.074 44.9639 132.547 44.5742 131.713 44.5742C130.9 44.5742 130.312 44.9775 130.312 45.5723V45.5859C130.312 46.0508 130.654 46.3379 131.488 46.5361L132.664 46.8027C134.092 47.1377 134.776 47.7461 134.776 48.8193V48.833C134.776 50.207 133.463 51.1436 131.7 51.1436ZM137.179 42.25C136.666 42.25 136.249 41.833 136.249 41.3271C136.249 40.8145 136.666 40.3975 137.179 40.3975C137.685 40.3975 138.109 40.8145 138.109 41.3271C138.109 41.833 137.685 42.25 137.179 42.25ZM136.434 51V43.5762H137.91V51H136.434ZM142.637 51.123C140.771 51.123 139.561 49.626 139.561 47.2949V47.2812C139.561 44.9297 140.751 43.4463 142.637 43.4463C143.656 43.4463 144.524 43.9521 144.921 44.752H145.037V40.6641H146.513V51H145.037V49.8311H144.921C144.49 50.6445 143.677 51.123 142.637 51.123ZM143.061 49.8584C144.299 49.8584 145.057 48.8809 145.057 47.2949V47.2812C145.057 45.6953 144.292 44.7178 143.061 44.7178C141.817 44.7178 141.072 45.6885 141.072 47.2812V47.2949C141.072 48.8877 141.817 49.8584 143.061 49.8584ZM151.699 51.1436C149.525 51.1436 148.212 49.6602 148.212 47.3086V47.3018C148.212 44.9844 149.552 43.4326 151.623 43.4326C153.695 43.4326 154.966 44.9297 154.966 47.1582V47.6777H149.703C149.73 49.0996 150.509 49.9268 151.733 49.9268C152.683 49.9268 153.25 49.4551 153.428 49.0723L153.456 49.0176L154.884 49.0107L154.871 49.0723C154.624 50.0498 153.599 51.1436 151.699 51.1436ZM151.63 44.6494C150.619 44.6494 149.853 45.3398 149.723 46.6182H153.497C153.38 45.292 152.635 44.6494 151.63 44.6494ZM157.123 47.7324L156.98 41.1289H158.641L158.504 47.7324H157.123ZM157.82 51.1504C157.185 51.1504 156.761 50.7402 156.761 50.1318C156.761 49.5166 157.185 49.1064 157.82 49.1064C158.449 49.1064 158.866 49.5166 158.866 50.1318C158.866 50.7402 158.449 51.1504 157.82 51.1504Z" fill="black" fill-opacity="0.6" style="mix-blend-mode:overlay"/>
<g filter="url(#filter1_b_117_636)">
<path d="M13 87H307V87C307 91.4183 303.418 95 299 95H21C16.5817 95 13 91.4183 13 87V87Z" fill="#CDC7B7" fill-opacity="0.4" style="mix-blend-mode:luminosity"/>
<path d="M13 87H307V87C307 91.4183 303.418 95 299 95H21C16.5817 95 13 91.4183 13 87V87Z" fill="white" fill-opacity="0.4"/>
<path d="M13 87H307V87C307 91.4183 303.418 95 299 95H21C16.5817 95 13 91.4183 13 87V87Z" fill="black" fill-opacity="0.4" style="mix-blend-mode:soft-light"/>
</g>
<g filter="url(#filter2_b_117_636)">
<path d="M25 95H295V95C295 99.4183 291.418 103 287 103H33C28.5817 103 25 99.4183 25 95V95Z" fill="#CDC7B7" fill-opacity="0.2" style="mix-blend-mode:luminosity"/>
<path d="M25 95H295V95C295 99.4183 291.418 103 287 103H33C28.5817 103 25 99.4183 25 95V95Z" fill="white" fill-opacity="0.25"/>
<path d="M25 95H295V95C295 99.4183 291.418 103 287 103H33C28.5817 103 25 99.4183 25 95V95Z" fill="black" fill-opacity="0.3" style="mix-blend-mode:soft-light"/>
</g>
<path d="M15.8203 74.1406C14.0742 74.1406 12.9434 73.168 12.832 71.832L12.8262 71.7617H13.8398L13.8457 71.8203C13.9277 72.6523 14.6953 73.2266 15.8203 73.2266C16.9277 73.2266 17.6836 72.6055 17.6836 71.709V71.6973C17.6836 70.6602 16.9395 70.0801 15.7559 70.0801H14.6953V69.1895H15.709C16.7168 69.1895 17.4199 68.5684 17.4199 67.7246V67.7129C17.4199 66.8281 16.8398 66.3184 15.8086 66.3184C14.8125 66.3184 14.1035 66.8457 14.0156 67.7012L14.0098 67.7598H12.9961L13.002 67.7012C13.1367 66.3242 14.2266 65.4043 15.8086 65.4043C17.4199 65.4043 18.4805 66.3008 18.4805 67.584V67.5957C18.4805 68.6387 17.7422 69.3535 16.6875 69.5762V69.5996C17.918 69.7051 18.7559 70.4727 18.7559 71.6738V71.6855C18.7559 73.0977 17.5137 74.1406 15.8203 74.1406ZM23.6077 74V67.6836H24.6272V68.6445H24.7209C25.0022 67.9648 25.5998 67.5723 26.426 67.5723C27.2815 67.5723 27.8791 68.0234 28.1721 68.6797H28.2659C28.6057 68.0117 29.3264 67.5723 30.1995 67.5723C31.4885 67.5723 32.2092 68.3105 32.2092 69.6348V74H31.1897V69.8691C31.1897 68.9375 30.762 68.4746 29.8713 68.4746C28.9924 68.4746 28.4123 69.1367 28.4123 69.9395V74H27.3928V69.7109C27.3928 68.9609 26.8772 68.4746 26.0803 68.4746C25.2541 68.4746 24.6272 69.1953 24.6272 70.0859V74H23.6077ZM36.5248 74.1113C34.7259 74.1113 33.6127 72.8691 33.6127 70.8477V70.8359C33.6127 68.8086 34.7259 67.5723 36.5248 67.5723C38.3236 67.5723 39.4369 68.8086 39.4369 70.8359V70.8477C39.4369 72.8691 38.3236 74.1113 36.5248 74.1113ZM36.5248 73.209C37.7201 73.209 38.3939 72.3359 38.3939 70.8477V70.8359C38.3939 69.3418 37.7201 68.4746 36.5248 68.4746C35.3295 68.4746 34.6556 69.3418 34.6556 70.8359V70.8477C34.6556 72.3359 35.3295 73.209 36.5248 73.209ZM40.8989 74V67.6836H41.9184V68.6211H42.0122C42.2524 67.959 42.8442 67.5723 43.6997 67.5723C43.893 67.5723 44.1098 67.5957 44.2095 67.6133V68.6035C43.9985 68.5684 43.8052 68.5449 43.5825 68.5449C42.6098 68.5449 41.9184 69.1602 41.9184 70.0859V74H40.8989ZM47.7516 74.1113C45.9469 74.1113 44.857 72.8457 44.857 70.8652V70.8594C44.857 68.9082 45.9703 67.5723 47.6871 67.5723C49.4039 67.5723 50.4469 68.8496 50.4469 70.7363V71.1348H45.9C45.9293 72.4414 46.65 73.2031 47.775 73.2031C48.6305 73.2031 49.1578 72.7988 49.3277 72.418L49.3512 72.3652H50.3707L50.359 72.4121C50.1422 73.2676 49.2398 74.1113 47.7516 74.1113ZM47.6813 68.4805C46.7438 68.4805 46.0289 69.1191 45.9176 70.3203H49.4098C49.3043 69.0723 48.6129 68.4805 47.6813 68.4805ZM55.1639 74V67.6836H56.1834V68.6328H56.2772C56.5936 67.9648 57.1854 67.5723 58.117 67.5723C59.535 67.5723 60.326 68.4102 60.326 69.9102V74H59.3065V70.1562C59.3065 69.0195 58.8377 68.4746 57.8299 68.4746C56.8221 68.4746 56.1834 69.1543 56.1834 70.2617V74H55.1639ZM64.6474 74.1113C62.8486 74.1113 61.7353 72.8691 61.7353 70.8477V70.8359C61.7353 68.8086 62.8486 67.5723 64.6474 67.5723C66.4463 67.5723 67.5595 68.8086 67.5595 70.8359V70.8477C67.5595 72.8691 66.4463 74.1113 64.6474 74.1113ZM64.6474 73.209C65.8427 73.209 66.5166 72.3359 66.5166 70.8477V70.8359C66.5166 69.3418 65.8427 68.4746 64.6474 68.4746C63.4521 68.4746 62.7783 69.3418 62.7783 70.8359V70.8477C62.7783 72.3359 63.4521 73.209 64.6474 73.209ZM71.2657 74.0469C69.9649 74.0469 69.42 73.5664 69.42 72.3594V68.5273H68.4239V67.6836H69.42V66.0488H70.4747V67.6836H71.8575V68.5273H70.4747V72.1016C70.4747 72.8457 70.7325 73.1445 71.3887 73.1445C71.5704 73.1445 71.67 73.1387 71.8575 73.1211V73.9883C71.6583 74.0234 71.4649 74.0469 71.2657 74.0469ZM73.8 66.4648C73.4133 66.4648 73.0969 66.1484 73.0969 65.7617C73.0969 65.375 73.4133 65.0586 73.8 65.0586C74.1867 65.0586 74.5031 65.375 74.5031 65.7617C74.5031 66.1484 74.1867 66.4648 73.8 66.4648ZM73.2844 74V67.6836H74.3039V74H73.2844ZM76.5277 74V68.5273H75.4788V67.6836H76.5277V66.9805C76.5277 65.7207 77.1605 65.1172 78.3616 65.1172C78.6077 65.1172 78.8304 65.1348 79.0413 65.1758V65.9902C78.9183 65.9668 78.7484 65.9609 78.5667 65.9609C77.8402 65.9609 77.5472 66.3184 77.5472 67.0098V67.6836H78.9827V68.5273H77.5472V74H76.5277ZM80.8725 66.4648C80.4858 66.4648 80.1694 66.1484 80.1694 65.7617C80.1694 65.375 80.4858 65.0586 80.8725 65.0586C81.2592 65.0586 81.5756 65.375 81.5756 65.7617C81.5756 66.1484 81.2592 66.4648 80.8725 66.4648ZM80.3569 74V67.6836H81.3764V74H80.3569ZM85.7623 74.1113C83.9927 74.1113 82.8619 72.8281 82.8619 70.8242V70.8125C82.8619 68.8496 83.9869 67.5723 85.7564 67.5723C87.2916 67.5723 88.2115 68.457 88.399 69.582L88.4048 69.6172H87.3912L87.3853 69.5996C87.2271 68.9785 86.6646 68.4746 85.7564 68.4746C84.6197 68.4746 83.9048 69.3887 83.9048 70.8125V70.8242C83.9048 72.2773 84.6314 73.209 85.7564 73.209C86.606 73.209 87.1451 72.834 87.3795 72.1309L87.3912 72.0957L88.399 72.0898L88.3873 72.1543C88.1295 73.2969 87.2798 74.1113 85.7623 74.1113ZM91.5075 74.1113C90.3063 74.1113 89.3981 73.3848 89.3981 72.2363V72.2246C89.3981 71.0996 90.2302 70.4492 91.7009 70.3613L93.5114 70.25V69.6758C93.5114 68.8965 93.0368 68.4746 92.0934 68.4746C91.3376 68.4746 90.8395 68.7559 90.6755 69.248L90.6696 69.2656H89.6501L89.6559 69.2305C89.82 68.2402 90.7809 67.5723 92.1286 67.5723C93.6696 67.5723 94.5309 68.3633 94.5309 69.6758V74H93.5114V73.0684H93.4177C93.0192 73.7422 92.3571 74.1113 91.5075 74.1113ZM90.4411 72.2129C90.4411 72.8516 90.986 73.2266 91.7184 73.2266C92.7555 73.2266 93.5114 72.5469 93.5114 71.6445V71.0703L91.8239 71.1758C90.863 71.2344 90.4411 71.5742 90.4411 72.2012V72.2129ZM98.5184 74.0469C97.2176 74.0469 96.6727 73.5664 96.6727 72.3594V68.5273H95.6766V67.6836H96.6727V66.0488H97.7273V67.6836H99.1102V68.5273H97.7273V72.1016C97.7273 72.8457 97.9852 73.1445 98.6414 73.1445C98.823 73.1445 98.9227 73.1387 99.1102 73.1211V73.9883C98.9109 74.0234 98.7176 74.0469 98.5184 74.0469ZM101.053 66.4648C100.666 66.4648 100.35 66.1484 100.35 65.7617C100.35 65.375 100.666 65.0586 101.053 65.0586C101.439 65.0586 101.756 65.375 101.756 65.7617C101.756 66.1484 101.439 66.4648 101.053 66.4648ZM100.537 74V67.6836H101.557V74H100.537ZM105.954 74.1113C104.155 74.1113 103.042 72.8691 103.042 70.8477V70.8359C103.042 68.8086 104.155 67.5723 105.954 67.5723C107.753 67.5723 108.866 68.8086 108.866 70.8359V70.8477C108.866 72.8691 107.753 74.1113 105.954 74.1113ZM105.954 73.209C107.149 73.209 107.823 72.3359 107.823 70.8477V70.8359C107.823 69.3418 107.149 68.4746 105.954 68.4746C104.759 68.4746 104.085 69.3418 104.085 70.8359V70.8477C104.085 72.3359 104.759 73.209 105.954 73.209ZM110.328 74V67.6836H111.348V68.6328H111.442C111.758 67.9648 112.35 67.5723 113.281 67.5723C114.699 67.5723 115.49 68.4102 115.49 69.9102V74H114.471V70.1562C114.471 69.0195 114.002 68.4746 112.994 68.4746C111.986 68.4746 111.348 69.1543 111.348 70.2617V74H110.328ZM119.384 74.1113C117.978 74.1113 117.011 73.4316 116.894 72.3887H117.937C118.107 72.916 118.611 73.2617 119.419 73.2617C120.269 73.2617 120.872 72.8574 120.872 72.2832V72.2715C120.872 71.8438 120.55 71.5449 119.771 71.3574L118.792 71.123C117.609 70.8418 117.075 70.3262 117.075 69.418V69.4121C117.075 68.3633 118.083 67.5723 119.425 67.5723C120.749 67.5723 121.669 68.2344 121.81 69.2656H120.808C120.673 68.7676 120.181 68.4219 119.419 68.4219C118.669 68.4219 118.118 68.8086 118.118 69.3652V69.377C118.118 69.8047 118.435 70.0742 119.179 70.2559L120.152 70.4902C121.341 70.7773 121.915 71.293 121.915 72.1953V72.207C121.915 73.332 120.82 74.1113 119.384 74.1113Z" fill="black" fill-opacity="0.2"/>
<path d="M15.8203 74.1406C14.0742 74.1406 12.9434 73.168 12.832 71.832L12.8262 71.7617H13.8398L13.8457 71.8203C13.9277 72.6523 14.6953 73.2266 15.8203 73.2266C16.9277 73.2266 17.6836 72.6055 17.6836 71.709V71.6973C17.6836 70.6602 16.9395 70.0801 15.7559 70.0801H14.6953V69.1895H15.709C16.7168 69.1895 17.4199 68.5684 17.4199 67.7246V67.7129C17.4199 66.8281 16.8398 66.3184 15.8086 66.3184C14.8125 66.3184 14.1035 66.8457 14.0156 67.7012L14.0098 67.7598H12.9961L13.002 67.7012C13.1367 66.3242 14.2266 65.4043 15.8086 65.4043C17.4199 65.4043 18.4805 66.3008 18.4805 67.584V67.5957C18.4805 68.6387 17.7422 69.3535 16.6875 69.5762V69.5996C17.918 69.7051 18.7559 70.4727 18.7559 71.6738V71.6855C18.7559 73.0977 17.5137 74.1406 15.8203 74.1406ZM23.6077 74V67.6836H24.6272V68.6445H24.7209C25.0022 67.9648 25.5998 67.5723 26.426 67.5723C27.2815 67.5723 27.8791 68.0234 28.1721 68.6797H28.2659C28.6057 68.0117 29.3264 67.5723 30.1995 67.5723C31.4885 67.5723 32.2092 68.3105 32.2092 69.6348V74H31.1897V69.8691C31.1897 68.9375 30.762 68.4746 29.8713 68.4746C28.9924 68.4746 28.4123 69.1367 28.4123 69.9395V74H27.3928V69.7109C27.3928 68.9609 26.8772 68.4746 26.0803 68.4746C25.2541 68.4746 24.6272 69.1953 24.6272 70.0859V74H23.6077ZM36.5248 74.1113C34.7259 74.1113 33.6127 72.8691 33.6127 70.8477V70.8359C33.6127 68.8086 34.7259 67.5723 36.5248 67.5723C38.3236 67.5723 39.4369 68.8086 39.4369 70.8359V70.8477C39.4369 72.8691 38.3236 74.1113 36.5248 74.1113ZM36.5248 73.209C37.7201 73.209 38.3939 72.3359 38.3939 70.8477V70.8359C38.3939 69.3418 37.7201 68.4746 36.5248 68.4746C35.3295 68.4746 34.6556 69.3418 34.6556 70.8359V70.8477C34.6556 72.3359 35.3295 73.209 36.5248 73.209ZM40.8989 74V67.6836H41.9184V68.6211H42.0122C42.2524 67.959 42.8442 67.5723 43.6997 67.5723C43.893 67.5723 44.1098 67.5957 44.2095 67.6133V68.6035C43.9985 68.5684 43.8052 68.5449 43.5825 68.5449C42.6098 68.5449 41.9184 69.1602 41.9184 70.0859V74H40.8989ZM47.7516 74.1113C45.9469 74.1113 44.857 72.8457 44.857 70.8652V70.8594C44.857 68.9082 45.9703 67.5723 47.6871 67.5723C49.4039 67.5723 50.4469 68.8496 50.4469 70.7363V71.1348H45.9C45.9293 72.4414 46.65 73.2031 47.775 73.2031C48.6305 73.2031 49.1578 72.7988 49.3277 72.418L49.3512 72.3652H50.3707L50.359 72.4121C50.1422 73.2676 49.2398 74.1113 47.7516 74.1113ZM47.6813 68.4805C46.7438 68.4805 46.0289 69.1191 45.9176 70.3203H49.4098C49.3043 69.0723 48.6129 68.4805 47.6813 68.4805ZM55.1639 74V67.6836H56.1834V68.6328H56.2772C56.5936 67.9648 57.1854 67.5723 58.117 67.5723C59.535 67.5723 60.326 68.4102 60.326 69.9102V74H59.3065V70.1562C59.3065 69.0195 58.8377 68.4746 57.8299 68.4746C56.8221 68.4746 56.1834 69.1543 56.1834 70.2617V74H55.1639ZM64.6474 74.1113C62.8486 74.1113 61.7353 72.8691 61.7353 70.8477V70.8359C61.7353 68.8086 62.8486 67.5723 64.6474 67.5723C66.4463 67.5723 67.5595 68.8086 67.5595 70.8359V70.8477C67.5595 72.8691 66.4463 74.1113 64.6474 74.1113ZM64.6474 73.209C65.8427 73.209 66.5166 72.3359 66.5166 70.8477V70.8359C66.5166 69.3418 65.8427 68.4746 64.6474 68.4746C63.4521 68.4746 62.7783 69.3418 62.7783 70.8359V70.8477C62.7783 72.3359 63.4521 73.209 64.6474 73.209ZM71.2657 74.0469C69.9649 74.0469 69.42 73.5664 69.42 72.3594V68.5273H68.4239V67.6836H69.42V66.0488H70.4747V67.6836H71.8575V68.5273H70.4747V72.1016C70.4747 72.8457 70.7325 73.1445 71.3887 73.1445C71.5704 73.1445 71.67 73.1387 71.8575 73.1211V73.9883C71.6583 74.0234 71.4649 74.0469 71.2657 74.0469ZM73.8 66.4648C73.4133 66.4648 73.0969 66.1484 73.0969 65.7617C73.0969 65.375 73.4133 65.0586 73.8 65.0586C74.1867 65.0586 74.5031 65.375 74.5031 65.7617C74.5031 66.1484 74.1867 66.4648 73.8 66.4648ZM73.2844 74V67.6836H74.3039V74H73.2844ZM76.5277 74V68.5273H75.4788V67.6836H76.5277V66.9805C76.5277 65.7207 77.1605 65.1172 78.3616 65.1172C78.6077 65.1172 78.8304 65.1348 79.0413 65.1758V65.9902C78.9183 65.9668 78.7484 65.9609 78.5667 65.9609C77.8402 65.9609 77.5472 66.3184 77.5472 67.0098V67.6836H78.9827V68.5273H77.5472V74H76.5277ZM80.8725 66.4648C80.4858 66.4648 80.1694 66.1484 80.1694 65.7617C80.1694 65.375 80.4858 65.0586 80.8725 65.0586C81.2592 65.0586 81.5756 65.375 81.5756 65.7617C81.5756 66.1484 81.2592 66.4648 80.8725 66.4648ZM80.3569 74V67.6836H81.3764V74H80.3569ZM85.7623 74.1113C83.9927 74.1113 82.8619 72.8281 82.8619 70.8242V70.8125C82.8619 68.8496 83.9869 67.5723 85.7564 67.5723C87.2916 67.5723 88.2115 68.457 88.399 69.582L88.4048 69.6172H87.3912L87.3853 69.5996C87.2271 68.9785 86.6646 68.4746 85.7564 68.4746C84.6197 68.4746 83.9048 69.3887 83.9048 70.8125V70.8242C83.9048 72.2773 84.6314 73.209 85.7564 73.209C86.606 73.209 87.1451 72.834 87.3795 72.1309L87.3912 72.0957L88.399 72.0898L88.3873 72.1543C88.1295 73.2969 87.2798 74.1113 85.7623 74.1113ZM91.5075 74.1113C90.3063 74.1113 89.3981 73.3848 89.3981 72.2363V72.2246C89.3981 71.0996 90.2302 70.4492 91.7009 70.3613L93.5114 70.25V69.6758C93.5114 68.8965 93.0368 68.4746 92.0934 68.4746C91.3376 68.4746 90.8395 68.7559 90.6755 69.248L90.6696 69.2656H89.6501L89.6559 69.2305C89.82 68.2402 90.7809 67.5723 92.1286 67.5723C93.6696 67.5723 94.5309 68.3633 94.5309 69.6758V74H93.5114V73.0684H93.4177C93.0192 73.7422 92.3571 74.1113 91.5075 74.1113ZM90.4411 72.2129C90.4411 72.8516 90.986 73.2266 91.7184 73.2266C92.7555 73.2266 93.5114 72.5469 93.5114 71.6445V71.0703L91.8239 71.1758C90.863 71.2344 90.4411 71.5742 90.4411 72.2012V72.2129ZM98.5184 74.0469C97.2176 74.0469 96.6727 73.5664 96.6727 72.3594V68.5273H95.6766V67.6836H96.6727V66.0488H97.7273V67.6836H99.1102V68.5273H97.7273V72.1016C97.7273 72.8457 97.9852 73.1445 98.6414 73.1445C98.823 73.1445 98.9227 73.1387 99.1102 73.1211V73.9883C98.9109 74.0234 98.7176 74.0469 98.5184 74.0469ZM101.053 66.4648C100.666 66.4648 100.35 66.1484 100.35 65.7617C100.35 65.375 100.666 65.0586 101.053 65.0586C101.439 65.0586 101.756 65.375 101.756 65.7617C101.756 66.1484 101.439 66.4648 101.053 66.4648ZM100.537 74V67.6836H101.557V74H100.537ZM105.954 74.1113C104.155 74.1113 103.042 72.8691 103.042 70.8477V70.8359C103.042 68.8086 104.155 67.5723 105.954 67.5723C107.753 67.5723 108.866 68.8086 108.866 70.8359V70.8477C108.866 72.8691 107.753 74.1113 105.954 74.1113ZM105.954 73.209C107.149 73.209 107.823 72.3359 107.823 70.8477V70.8359C107.823 69.3418 107.149 68.4746 105.954 68.4746C104.759 68.4746 104.085 69.3418 104.085 70.8359V70.8477C104.085 72.3359 104.759 73.209 105.954 73.209ZM110.328 74V67.6836H111.348V68.6328H111.442C111.758 67.9648 112.35 67.5723 113.281 67.5723C114.699 67.5723 115.49 68.4102 115.49 69.9102V74H114.471V70.1562C114.471 69.0195 114.002 68.4746 112.994 68.4746C111.986 68.4746 111.348 69.1543 111.348 70.2617V74H110.328ZM119.384 74.1113C117.978 74.1113 117.011 73.4316 116.894 72.3887H117.937C118.107 72.916 118.611 73.2617 119.419 73.2617C120.269 73.2617 120.872 72.8574 120.872 72.2832V72.2715C120.872 71.8438 120.55 71.5449 119.771 71.3574L118.792 71.123C117.609 70.8418 117.075 70.3262 117.075 69.418V69.4121C117.075 68.3633 118.083 67.5723 119.425 67.5723C120.749 67.5723 121.669 68.2344 121.81 69.2656H120.808C120.673 68.7676 120.181 68.4219 119.419 68.4219C118.669 68.4219 118.118 68.8086 118.118 69.3652V69.377C118.118 69.8047 118.435 70.0742 119.179 70.2559L120.152 70.4902C121.341 70.7773 121.915 71.293 121.915 72.1953V72.207C121.915 73.332 120.82 74.1113 119.384 74.1113Z" fill="black" fill-opacity="0.36" style="mix-blend-mode:overlay"/>
</g>
<path d="M28 23.7646H12C12.184 19.4448 15.6953 16 20 16C24.3047 16 27.816 19.4448 28 23.7646Z" fill="#FFBD00"/>
<path d="M25.5294 23.7645H14.4707C14.6521 20.8274 17.0584 18.5022 20 18.5022C22.9417 18.5022 25.348 20.8274 25.5294 23.7645Z" fill="#FFA300"/>
<path d="M23.3052 23.7646H16.6947C16.8031 22.0089 18.2415 20.6189 20 20.6189C21.7584 20.6189 23.1968 22.0089 23.3052 23.7646Z" fill="#FF6054"/>
<defs>
<filter id="filter0_b_117_636" x="-90" y="-90" width="500" height="283" filterUnits="userSpaceOnUse" color-interpolation-filters="sRGB">
<feFlood flood-opacity="0" result="BackgroundImageFix"/>
<feGaussianBlur in="BackgroundImageFix" stdDeviation="45"/>
<feComposite in2="SourceAlpha" operator="in" result="effect1_backgroundBlur_117_636"/>
<feBlend mode="normal" in="SourceGraphic" in2="effect1_backgroundBlur_117_636" result="shape"/>
</filter>
<filter id="filter1_b_117_636" x="-61" y="13" width="442" height="156" filterUnits="userSpaceOnUse" color-interpolation-filters="sRGB">
<feFlood flood-opacity="0" result="BackgroundImageFix"/>
<feGaussianBlur in="BackgroundImageFix" stdDeviation="37"/>
<feComposite in2="SourceAlpha" operator="in" result="effect1_backgroundBlur_117_636"/>
<feBlend mode="normal" in="SourceGraphic" in2="effect1_backgroundBlur_117_636" result="shape"/>
</filter>
<filter id="filter2_b_117_636" x="-49" y="21" width="418" height="156" filterUnits="userSpaceOnUse" color-interpolation-filters="sRGB">
<feFlood flood-opacity="0" result="BackgroundImageFix"/>
<feGaussianBlur in="BackgroundImageFix" stdDeviation="37"/>
<feComposite in2="SourceAlpha" operator="in" result="effect1_backgroundBlur_117_636"/>
<feBlend mode="normal" in="SourceGraphic" in2="effect1_backgroundBlur_117_636" result="shape"/>
</filter>
<clipPath id="clip0_117_636">
<rect width="20" height="20" fill="white" transform="translate(10 10)"/>
</clipPath>
</defs>
</svg>
