<svg width="340" height="325" viewBox="0 0 340 325" fill="none" xmlns="http://www.w3.org/2000/svg">
<g clip-path="url(#clip0_140_447)">
<rect x="66.1538" y="201.615" width="193.846" height="24" rx="12" fill="#0E0E0E" fill-opacity="0.1"/>
<path d="M78.042 217.154V209.769H80.6742C81.2463 209.769 81.7211 209.868 82.0985 210.065C82.4783 210.262 82.762 210.535 82.9495 210.883C83.137 211.23 83.2307 211.63 83.2307 212.084C83.2307 212.536 83.1358 212.934 82.9459 213.278C82.7584 213.619 82.4747 213.885 82.0949 214.074C81.7175 214.264 81.2427 214.359 80.6706 214.359H78.6766V213.4H80.5697C80.9302 213.4 81.2235 213.349 81.4495 213.245C81.6778 213.142 81.8449 212.992 81.9507 212.794C82.0564 212.597 82.1093 212.361 82.1093 212.084C82.1093 211.805 82.0552 211.564 81.9471 211.359C81.8413 211.155 81.6742 210.999 81.4459 210.891C81.2199 210.78 80.923 210.725 80.5552 210.725H79.1562V217.154H78.042ZM81.6874 213.822L83.512 217.154H82.2427L80.4543 213.822H81.6874ZM86.8176 217.266C86.2719 217.266 85.8019 217.149 85.4077 216.916C85.0159 216.68 84.713 216.35 84.499 215.924C84.2875 215.496 84.1817 214.995 84.1817 214.421C84.1817 213.853 84.2875 213.353 84.499 212.921C84.713 212.488 85.0111 212.15 85.3933 211.907C85.7779 211.665 86.2274 211.543 86.7418 211.543C87.0543 211.543 87.3572 211.595 87.6505 211.698C87.9438 211.802 88.207 211.964 88.4401 212.185C88.6733 212.406 88.8572 212.693 88.9918 213.047C89.1264 213.398 89.1938 213.824 89.1938 214.327V214.709H84.7911V213.901H88.1373C88.1373 213.618 88.0796 213.367 87.9642 213.148C87.8488 212.927 87.6865 212.752 87.4774 212.625C87.2707 212.498 87.0279 212.434 86.749 212.434C86.4462 212.434 86.1817 212.508 85.9558 212.657C85.7322 212.804 85.5591 212.996 85.4365 213.234C85.3163 213.47 85.2563 213.726 85.2563 214.002V214.633C85.2563 215.004 85.3212 215.318 85.451 215.578C85.5832 215.838 85.7671 216.036 86.0026 216.173C86.2382 216.308 86.5135 216.375 86.8284 216.375C87.0327 216.375 87.219 216.346 87.3873 216.288C87.5555 216.228 87.701 216.139 87.8236 216.022C87.9462 215.904 88.0399 215.758 88.1048 215.585L89.1252 215.769C89.0435 216.07 88.8969 216.333 88.6853 216.559C88.4762 216.782 88.213 216.957 87.8957 217.082C87.5808 217.204 87.2214 217.266 86.8176 217.266ZM92.7229 217.266C92.1868 217.266 91.7253 217.144 91.3383 216.901C90.9537 216.656 90.658 216.318 90.4513 215.888C90.2445 215.458 90.1412 214.965 90.1412 214.41C90.1412 213.847 90.2469 213.351 90.4585 212.921C90.67 212.488 90.9681 212.15 91.3527 211.907C91.7373 211.665 92.1904 211.543 92.7121 211.543C93.1328 211.543 93.5078 211.621 93.8371 211.778C94.1664 211.931 94.432 212.148 94.634 212.427C94.8383 212.705 94.9597 213.031 94.9981 213.404H93.9489C93.8912 213.144 93.759 212.921 93.5522 212.733C93.3479 212.546 93.0739 212.452 92.7301 212.452C92.4296 212.452 92.1664 212.531 91.9404 212.69C91.7169 212.846 91.5426 213.07 91.4176 213.361C91.2926 213.649 91.2301 213.99 91.2301 214.385C91.2301 214.788 91.2914 215.137 91.414 215.43C91.5366 215.724 91.7097 215.951 91.9332 216.112C92.1592 216.273 92.4248 216.353 92.7301 216.353C92.9344 216.353 93.1195 216.316 93.2854 216.242C93.4537 216.165 93.5943 216.055 93.7073 215.913C93.8227 215.772 93.9032 215.601 93.9489 215.401H94.9981C94.9597 215.76 94.8431 216.079 94.6484 216.361C94.4537 216.642 94.1929 216.863 93.8659 217.024C93.5414 217.185 93.1604 217.266 92.7229 217.266ZM98.484 217.266C97.9648 217.266 97.5117 217.147 97.1246 216.909C96.7376 216.671 96.4371 216.338 96.2232 215.91C96.0093 215.482 95.9023 214.982 95.9023 214.41C95.9023 213.835 96.0093 213.333 96.2232 212.903C96.4371 212.472 96.7376 212.138 97.1246 211.9C97.5117 211.662 97.9648 211.543 98.484 211.543C99.0032 211.543 99.4564 211.662 99.8434 211.9C100.23 212.138 100.531 212.472 100.745 212.903C100.959 213.333 101.066 213.835 101.066 214.41C101.066 214.982 100.959 215.482 100.745 215.91C100.531 216.338 100.23 216.671 99.8434 216.909C99.4564 217.147 99.0032 217.266 98.484 217.266ZM98.4876 216.361C98.8242 216.361 99.103 216.272 99.3242 216.094C99.5453 215.916 99.7088 215.679 99.8145 215.383C99.9227 215.088 99.9768 214.762 99.9768 214.406C99.9768 214.053 99.9227 213.728 99.8145 213.433C99.7088 213.135 99.5453 212.895 99.3242 212.715C99.103 212.535 98.8242 212.445 98.4876 212.445C98.1487 212.445 97.8674 212.535 97.6439 212.715C97.4227 212.895 97.2581 213.135 97.1499 213.433C97.0441 213.728 96.9912 214.053 96.9912 214.406C96.9912 214.762 97.0441 215.088 97.1499 215.383C97.2581 215.679 97.4227 215.916 97.6439 216.094C97.8674 216.272 98.1487 216.361 98.4876 216.361ZM102.269 217.154V211.615H103.304V212.517H103.373C103.488 212.212 103.677 211.974 103.939 211.803C104.201 211.63 104.514 211.543 104.88 211.543C105.25 211.543 105.56 211.63 105.81 211.803C106.062 211.976 106.249 212.214 106.369 212.517H106.427C106.559 212.221 106.769 211.986 107.058 211.81C107.346 211.632 107.69 211.543 108.089 211.543C108.591 211.543 109.001 211.701 109.318 212.016C109.638 212.33 109.798 212.805 109.798 213.44V217.154H108.72V213.541C108.72 213.166 108.618 212.894 108.413 212.726C108.209 212.558 107.965 212.474 107.681 212.474C107.33 212.474 107.058 212.582 106.863 212.798C106.668 213.012 106.571 213.287 106.571 213.624V217.154H105.496V213.472C105.496 213.172 105.403 212.93 105.215 212.748C105.028 212.565 104.784 212.474 104.483 212.474C104.279 212.474 104.09 212.528 103.917 212.636C103.746 212.742 103.608 212.889 103.502 213.079C103.399 213.269 103.347 213.489 103.347 213.739V217.154H102.269ZM111.243 217.154V211.615H112.278V212.517H112.346C112.462 212.212 112.65 211.974 112.913 211.803C113.175 211.63 113.488 211.543 113.854 211.543C114.224 211.543 114.534 211.63 114.784 211.803C115.036 211.976 115.223 212.214 115.343 212.517H115.4C115.533 212.221 115.743 211.986 116.031 211.81C116.32 211.632 116.664 211.543 117.063 211.543C117.565 211.543 117.975 211.701 118.292 212.016C118.612 212.33 118.772 212.805 118.772 213.44V217.154H117.694V213.541C117.694 213.166 117.592 212.894 117.387 212.726C117.183 212.558 116.939 212.474 116.655 212.474C116.304 212.474 116.031 212.582 115.837 212.798C115.642 213.012 115.545 213.287 115.545 213.624V217.154H114.47V213.472C114.47 213.172 114.376 212.93 114.189 212.748C114.001 212.565 113.757 212.474 113.457 212.474C113.253 212.474 113.064 212.528 112.891 212.636C112.72 212.742 112.582 212.889 112.476 213.079C112.373 213.269 112.321 213.489 112.321 213.739V217.154H111.243ZM122.604 217.266C122.058 217.266 121.588 217.149 121.194 216.916C120.802 216.68 120.499 216.35 120.285 215.924C120.074 215.496 119.968 214.995 119.968 214.421C119.968 213.853 120.074 213.353 120.285 212.921C120.499 212.488 120.797 212.15 121.18 211.907C121.564 211.665 122.014 211.543 122.528 211.543C122.841 211.543 123.144 211.595 123.437 211.698C123.73 211.802 123.993 211.964 124.227 212.185C124.46 212.406 124.644 212.693 124.778 213.047C124.913 213.398 124.98 213.824 124.98 214.327V214.709H120.577V213.901H123.924C123.924 213.618 123.866 213.367 123.751 213.148C123.635 212.927 123.473 212.752 123.264 212.625C123.057 212.498 122.814 212.434 122.535 212.434C122.233 212.434 121.968 212.508 121.742 212.657C121.519 212.804 121.345 212.996 121.223 213.234C121.103 213.47 121.043 213.726 121.043 214.002V214.633C121.043 215.004 121.108 215.318 121.237 215.578C121.37 215.838 121.553 216.036 121.789 216.173C122.025 216.308 122.3 216.375 122.615 216.375C122.819 216.375 123.005 216.346 123.174 216.288C123.342 216.228 123.487 216.139 123.61 216.022C123.733 215.904 123.826 215.758 123.891 215.585L124.912 215.769C124.83 216.07 124.683 216.333 124.472 216.559C124.263 216.782 123.999 216.957 123.682 217.082C123.367 217.204 123.008 217.266 122.604 217.266ZM127.254 213.865V217.154H126.176V211.615H127.211V212.517H127.28C127.407 212.224 127.607 211.988 127.878 211.81C128.152 211.632 128.497 211.543 128.913 211.543C129.291 211.543 129.621 211.623 129.905 211.781C130.188 211.937 130.408 212.171 130.565 212.481C130.721 212.791 130.799 213.174 130.799 213.631V217.154H129.721V213.761C129.721 213.359 129.616 213.046 129.407 212.82C129.198 212.591 128.911 212.477 128.545 212.477C128.295 212.477 128.073 212.531 127.878 212.639C127.686 212.748 127.533 212.906 127.42 213.115C127.31 213.322 127.254 213.572 127.254 213.865ZM134.318 217.262C133.871 217.262 133.472 217.148 133.121 216.919C132.772 216.689 132.498 216.361 132.299 215.935C132.102 215.507 132.003 214.994 132.003 214.395C132.003 213.797 132.103 213.285 132.303 212.859C132.504 212.434 132.781 212.108 133.132 211.882C133.483 211.656 133.881 211.543 134.325 211.543C134.669 211.543 134.946 211.601 135.155 211.716C135.366 211.829 135.53 211.962 135.645 212.113C135.763 212.264 135.854 212.398 135.919 212.513H135.984V209.769H137.062V217.154H136.009V216.292H135.919C135.854 216.41 135.76 216.544 135.638 216.696C135.518 216.847 135.352 216.98 135.14 217.093C134.929 217.205 134.655 217.262 134.318 217.262ZM134.556 216.343C134.866 216.343 135.128 216.261 135.342 216.097C135.559 215.931 135.722 215.702 135.833 215.409C135.946 215.115 136.002 214.774 136.002 214.385C136.002 214 135.947 213.663 135.836 213.375C135.726 213.087 135.563 212.862 135.349 212.701C135.135 212.54 134.871 212.459 134.556 212.459C134.232 212.459 133.961 212.543 133.745 212.712C133.528 212.88 133.365 213.109 133.254 213.4C133.146 213.691 133.092 214.019 133.092 214.385C133.092 214.755 133.147 215.088 133.258 215.383C133.369 215.679 133.532 215.913 133.748 216.087C133.967 216.257 134.236 216.343 134.556 216.343ZM140.988 217.266C140.442 217.266 139.972 217.149 139.578 216.916C139.186 216.68 138.883 216.35 138.669 215.924C138.458 215.496 138.352 214.995 138.352 214.421C138.352 213.853 138.458 213.353 138.669 212.921C138.883 212.488 139.181 212.15 139.564 211.907C139.948 211.665 140.398 211.543 140.912 211.543C141.225 211.543 141.528 211.595 141.821 211.698C142.114 211.802 142.377 211.964 142.611 212.185C142.844 212.406 143.028 212.693 143.162 213.047C143.297 213.398 143.364 213.824 143.364 214.327V214.709H138.961V213.901H142.308C142.308 213.618 142.25 213.367 142.135 213.148C142.019 212.927 141.857 212.752 141.648 212.625C141.441 212.498 141.198 212.434 140.919 212.434C140.617 212.434 140.352 212.508 140.126 212.657C139.903 212.804 139.73 212.996 139.607 213.234C139.487 213.47 139.427 213.726 139.427 214.002V214.633C139.427 215.004 139.492 215.318 139.621 215.578C139.754 215.838 139.937 216.036 140.173 216.173C140.409 216.308 140.684 216.375 140.999 216.375C141.203 216.375 141.389 216.346 141.558 216.288C141.726 216.228 141.871 216.139 141.994 216.022C142.117 215.904 142.21 215.758 142.275 215.585L143.296 215.769C143.214 216.07 143.067 216.333 142.856 216.559C142.647 216.782 142.383 216.957 142.066 217.082C141.751 217.204 141.392 217.266 140.988 217.266ZM146.634 217.262C146.187 217.262 145.788 217.148 145.437 216.919C145.088 216.689 144.814 216.361 144.614 215.935C144.417 215.507 144.319 214.994 144.319 214.395C144.319 213.797 144.419 213.285 144.618 212.859C144.82 212.434 145.096 212.108 145.447 211.882C145.798 211.656 146.196 211.543 146.641 211.543C146.985 211.543 147.261 211.601 147.47 211.716C147.682 211.829 147.845 211.962 147.961 212.113C148.078 212.264 148.17 212.398 148.235 212.513H148.3V209.769H149.378V217.154H148.325V216.292H148.235C148.17 216.41 148.076 216.544 147.953 216.696C147.833 216.847 147.667 216.98 147.456 217.093C147.244 217.205 146.97 217.262 146.634 217.262ZM146.872 216.343C147.182 216.343 147.444 216.261 147.658 216.097C147.874 215.931 148.038 215.702 148.148 215.409C148.261 215.115 148.318 214.774 148.318 214.385C148.318 214 148.262 213.663 148.152 213.375C148.041 213.087 147.879 212.862 147.665 212.701C147.451 212.54 147.187 212.459 146.872 212.459C146.547 212.459 146.277 212.543 146.06 212.712C145.844 212.88 145.681 213.109 145.57 213.4C145.462 213.691 145.408 214.019 145.408 214.385C145.408 214.755 145.463 215.088 145.574 215.383C145.684 215.679 145.848 215.913 146.064 216.087C146.283 216.257 146.552 216.343 146.872 216.343ZM156.189 211.615V212.481H153.164V211.615H156.189ZM153.975 210.288H155.053V215.528C155.053 215.737 155.084 215.894 155.147 216C155.209 216.103 155.29 216.174 155.388 216.213C155.489 216.249 155.599 216.267 155.717 216.267C155.803 216.267 155.879 216.261 155.944 216.249C156.009 216.237 156.059 216.227 156.095 216.22L156.29 217.111C156.227 217.135 156.138 217.159 156.023 217.183C155.908 217.209 155.763 217.224 155.59 217.226C155.307 217.231 155.042 217.18 154.797 217.074C154.552 216.969 154.354 216.805 154.202 216.584C154.051 216.363 153.975 216.085 153.975 215.751V210.288ZM158.993 217.276C158.642 217.276 158.325 217.212 158.041 217.082C157.758 216.949 157.533 216.758 157.367 216.508C157.204 216.258 157.122 215.952 157.122 215.589C157.122 215.276 157.182 215.019 157.302 214.817C157.422 214.615 157.585 214.455 157.789 214.338C157.993 214.22 158.222 214.131 158.474 214.071C158.727 214.011 158.984 213.965 159.246 213.934C159.577 213.895 159.847 213.864 160.053 213.84C160.26 213.814 160.41 213.772 160.504 213.714C160.598 213.656 160.645 213.562 160.645 213.433V213.407C160.645 213.093 160.556 212.849 160.378 212.675C160.202 212.502 159.94 212.416 159.592 212.416C159.229 212.416 158.943 212.496 158.734 212.657C158.527 212.816 158.384 212.993 158.305 213.187L157.291 212.957C157.412 212.62 157.587 212.349 157.818 212.142C158.051 211.933 158.319 211.781 158.622 211.687C158.925 211.591 159.243 211.543 159.577 211.543C159.799 211.543 160.033 211.57 160.281 211.623C160.531 211.673 160.764 211.767 160.98 211.904C161.199 212.041 161.378 212.237 161.517 212.492C161.657 212.744 161.727 213.072 161.727 213.476V217.154H160.674V216.397H160.63C160.561 216.536 160.456 216.673 160.317 216.808C160.177 216.942 159.998 217.054 159.779 217.143C159.561 217.232 159.299 217.276 158.993 217.276ZM159.228 216.411C159.526 216.411 159.781 216.352 159.992 216.234C160.206 216.117 160.368 215.963 160.479 215.773C160.592 215.58 160.648 215.375 160.648 215.156V214.442C160.61 214.481 160.535 214.517 160.425 214.55C160.317 214.582 160.193 214.609 160.053 214.633C159.914 214.655 159.778 214.675 159.646 214.695C159.514 214.712 159.403 214.726 159.314 214.738C159.105 214.764 158.914 214.809 158.741 214.871C158.57 214.934 158.433 215.024 158.33 215.142C158.229 215.257 158.178 215.411 158.178 215.603C158.178 215.87 158.277 216.072 158.474 216.209C158.671 216.344 158.922 216.411 159.228 216.411ZM164.241 213.865V217.154H163.163V211.615H164.197V212.517H164.266C164.393 212.224 164.593 211.988 164.864 211.81C165.138 211.632 165.483 211.543 165.899 211.543C166.277 211.543 166.607 211.623 166.891 211.781C167.175 211.937 167.394 212.171 167.551 212.481C167.707 212.791 167.785 213.174 167.785 213.631V217.154H166.707V213.761C166.707 213.359 166.602 213.046 166.393 212.82C166.184 212.591 165.897 212.477 165.531 212.477C165.281 212.477 165.059 212.531 164.864 212.639C164.672 212.748 164.519 212.906 164.406 213.115C164.296 213.322 164.241 213.572 164.241 213.865ZM170.309 213.865V217.154H169.231V211.615H170.266V212.517H170.334C170.462 212.224 170.661 211.988 170.933 211.81C171.207 211.632 171.552 211.543 171.968 211.543C172.345 211.543 172.676 211.623 172.959 211.781C173.243 211.937 173.463 212.171 173.619 212.481C173.775 212.791 173.854 213.174 173.854 213.631V217.154H172.775V213.761C172.775 213.359 172.671 213.046 172.462 212.82C172.253 212.591 171.965 212.477 171.6 212.477C171.35 212.477 171.128 212.531 170.933 212.639C170.741 212.748 170.588 212.906 170.475 213.115C170.364 213.322 170.309 213.572 170.309 213.865ZM175.3 217.154V211.615H176.378V217.154H175.3ZM175.844 210.761C175.656 210.761 175.495 210.698 175.361 210.573C175.229 210.446 175.163 210.294 175.163 210.119C175.163 209.941 175.229 209.79 175.361 209.665C175.495 209.537 175.656 209.474 175.844 209.474C176.031 209.474 176.191 209.537 176.324 209.665C176.458 209.79 176.525 209.941 176.525 210.119C176.525 210.294 176.458 210.446 176.324 210.573C176.191 210.698 176.031 210.761 175.844 210.761ZM178.906 213.865V217.154H177.828V211.615H178.863V212.517H178.931C179.059 212.224 179.258 211.988 179.53 211.81C179.804 211.632 180.149 211.543 180.565 211.543C180.942 211.543 181.273 211.623 181.556 211.781C181.84 211.937 182.06 212.171 182.216 212.481C182.373 212.791 182.451 213.174 182.451 213.631V217.154H181.373V213.761C181.373 213.359 181.268 213.046 181.059 212.82C180.85 212.591 180.562 212.477 180.197 212.477C179.947 212.477 179.725 212.531 179.53 212.639C179.338 212.748 179.185 212.906 179.072 213.115C178.961 213.322 178.906 213.572 178.906 213.865ZM186.219 219.346C185.779 219.346 185.4 219.288 185.083 219.173C184.768 219.058 184.511 218.905 184.311 218.715C184.112 218.525 183.963 218.317 183.864 218.091L184.791 217.709C184.856 217.815 184.942 217.927 185.05 218.044C185.161 218.165 185.31 218.267 185.498 218.351C185.687 218.435 185.931 218.477 186.23 218.477C186.638 218.477 186.976 218.377 187.243 218.178C187.51 217.981 187.643 217.666 187.643 217.233V216.144H187.574C187.51 216.262 187.416 216.393 187.293 216.537C187.173 216.681 187.007 216.806 186.796 216.912C186.584 217.018 186.309 217.071 185.97 217.071C185.532 217.071 185.138 216.969 184.787 216.764C184.439 216.558 184.162 216.254 183.958 215.852C183.756 215.448 183.655 214.952 183.655 214.363C183.655 213.774 183.755 213.269 183.954 212.849C184.156 212.428 184.433 212.106 184.784 211.882C185.135 211.656 185.532 211.543 185.977 211.543C186.321 211.543 186.598 211.601 186.81 211.716C187.022 211.829 187.186 211.962 187.304 212.113C187.424 212.264 187.517 212.398 187.582 212.513H187.661V211.615H188.717V217.276C188.717 217.752 188.607 218.143 188.386 218.448C188.165 218.754 187.865 218.98 187.488 219.126C187.113 219.273 186.69 219.346 186.219 219.346ZM186.208 216.177C186.518 216.177 186.78 216.105 186.994 215.96C187.21 215.814 187.374 215.605 187.484 215.333C187.597 215.059 187.654 214.731 187.654 214.349C187.654 213.976 187.598 213.648 187.488 213.364C187.377 213.08 187.215 212.859 187.001 212.701C186.787 212.54 186.523 212.459 186.208 212.459C185.883 212.459 185.613 212.543 185.397 212.712C185.18 212.877 185.017 213.103 184.906 213.389C184.798 213.675 184.744 213.995 184.744 214.349C184.744 214.712 184.799 215.03 184.91 215.304C185.02 215.578 185.184 215.792 185.4 215.946C185.619 216.1 185.888 216.177 186.208 216.177ZM195.436 211.615V212.481H192.411V211.615H195.436ZM193.222 210.288H194.3V215.528C194.3 215.737 194.331 215.894 194.394 216C194.456 216.103 194.537 216.174 194.635 216.213C194.736 216.249 194.846 216.267 194.964 216.267C195.05 216.267 195.126 216.261 195.191 216.249C195.256 216.237 195.306 216.227 195.342 216.22L195.537 217.111C195.474 217.135 195.385 217.159 195.27 217.183C195.155 217.209 195.01 217.224 194.837 217.226C194.554 217.231 194.289 217.18 194.044 217.074C193.799 216.969 193.601 216.805 193.449 216.584C193.298 216.363 193.222 216.085 193.222 215.751V210.288ZM196.629 217.154V211.615H197.707V217.154H196.629ZM197.173 210.761C196.986 210.761 196.824 210.698 196.69 210.573C196.558 210.446 196.492 210.294 196.492 210.119C196.492 209.941 196.558 209.79 196.69 209.665C196.824 209.537 196.986 209.474 197.173 209.474C197.361 209.474 197.52 209.537 197.653 209.665C197.787 209.79 197.855 209.941 197.855 210.119C197.855 210.294 197.787 210.446 197.653 210.573C197.52 210.698 197.361 210.761 197.173 210.761ZM199.157 217.154V211.615H200.192V212.517H200.26C200.376 212.212 200.565 211.974 200.827 211.803C201.089 211.63 201.402 211.543 201.768 211.543C202.138 211.543 202.448 211.63 202.698 211.803C202.95 211.976 203.137 212.214 203.257 212.517H203.315C203.447 212.221 203.657 211.986 203.946 211.81C204.234 211.632 204.578 211.543 204.977 211.543C205.479 211.543 205.889 211.701 206.206 212.016C206.526 212.33 206.686 212.805 206.686 213.44V217.154H205.608V213.541C205.608 213.166 205.506 212.894 205.301 212.726C205.097 212.558 204.853 212.474 204.569 212.474C204.218 212.474 203.946 212.582 203.751 212.798C203.556 213.012 203.459 213.287 203.459 213.624V217.154H202.384V213.472C202.384 213.172 202.291 212.93 202.103 212.748C201.916 212.565 201.672 212.474 201.371 212.474C201.167 212.474 200.978 212.528 200.805 212.636C200.634 212.742 200.496 212.889 200.39 213.079C200.287 213.269 200.235 213.489 200.235 213.739V217.154H199.157ZM210.518 217.266C209.972 217.266 209.502 217.149 209.108 216.916C208.716 216.68 208.413 216.35 208.199 215.924C207.988 215.496 207.882 214.995 207.882 214.421C207.882 213.853 207.988 213.353 208.199 212.921C208.413 212.488 208.711 212.15 209.094 211.907C209.478 211.665 209.928 211.543 210.442 211.543C210.755 211.543 211.058 211.595 211.351 211.698C211.644 211.802 211.907 211.964 212.141 212.185C212.374 212.406 212.558 212.693 212.692 213.047C212.827 213.398 212.894 213.824 212.894 214.327V214.709H208.492V213.901H211.838C211.838 213.618 211.78 213.367 211.665 213.148C211.549 212.927 211.387 212.752 211.178 212.625C210.971 212.498 210.728 212.434 210.449 212.434C210.147 212.434 209.882 212.508 209.656 212.657C209.433 212.804 209.26 212.996 209.137 213.234C209.017 213.47 208.957 213.726 208.957 214.002V214.633C208.957 215.004 209.022 215.318 209.151 215.578C209.284 215.838 209.467 216.036 209.703 216.173C209.939 216.308 210.214 216.375 210.529 216.375C210.733 216.375 210.919 216.346 211.088 216.288C211.256 216.228 211.401 216.139 211.524 216.022C211.647 215.904 211.74 215.758 211.805 215.585L212.826 215.769C212.744 216.07 212.597 216.333 212.386 216.559C212.177 216.782 211.913 216.957 211.596 217.082C211.281 217.204 210.922 217.266 210.518 217.266ZM214.801 217.222C214.604 217.222 214.434 217.153 214.292 217.013C214.15 216.871 214.08 216.701 214.08 216.501C214.08 216.304 214.15 216.136 214.292 215.996C214.434 215.855 214.604 215.784 214.801 215.784C214.998 215.784 215.167 215.855 215.309 215.996C215.451 216.136 215.522 216.304 215.522 216.501C215.522 216.633 215.488 216.755 215.421 216.865C215.356 216.974 215.269 217.06 215.161 217.125C215.053 217.19 214.933 217.222 214.801 217.222ZM214.801 213.191C214.604 213.191 214.434 213.12 214.292 212.978C214.15 212.837 214.08 212.667 214.08 212.47C214.08 212.273 214.15 212.105 214.292 211.965C214.434 211.823 214.604 211.752 214.801 211.752C214.998 211.752 215.167 211.823 215.309 211.965C215.451 212.105 215.522 212.273 215.522 212.47C215.522 212.602 215.488 212.724 215.421 212.834C215.356 212.942 215.269 213.029 215.161 213.094C215.053 213.159 214.933 213.191 214.801 213.191ZM222.44 209.769V217.154H221.323V210.887H221.279L219.513 212.041V210.974L221.355 209.769H222.44ZM228.218 213.865V217.154H227.14V209.769H228.203V212.517H228.272C228.402 212.219 228.6 211.982 228.867 211.806C229.134 211.631 229.482 211.543 229.912 211.543C230.292 211.543 230.624 211.621 230.908 211.778C231.194 211.934 231.415 212.167 231.571 212.477C231.73 212.785 231.809 213.169 231.809 213.631V217.154H230.731V213.761C230.731 213.355 230.626 213.04 230.417 212.816C230.208 212.59 229.917 212.477 229.545 212.477C229.29 212.477 229.062 212.531 228.86 212.639C228.66 212.748 228.503 212.906 228.387 213.115C228.274 213.322 228.218 213.572 228.218 213.865ZM235.581 217.266C235.062 217.266 234.608 217.147 234.221 216.909C233.834 216.671 233.534 216.338 233.32 215.91C233.106 215.482 232.999 214.982 232.999 214.41C232.999 213.835 233.106 213.333 233.32 212.903C233.534 212.472 233.834 212.138 234.221 211.9C234.608 211.662 235.062 211.543 235.581 211.543C236.1 211.543 236.553 211.662 236.94 211.9C237.327 212.138 237.628 212.472 237.842 212.903C238.056 213.333 238.162 213.835 238.162 214.41C238.162 214.982 238.056 215.482 237.842 215.91C237.628 216.338 237.327 216.671 236.94 216.909C236.553 217.147 236.1 217.266 235.581 217.266ZM235.584 216.361C235.921 216.361 236.2 216.272 236.421 216.094C236.642 215.916 236.806 215.679 236.911 215.383C237.019 215.088 237.074 214.762 237.074 214.406C237.074 214.053 237.019 213.728 236.911 213.433C236.806 213.135 236.642 212.895 236.421 212.715C236.2 212.535 235.921 212.445 235.584 212.445C235.245 212.445 234.964 212.535 234.741 212.715C234.519 212.895 234.355 213.135 234.247 213.433C234.141 213.728 234.088 214.053 234.088 214.406C234.088 214.762 234.141 215.088 234.247 215.383C234.355 215.679 234.519 215.916 234.741 216.094C234.964 216.272 235.245 216.361 235.584 216.361ZM242.874 214.857V211.615H243.956V217.154H242.896V216.195H242.838C242.711 216.49 242.507 216.737 242.225 216.934C241.946 217.129 241.599 217.226 241.183 217.226C240.827 217.226 240.513 217.148 240.239 216.992C239.967 216.833 239.753 216.599 239.597 216.288C239.443 215.978 239.366 215.595 239.366 215.138V211.615H240.444V215.008C240.444 215.386 240.549 215.686 240.758 215.91C240.967 216.133 241.239 216.245 241.573 216.245C241.775 216.245 241.975 216.195 242.175 216.094C242.377 215.993 242.544 215.84 242.676 215.636C242.811 215.431 242.877 215.172 242.874 214.857ZM245.405 217.154V211.615H246.447V212.495H246.504C246.605 212.197 246.783 211.963 247.038 211.792C247.295 211.619 247.586 211.532 247.911 211.532C247.978 211.532 248.057 211.535 248.149 211.54C248.242 211.544 248.316 211.55 248.369 211.558V212.589C248.325 212.577 248.248 212.564 248.138 212.549C248.027 212.532 247.917 212.524 247.806 212.524C247.551 212.524 247.324 212.578 247.125 212.686C246.928 212.792 246.771 212.94 246.656 213.13C246.541 213.317 246.483 213.531 246.483 213.772V217.154H245.405Z" fill="#787878"/>
<rect x="19.0769" y="156.385" width="294.462" height="9.23077" rx="4.61538" fill="#0E0E0E" fill-opacity="0.1"/>
<rect x="19.0769" y="156.385" width="294.462" height="9.23077" rx="4.61538" fill="url(#paint0_linear_140_447)"/>
<g filter="url(#filter0_d_140_447)">
<rect x="11.6924" y="149.923" width="22.1538" height="22.1538" rx="11.0769" fill="#FFBD00"/>
</g>
<g filter="url(#filter1_d_140_447)">
<rect x="302.461" y="149.923" width="22.1538" height="22.1538" rx="11.0769" fill="#FF6054"/>
</g>
<g filter="url(#filter2_dd_140_447)">
<rect x="8" y="101" width="29.1538" height="37.7692" rx="7.38462" fill="white"/>
<path d="M24.1853 113.643V124.385H22.5594V115.269H22.4965L19.9266 116.947V115.395L22.6066 113.643H24.1853Z" fill="black"/>
<path d="M22.9094 144.885C22.7279 145.074 22.4258 145.074 22.2443 144.885L15.3348 137.705C15.0527 137.411 15.2605 136.923 15.6674 136.923L29.4863 136.923C29.8932 136.923 30.101 137.411 29.8189 137.705L22.9094 144.885Z" fill="white"/>
</g>
<g filter="url(#filter3_dd_140_447)">
<rect x="295.077" y="101" width="36.1538" height="37.7692" rx="7.38462" fill="white"/>
<path d="M311.262 113.643V124.385H309.636V115.269H309.573L307.003 116.947V115.395L309.684 113.643H311.262ZM318.243 113.643V124.385H316.617V115.269H316.554L313.984 116.947V115.395L316.664 113.643H318.243Z" fill="black"/>
<path d="M313.487 144.885C313.305 145.074 313.003 145.074 312.821 144.885L305.912 137.705C305.63 137.411 305.838 136.923 306.245 136.923L320.063 136.923C320.47 136.923 320.678 137.411 320.396 137.705L313.487 144.885Z" fill="white"/>
</g>
</g>
<defs>
<filter id="filter0_d_140_447" x="4.30777" y="140.692" width="40.6153" height="40.6153" filterUnits="userSpaceOnUse" color-interpolation-filters="sRGB">
<feFlood flood-opacity="0" result="BackgroundImageFix"/>
<feColorMatrix in="SourceAlpha" type="matrix" values="0 0 0 0 0 0 0 0 0 0 0 0 0 0 0 0 0 0 127 0" result="hardAlpha"/>
<feOffset dx="1.84615"/>
<feGaussianBlur stdDeviation="4.61538"/>
<feComposite in2="hardAlpha" operator="out"/>
<feColorMatrix type="matrix" values="0 0 0 0 0 0 0 0 0 0 0 0 0 0 0 0 0 0 0.24 0"/>
<feBlend mode="normal" in2="BackgroundImageFix" result="effect1_dropShadow_140_447"/>
<feBlend mode="normal" in="SourceGraphic" in2="effect1_dropShadow_140_447" result="shape"/>
</filter>
<filter id="filter1_d_140_447" x="291.385" y="140.692" width="40.6153" height="40.6153" filterUnits="userSpaceOnUse" color-interpolation-filters="sRGB">
<feFlood flood-opacity="0" result="BackgroundImageFix"/>
<feColorMatrix in="SourceAlpha" type="matrix" values="0 0 0 0 0 0 0 0 0 0 0 0 0 0 0 0 0 0 127 0" result="hardAlpha"/>
<feOffset dx="-1.84615"/>
<feGaussianBlur stdDeviation="4.61538"/>
<feComposite in2="hardAlpha" operator="out"/>
<feColorMatrix type="matrix" values="0 0 0 0 0 0 0 0 0 0 0 0 0 0 0 0 0 0 0.24 0"/>
<feBlend mode="normal" in2="BackgroundImageFix" result="effect1_dropShadow_140_447"/>
<feBlend mode="normal" in="SourceGraphic" in2="effect1_dropShadow_140_447" result="shape"/>
</filter>
<filter id="filter2_dd_140_447" x="-24.3077" y="82.5385" width="93.7692" height="108.846" filterUnits="userSpaceOnUse" color-interpolation-filters="sRGB">
<feFlood flood-opacity="0" result="BackgroundImageFix"/>
<feColorMatrix in="SourceAlpha" type="matrix" values="0 0 0 0 0 0 0 0 0 0 0 0 0 0 0 0 0 0 127 0" result="hardAlpha"/>
<feOffset dy="13.8462"/>
<feGaussianBlur stdDeviation="16.1538"/>
<feComposite in2="hardAlpha" operator="out"/>
<feColorMatrix type="matrix" values="0 0 0 0 0.403922 0 0 0 0 0.431373 0 0 0 0 0.462745 0 0 0 0.08 0"/>
<feBlend mode="normal" in2="BackgroundImageFix" result="effect1_dropShadow_140_447"/>
<feColorMatrix in="SourceAlpha" type="matrix" values="0 0 0 0 0 0 0 0 0 0 0 0 0 0 0 0 0 0 127 0" result="hardAlpha"/>
<feOffset dy="4.61538"/>
<feGaussianBlur stdDeviation="6.92308"/>
<feComposite in2="hardAlpha" operator="out"/>
<feColorMatrix type="matrix" values="0 0 0 0 0 0 0 0 0 0 0 0 0 0 0 0 0 0 0.12 0"/>
<feBlend mode="normal" in2="effect1_dropShadow_140_447" result="effect2_dropShadow_140_447"/>
<feBlend mode="normal" in="SourceGraphic" in2="effect2_dropShadow_140_447" result="shape"/>
</filter>
<filter id="filter3_dd_140_447" x="262.769" y="82.5385" width="100.769" height="108.846" filterUnits="userSpaceOnUse" color-interpolation-filters="sRGB">
<feFlood flood-opacity="0" result="BackgroundImageFix"/>
<feColorMatrix in="SourceAlpha" type="matrix" values="0 0 0 0 0 0 0 0 0 0 0 0 0 0 0 0 0 0 127 0" result="hardAlpha"/>
<feOffset dy="13.8462"/>
<feGaussianBlur stdDeviation="16.1538"/>
<feComposite in2="hardAlpha" operator="out"/>
<feColorMatrix type="matrix" values="0 0 0 0 0.403922 0 0 0 0 0.431373 0 0 0 0 0.462745 0 0 0 0.08 0"/>
<feBlend mode="normal" in2="BackgroundImageFix" result="effect1_dropShadow_140_447"/>
<feColorMatrix in="SourceAlpha" type="matrix" values="0 0 0 0 0 0 0 0 0 0 0 0 0 0 0 0 0 0 127 0" result="hardAlpha"/>
<feOffset dy="4.61538"/>
<feGaussianBlur stdDeviation="6.92308"/>
<feComposite in2="hardAlpha" operator="out"/>
<feColorMatrix type="matrix" values="0 0 0 0 0 0 0 0 0 0 0 0 0 0 0 0 0 0 0.12 0"/>
<feBlend mode="normal" in2="effect1_dropShadow_140_447" result="effect2_dropShadow_140_447"/>
<feBlend mode="normal" in="SourceGraphic" in2="effect2_dropShadow_140_447" result="shape"/>
</filter>
<linearGradient id="paint0_linear_140_447" x1="19.0769" y1="161" x2="313.538" y2="161" gradientUnits="userSpaceOnUse">
<stop stop-color="#FFBD00"/>
<stop offset="1" stop-color="#FF6054"/>
</linearGradient>
<clipPath id="clip0_140_447">
<rect width="340" height="325" fill="white"/>
</clipPath>
</defs>
</svg>
