<svg width="340" height="325" viewBox="0 0 340 325" fill="none" xmlns="http://www.w3.org/2000/svg">
<rect x="77" y="13" width="187" height="299.41" rx="50.427" fill="#FFB648"/>
<path d="M137.029 184.288C122.629 184.288 112.427 176.569 112.427 165.555V165.465C112.427 157.249 118.341 150.748 126.827 148.898V148.672C119.56 146.595 114.82 141.179 114.82 134.272V134.182C114.82 124.251 124.074 116.983 137.029 116.983C149.985 116.983 159.284 124.251 159.284 134.182V134.272C159.284 141.179 154.544 146.595 147.276 148.672V148.898C155.763 150.748 161.631 157.249 161.631 165.465V165.555C161.631 176.569 151.475 184.288 137.029 184.288ZM137.029 145.286C144.297 145.286 149.263 141.088 149.263 135.175V135.084C149.263 129.126 144.252 124.973 137.029 124.973C129.807 124.973 124.841 129.126 124.841 135.084V135.175C124.841 141.088 129.807 145.286 137.029 145.286ZM137.029 176.208C145.335 176.208 151.249 171.468 151.249 164.878V164.787C151.249 158.152 145.38 153.367 137.029 153.367C128.678 153.367 122.81 158.152 122.81 164.787V164.878C122.81 171.468 128.723 176.208 137.029 176.208ZM190.413 184.288C177.097 184.288 164.818 175.034 164.818 151.606V151.516C164.818 129.803 174.524 116.983 190.82 116.983C202.421 116.983 211.133 123.619 213.21 133.324L213.345 133.866H203.188L203.053 133.414C201.202 128.539 196.959 125.469 190.729 125.469C179.534 125.469 174.975 136.258 174.569 149.169C174.524 149.755 174.524 150.342 174.524 150.929H174.749C177.322 145.061 183.913 140.456 192.761 140.456C205.22 140.456 214.203 149.53 214.203 161.853V161.944C214.203 174.944 204.136 184.288 190.413 184.288ZM176.51 161.989C176.51 169.708 182.559 175.802 190.278 175.802C197.997 175.802 204.136 169.798 204.136 162.214V162.124C204.136 154.269 198.358 148.672 190.413 148.672C182.514 148.672 176.51 154.224 176.51 161.944V161.989ZM223.458 136.807C218.801 136.807 215.848 133.903 215.848 129.029V129.005C215.848 124.18 218.873 121.251 223.434 121.251C228.02 121.251 231.045 124.156 231.045 129.005V129.029C231.045 133.903 228.068 136.807 223.458 136.807ZM223.458 133.615C225.691 133.615 227.107 131.934 227.107 129.029V129.005C227.107 126.1 225.667 124.42 223.434 124.42C221.25 124.42 219.785 126.124 219.785 129.005V129.029C219.785 131.958 221.202 133.615 223.458 133.615Z" fill="#C37A0C"/>
<path d="M114.266 225.451C109.998 225.451 107.331 222.517 107.331 217.808V217.788C107.331 213.089 110.009 210.155 114.266 210.155C118.534 210.155 121.202 213.099 121.202 217.788V217.808C121.202 222.507 118.545 225.451 114.266 225.451ZM114.266 223.42C117.108 223.42 118.852 221.224 118.852 217.808V217.788C118.852 214.351 117.077 212.186 114.266 212.186C111.466 212.186 109.67 214.34 109.67 217.788V217.808C109.67 221.255 111.455 223.42 114.266 223.42ZM126.593 225.421C124.223 225.421 122.869 223.892 122.869 221.409V214.412H125.085V220.978C125.085 222.609 125.844 223.512 127.383 223.512C128.943 223.512 129.948 222.394 129.948 220.711V214.412H132.174V225.205H129.948V223.584H129.897C129.332 224.672 128.235 225.421 126.593 225.421ZM137.945 225.421C135.811 225.421 134.786 224.518 134.786 222.363V216.177H133.236V214.412H134.786V211.601H137.053V214.412H139.074V216.177H137.053V222.23C137.053 223.328 137.545 223.656 138.479 223.656C138.715 223.656 138.91 223.635 139.074 223.615V225.328C138.817 225.369 138.397 225.421 137.945 225.421ZM144.743 225.421C142.044 225.421 140.464 224.087 140.239 222.117L140.228 222.025H142.424L142.444 222.127C142.65 223.122 143.388 223.707 144.753 223.707C146.086 223.707 146.887 223.153 146.887 222.281V222.271C146.887 221.573 146.497 221.173 145.338 220.896L143.573 220.496C141.521 220.024 140.505 219.039 140.505 217.469V217.459C140.505 215.53 142.188 214.207 144.671 214.207C147.225 214.207 148.764 215.633 148.877 217.469L148.887 217.593H146.805L146.794 217.521C146.661 216.577 145.922 215.92 144.671 215.92C143.481 215.92 142.732 216.485 142.732 217.346V217.357C142.732 218.024 143.173 218.475 144.332 218.752L146.086 219.152C148.292 219.665 149.134 220.537 149.134 222.086V222.096C149.134 224.066 147.287 225.421 144.743 225.421ZM151.847 212.75C151.129 212.75 150.555 212.176 150.555 211.478C150.555 210.77 151.129 210.196 151.847 210.196C152.576 210.196 153.14 210.77 153.14 211.478C153.14 212.176 152.576 212.75 151.847 212.75ZM150.739 225.205V214.412H152.955V225.205H150.739ZM159.065 225.421C156.316 225.421 154.551 223.246 154.551 219.809V219.798C154.551 216.361 156.336 214.207 159.045 214.207C160.573 214.207 161.804 214.976 162.451 216.249H162.492V210.401H164.718V225.205H162.492V223.379H162.451C161.804 224.641 160.614 225.421 159.065 225.421ZM159.65 223.512C161.322 223.512 162.502 222.055 162.502 219.809V219.798C162.502 217.562 161.312 216.105 159.65 216.105C157.906 216.105 156.818 217.521 156.818 219.798V219.809C156.818 222.107 157.895 223.512 159.65 223.512ZM171.392 225.421C168.222 225.421 166.303 223.256 166.303 219.85V219.839C166.303 216.464 168.253 214.207 171.279 214.207C174.306 214.207 176.163 216.382 176.163 219.624V220.373H168.519C168.56 222.415 169.679 223.605 171.443 223.605C172.756 223.605 173.628 222.927 173.905 222.117L173.936 222.035H176.039L176.019 222.148C175.67 223.861 174.008 225.421 171.392 225.421ZM171.289 216.023C169.853 216.023 168.745 216.998 168.55 218.803H173.967C173.782 216.936 172.736 216.023 171.289 216.023ZM185.673 225.205V212.381H181.139V210.401H192.496V212.381H187.971V225.205H185.673ZM195.856 225.421C192.686 225.421 190.767 223.256 190.767 219.85V219.839C190.767 216.464 192.717 214.207 195.743 214.207C198.77 214.207 200.627 216.382 200.627 219.624V220.373H192.983C193.024 222.415 194.143 223.605 195.907 223.605C197.221 223.605 198.093 222.927 198.37 222.117L198.4 222.035H200.504L200.483 222.148C200.134 223.861 198.472 225.421 195.856 225.421ZM195.753 216.023C194.317 216.023 193.209 216.998 193.014 218.803H198.431C198.246 216.936 197.2 216.023 195.753 216.023ZM202.14 225.205V214.412H204.356V216.084H204.407C204.869 214.956 205.967 214.207 207.383 214.207C208.87 214.207 209.958 214.976 210.389 216.331H210.44C210.994 215.018 212.266 214.207 213.805 214.207C215.939 214.207 217.334 215.623 217.334 217.788V225.205H215.108V218.321C215.108 216.915 214.359 216.105 213.046 216.105C211.733 216.105 210.82 217.09 210.82 218.454V225.205H208.645V218.157C208.645 216.905 207.855 216.105 206.603 216.105C205.29 216.105 204.356 217.141 204.356 218.536V225.205H202.14ZM219.268 228.796V214.412H221.484V216.269H221.536C222.182 214.987 223.372 214.207 224.911 214.207C227.661 214.207 229.425 216.361 229.425 219.809V219.819C229.425 223.256 227.65 225.421 224.942 225.421C223.413 225.421 222.172 224.641 221.536 223.389H221.484V228.796H219.268ZM224.337 223.512C226.081 223.512 227.168 222.096 227.168 219.819V219.809C227.168 217.511 226.07 216.105 224.337 216.105C222.654 216.105 221.474 217.562 221.474 219.809V219.819C221.474 222.055 222.664 223.512 224.337 223.512ZM231.688 225.359C230.928 225.359 230.333 224.764 230.333 224.015C230.333 223.256 230.928 222.671 231.688 222.671C232.437 222.671 233.032 223.256 233.032 224.015C233.032 224.764 232.437 225.359 231.688 225.359Z" fill="white" fill-opacity="0.8"/>
</svg>
