<svg width="421" height="155" viewBox="0 0 421 155" fill="none" xmlns="http://www.w3.org/2000/svg">
<rect x="98" y="129" width="210" height="26" rx="13" fill="#0E0E0E" fill-opacity="0.1"/>
<path d="M110.879 146V138H113.73C114.35 138 114.865 138.107 115.273 138.32C115.685 138.534 115.992 138.829 116.195 139.207C116.398 139.582 116.5 140.016 116.5 140.508C116.5 140.997 116.397 141.428 116.191 141.801C115.988 142.171 115.681 142.458 115.27 142.664C114.861 142.87 114.346 142.973 113.727 142.973H111.566V141.934H113.617C114.008 141.934 114.326 141.878 114.57 141.766C114.818 141.654 114.999 141.491 115.113 141.277C115.228 141.064 115.285 140.807 115.285 140.508C115.285 140.206 115.227 139.944 115.109 139.723C114.995 139.501 114.814 139.332 114.566 139.215C114.322 139.095 114 139.035 113.602 139.035H112.086V146H110.879ZM114.828 142.391L116.805 146H115.43L113.492 142.391H114.828ZM120.386 146.121C119.795 146.121 119.285 145.995 118.858 145.742C118.434 145.487 118.106 145.129 117.874 144.668C117.645 144.204 117.53 143.661 117.53 143.039C117.53 142.424 117.645 141.883 117.874 141.414C118.106 140.945 118.429 140.579 118.843 140.316C119.259 140.053 119.746 139.922 120.304 139.922C120.642 139.922 120.97 139.978 121.288 140.09C121.606 140.202 121.891 140.378 122.144 140.617C122.396 140.857 122.595 141.168 122.741 141.551C122.887 141.931 122.96 142.393 122.96 142.937V143.352H118.19V142.477H121.815C121.815 142.169 121.753 141.897 121.628 141.66C121.503 141.421 121.327 141.232 121.101 141.094C120.877 140.956 120.614 140.887 120.312 140.887C119.983 140.887 119.697 140.967 119.452 141.129C119.21 141.288 119.022 141.496 118.89 141.754C118.759 142.009 118.694 142.286 118.694 142.586V143.27C118.694 143.671 118.765 144.012 118.905 144.293C119.049 144.574 119.248 144.789 119.503 144.937C119.758 145.083 120.056 145.156 120.397 145.156C120.619 145.156 120.821 145.125 121.003 145.062C121.185 144.997 121.343 144.901 121.476 144.773C121.608 144.646 121.71 144.488 121.78 144.301L122.886 144.5C122.797 144.826 122.638 145.111 122.409 145.355C122.183 145.598 121.897 145.786 121.554 145.922C121.213 146.055 120.823 146.121 120.386 146.121ZM126.783 146.121C126.202 146.121 125.702 145.99 125.283 145.727C124.867 145.461 124.546 145.095 124.322 144.629C124.098 144.163 123.986 143.629 123.986 143.027C123.986 142.418 124.101 141.88 124.33 141.414C124.559 140.945 124.882 140.579 125.299 140.316C125.715 140.053 126.206 139.922 126.771 139.922C127.227 139.922 127.633 140.007 127.99 140.176C128.347 140.342 128.635 140.577 128.854 140.879C129.075 141.181 129.206 141.534 129.248 141.937H128.111C128.049 141.656 127.906 141.414 127.682 141.211C127.46 141.008 127.163 140.906 126.791 140.906C126.465 140.906 126.18 140.992 125.936 141.164C125.693 141.333 125.505 141.576 125.369 141.891C125.234 142.203 125.166 142.573 125.166 143C125.166 143.437 125.232 143.815 125.365 144.133C125.498 144.451 125.686 144.697 125.928 144.871C126.173 145.046 126.46 145.133 126.791 145.133C127.012 145.133 127.213 145.092 127.393 145.012C127.575 144.928 127.727 144.81 127.85 144.656C127.975 144.503 128.062 144.318 128.111 144.102H129.248C129.206 144.49 129.08 144.836 128.869 145.141C128.658 145.445 128.376 145.685 128.021 145.859C127.67 146.034 127.257 146.121 126.783 146.121ZM133.024 146.121C132.462 146.121 131.971 145.992 131.552 145.734C131.132 145.477 130.807 145.116 130.575 144.652C130.343 144.189 130.228 143.647 130.228 143.027C130.228 142.405 130.343 141.861 130.575 141.395C130.807 140.928 131.132 140.566 131.552 140.309C131.971 140.051 132.462 139.922 133.024 139.922C133.587 139.922 134.078 140.051 134.497 140.309C134.916 140.566 135.242 140.928 135.474 141.395C135.705 141.861 135.821 142.405 135.821 143.027C135.821 143.647 135.705 144.189 135.474 144.652C135.242 145.116 134.916 145.477 134.497 145.734C134.078 145.992 133.587 146.121 133.024 146.121ZM133.028 145.141C133.393 145.141 133.695 145.044 133.935 144.852C134.174 144.659 134.351 144.402 134.466 144.082C134.583 143.762 134.642 143.409 134.642 143.023C134.642 142.641 134.583 142.289 134.466 141.969C134.351 141.646 134.174 141.387 133.935 141.191C133.695 140.996 133.393 140.898 133.028 140.898C132.661 140.898 132.356 140.996 132.114 141.191C131.875 141.387 131.696 141.646 131.579 141.969C131.465 142.289 131.407 142.641 131.407 143.023C131.407 143.409 131.465 143.762 131.579 144.082C131.696 144.402 131.875 144.659 132.114 144.852C132.356 145.044 132.661 145.141 133.028 145.141ZM137.125 146V140H138.246V140.977H138.32C138.445 140.646 138.65 140.388 138.934 140.203C139.217 140.016 139.557 139.922 139.953 139.922C140.354 139.922 140.69 140.016 140.961 140.203C141.234 140.391 141.436 140.648 141.566 140.977H141.629C141.772 140.656 142 140.401 142.312 140.211C142.625 140.018 142.997 139.922 143.43 139.922C143.974 139.922 144.418 140.092 144.762 140.434C145.108 140.775 145.281 141.289 145.281 141.977V146H144.113V142.086C144.113 141.68 144.003 141.385 143.781 141.203C143.56 141.021 143.296 140.93 142.988 140.93C142.608 140.93 142.312 141.047 142.102 141.281C141.891 141.513 141.785 141.811 141.785 142.176V146H140.621V142.012C140.621 141.686 140.52 141.424 140.316 141.227C140.113 141.029 139.849 140.93 139.523 140.93C139.302 140.93 139.098 140.988 138.91 141.105C138.725 141.22 138.576 141.38 138.461 141.586C138.349 141.792 138.293 142.03 138.293 142.301V146H137.125ZM146.847 146V140H147.968V140.977H148.042C148.167 140.646 148.371 140.388 148.655 140.203C148.939 140.016 149.279 139.922 149.675 139.922C150.076 139.922 150.412 140.016 150.683 140.203C150.956 140.391 151.158 140.648 151.288 140.977H151.351C151.494 140.656 151.722 140.401 152.034 140.211C152.347 140.018 152.719 139.922 153.151 139.922C153.696 139.922 154.14 140.092 154.483 140.434C154.83 140.775 155.003 141.289 155.003 141.977V146H153.835V142.086C153.835 141.68 153.724 141.385 153.503 141.203C153.282 141.021 153.017 140.93 152.71 140.93C152.33 140.93 152.034 141.047 151.823 141.281C151.612 141.513 151.507 141.811 151.507 142.176V146H150.343V142.012C150.343 141.686 150.241 141.424 150.038 141.227C149.835 141.029 149.571 140.93 149.245 140.93C149.024 140.93 148.819 140.988 148.632 141.105C148.447 141.22 148.297 141.38 148.183 141.586C148.071 141.792 148.015 142.03 148.015 142.301V146H146.847ZM159.154 146.121C158.563 146.121 158.054 145.995 157.627 145.742C157.202 145.487 156.874 145.129 156.643 144.668C156.413 144.204 156.299 143.661 156.299 143.039C156.299 142.424 156.413 141.883 156.643 141.414C156.874 140.945 157.197 140.579 157.611 140.316C158.028 140.053 158.515 139.922 159.072 139.922C159.411 139.922 159.739 139.978 160.057 140.09C160.374 140.202 160.66 140.378 160.912 140.617C161.165 140.857 161.364 141.168 161.51 141.551C161.656 141.931 161.729 142.393 161.729 142.937V143.352H156.959V142.477H160.584C160.584 142.169 160.521 141.897 160.396 141.66C160.271 141.421 160.096 141.232 159.869 141.094C159.645 140.956 159.382 140.887 159.08 140.887C158.752 140.887 158.465 140.967 158.221 141.129C157.979 141.288 157.791 141.496 157.658 141.754C157.528 142.009 157.463 142.286 157.463 142.586V143.27C157.463 143.671 157.533 144.012 157.674 144.293C157.817 144.574 158.016 144.789 158.271 144.937C158.527 145.083 158.825 145.156 159.166 145.156C159.387 145.156 159.589 145.125 159.771 145.062C159.954 144.997 160.111 144.901 160.244 144.773C160.377 144.646 160.479 144.488 160.549 144.301L161.654 144.5C161.566 144.826 161.407 145.111 161.178 145.355C160.951 145.598 160.666 145.786 160.322 145.922C159.981 146.055 159.592 146.121 159.154 146.121ZM164.192 142.437V146H163.024V140H164.146V140.977H164.22C164.358 140.659 164.574 140.404 164.868 140.211C165.165 140.018 165.539 139.922 165.989 139.922C166.398 139.922 166.756 140.008 167.063 140.18C167.371 140.349 167.609 140.602 167.778 140.937C167.948 141.273 168.032 141.689 168.032 142.184V146H166.864V142.324C166.864 141.889 166.751 141.549 166.524 141.305C166.298 141.057 165.987 140.934 165.591 140.934C165.32 140.934 165.079 140.992 164.868 141.109C164.66 141.227 164.494 141.398 164.372 141.625C164.252 141.849 164.192 142.12 164.192 142.437ZM171.845 146.117C171.36 146.117 170.928 145.993 170.548 145.746C170.17 145.496 169.873 145.141 169.657 144.68C169.444 144.216 169.337 143.66 169.337 143.012C169.337 142.363 169.445 141.809 169.661 141.348C169.88 140.887 170.179 140.534 170.56 140.289C170.94 140.044 171.371 139.922 171.853 139.922C172.225 139.922 172.524 139.984 172.751 140.109C172.98 140.232 173.157 140.375 173.282 140.539C173.41 140.703 173.509 140.848 173.579 140.973H173.649V138H174.817V146H173.677V145.066H173.579C173.509 145.194 173.407 145.34 173.274 145.504C173.144 145.668 172.965 145.811 172.735 145.934C172.506 146.056 172.209 146.117 171.845 146.117ZM172.103 145.121C172.438 145.121 172.722 145.033 172.954 144.855C173.188 144.676 173.366 144.427 173.485 144.109C173.608 143.792 173.669 143.422 173.669 143C173.669 142.583 173.609 142.219 173.489 141.906C173.369 141.594 173.194 141.35 172.962 141.176C172.73 141.001 172.444 140.914 172.103 140.914C171.751 140.914 171.458 141.005 171.224 141.188C170.989 141.37 170.812 141.618 170.692 141.934C170.575 142.249 170.517 142.604 170.517 143C170.517 143.401 170.576 143.762 170.696 144.082C170.816 144.402 170.993 144.656 171.228 144.844C171.465 145.029 171.756 145.121 172.103 145.121ZM179.07 146.121C178.479 146.121 177.97 145.995 177.543 145.742C177.118 145.487 176.79 145.129 176.559 144.668C176.329 144.204 176.215 143.661 176.215 143.039C176.215 142.424 176.329 141.883 176.559 141.414C176.79 140.945 177.113 140.579 177.527 140.316C177.944 140.053 178.431 139.922 178.988 139.922C179.327 139.922 179.655 139.978 179.973 140.09C180.29 140.202 180.576 140.378 180.828 140.617C181.081 140.857 181.28 141.168 181.426 141.551C181.572 141.931 181.645 142.393 181.645 142.937V143.352H176.875V142.477H180.5C180.5 142.169 180.438 141.897 180.313 141.66C180.188 141.421 180.012 141.232 179.785 141.094C179.561 140.956 179.298 140.887 178.996 140.887C178.668 140.887 178.382 140.967 178.137 141.129C177.895 141.288 177.707 141.496 177.574 141.754C177.444 142.009 177.379 142.286 177.379 142.586V143.27C177.379 143.671 177.449 144.012 177.59 144.293C177.733 144.574 177.932 144.789 178.188 144.937C178.443 145.083 178.741 145.156 179.082 145.156C179.303 145.156 179.505 145.125 179.688 145.062C179.87 144.997 180.027 144.901 180.16 144.773C180.293 144.646 180.395 144.488 180.465 144.301L181.57 144.5C181.482 144.826 181.323 145.111 181.094 145.355C180.867 145.598 180.582 145.786 180.238 145.922C179.897 146.055 179.508 146.121 179.07 146.121ZM185.187 146.117C184.702 146.117 184.27 145.993 183.89 145.746C183.512 145.496 183.215 145.141 182.999 144.68C182.785 144.216 182.679 143.66 182.679 143.012C182.679 142.363 182.787 141.809 183.003 141.348C183.222 140.887 183.521 140.534 183.901 140.289C184.282 140.044 184.713 139.922 185.194 139.922C185.567 139.922 185.866 139.984 186.093 140.109C186.322 140.232 186.499 140.375 186.624 140.539C186.752 140.703 186.851 140.848 186.921 140.973H186.991V138H188.159V146H187.019V145.066H186.921C186.851 145.194 186.749 145.34 186.616 145.504C186.486 145.668 186.306 145.811 186.077 145.934C185.848 146.056 185.551 146.117 185.187 146.117ZM185.444 145.121C185.78 145.121 186.064 145.033 186.296 144.855C186.53 144.676 186.707 144.427 186.827 144.109C186.95 143.792 187.011 143.422 187.011 143C187.011 142.583 186.951 142.219 186.831 141.906C186.711 141.594 186.535 141.35 186.304 141.176C186.072 141.001 185.785 140.914 185.444 140.914C185.093 140.914 184.8 141.005 184.565 141.188C184.331 141.37 184.154 141.618 184.034 141.934C183.917 142.249 183.858 142.604 183.858 143C183.858 143.401 183.918 143.762 184.038 144.082C184.158 144.402 184.335 144.656 184.569 144.844C184.806 145.029 185.098 145.121 185.444 145.121ZM195.538 140V140.937H192.261V140H195.538ZM193.14 138.562H194.308V144.238C194.308 144.465 194.341 144.635 194.409 144.75C194.477 144.862 194.564 144.939 194.671 144.98C194.78 145.02 194.899 145.039 195.026 145.039C195.12 145.039 195.202 145.033 195.272 145.02C195.343 145.007 195.397 144.996 195.437 144.988L195.647 145.953C195.58 145.979 195.483 146.005 195.358 146.031C195.233 146.06 195.077 146.076 194.89 146.078C194.582 146.083 194.296 146.029 194.03 145.914C193.765 145.799 193.55 145.622 193.386 145.383C193.222 145.143 193.14 144.842 193.14 144.48V138.562ZM198.576 146.133C198.196 146.133 197.852 146.063 197.545 145.922C197.238 145.779 196.994 145.572 196.814 145.301C196.637 145.03 196.549 144.698 196.549 144.305C196.549 143.966 196.614 143.687 196.744 143.469C196.874 143.25 197.05 143.077 197.271 142.949C197.493 142.822 197.74 142.725 198.014 142.66C198.287 142.595 198.566 142.546 198.85 142.512C199.209 142.47 199.501 142.436 199.725 142.41C199.949 142.382 200.111 142.336 200.213 142.273C200.314 142.211 200.365 142.109 200.365 141.969V141.941C200.365 141.6 200.269 141.336 200.076 141.148C199.886 140.961 199.602 140.867 199.225 140.867C198.831 140.867 198.521 140.954 198.295 141.129C198.071 141.301 197.916 141.492 197.83 141.703L196.732 141.453C196.863 141.089 197.053 140.794 197.303 140.57C197.555 140.344 197.846 140.18 198.174 140.078C198.502 139.974 198.847 139.922 199.209 139.922C199.449 139.922 199.702 139.951 199.971 140.008C200.242 140.062 200.494 140.164 200.729 140.312C200.965 140.461 201.16 140.673 201.311 140.949C201.462 141.223 201.537 141.578 201.537 142.016V146H200.396V145.18H200.35C200.274 145.331 200.161 145.479 200.01 145.625C199.859 145.771 199.665 145.892 199.428 145.988C199.191 146.085 198.907 146.133 198.576 146.133ZM198.83 145.195C199.153 145.195 199.429 145.132 199.658 145.004C199.89 144.876 200.066 144.71 200.186 144.504C200.308 144.296 200.369 144.073 200.369 143.836V143.062C200.327 143.104 200.247 143.143 200.127 143.18C200.01 143.214 199.876 143.243 199.725 143.27C199.574 143.293 199.426 143.315 199.283 143.336C199.14 143.354 199.02 143.37 198.924 143.383C198.697 143.411 198.49 143.46 198.303 143.527C198.118 143.595 197.969 143.693 197.857 143.82C197.748 143.945 197.693 144.112 197.693 144.32C197.693 144.609 197.8 144.828 198.014 144.977C198.227 145.122 198.499 145.195 198.83 145.195ZM204.261 142.437V146H203.093V140H204.214V140.977H204.288C204.426 140.659 204.642 140.404 204.937 140.211C205.233 140.018 205.607 139.922 206.058 139.922C206.466 139.922 206.825 140.008 207.132 140.18C207.439 140.349 207.677 140.602 207.847 140.937C208.016 141.273 208.101 141.689 208.101 142.184V146H206.933V142.324C206.933 141.889 206.819 141.549 206.593 141.305C206.366 141.057 206.055 140.934 205.659 140.934C205.388 140.934 205.147 140.992 204.937 141.109C204.728 141.227 204.563 141.398 204.44 141.625C204.321 141.849 204.261 142.12 204.261 142.437ZM210.835 142.437V146H209.667V140H210.788V140.977H210.862C211 140.659 211.216 140.404 211.511 140.211C211.808 140.018 212.181 139.922 212.632 139.922C213.041 139.922 213.399 140.008 213.706 140.18C214.013 140.349 214.252 140.602 214.421 140.937C214.59 141.273 214.675 141.689 214.675 142.184V146H213.507V142.324C213.507 141.889 213.394 141.549 213.167 141.305C212.94 141.057 212.629 140.934 212.233 140.934C211.963 140.934 211.722 140.992 211.511 141.109C211.302 141.227 211.137 141.398 211.015 141.625C210.895 141.849 210.835 142.12 210.835 142.437ZM216.241 146V140H217.409V146H216.241ZM216.831 139.074C216.628 139.074 216.453 139.007 216.308 138.871C216.164 138.733 216.093 138.569 216.093 138.379C216.093 138.186 216.164 138.022 216.308 137.887C216.453 137.749 216.628 137.68 216.831 137.68C217.034 137.68 217.207 137.749 217.351 137.887C217.496 138.022 217.569 138.186 217.569 138.379C217.569 138.569 217.496 138.733 217.351 138.871C217.207 139.007 217.034 139.074 216.831 139.074ZM220.148 142.437V146H218.98V140H220.102V140.977H220.176C220.314 140.659 220.53 140.404 220.824 140.211C221.121 140.018 221.495 139.922 221.945 139.922C222.354 139.922 222.712 140.008 223.02 140.18C223.327 140.349 223.565 140.602 223.734 140.937C223.904 141.273 223.988 141.689 223.988 142.184V146H222.82V142.324C222.82 141.889 222.707 141.549 222.48 141.305C222.254 141.057 221.943 140.934 221.547 140.934C221.276 140.934 221.035 140.992 220.824 141.109C220.616 141.227 220.451 141.398 220.328 141.625C220.208 141.849 220.148 142.12 220.148 142.437ZM228.07 148.375C227.594 148.375 227.184 148.313 226.84 148.188C226.499 148.063 226.22 147.897 226.004 147.691C225.788 147.486 225.626 147.26 225.52 147.016L226.523 146.602C226.594 146.716 226.688 146.837 226.805 146.965C226.924 147.095 227.086 147.206 227.289 147.297C227.495 147.388 227.759 147.434 228.082 147.434C228.525 147.434 228.891 147.326 229.18 147.109C229.469 146.896 229.613 146.555 229.613 146.086V144.906H229.539C229.469 145.034 229.367 145.176 229.234 145.332C229.104 145.488 228.924 145.624 228.695 145.738C228.466 145.853 228.168 145.91 227.801 145.91C227.327 145.91 226.9 145.799 226.52 145.578C226.142 145.354 225.842 145.025 225.621 144.59C225.402 144.152 225.293 143.615 225.293 142.977C225.293 142.339 225.401 141.792 225.617 141.336C225.836 140.88 226.135 140.531 226.516 140.289C226.896 140.044 227.327 139.922 227.809 139.922C228.181 139.922 228.482 139.984 228.711 140.109C228.94 140.232 229.118 140.375 229.246 140.539C229.376 140.703 229.477 140.848 229.547 140.973H229.633V140H230.777V146.133C230.777 146.648 230.658 147.072 230.418 147.402C230.178 147.733 229.854 147.978 229.445 148.137C229.039 148.296 228.581 148.375 228.07 148.375ZM228.059 144.941C228.395 144.941 228.678 144.863 228.91 144.707C229.145 144.548 229.322 144.322 229.441 144.027C229.564 143.73 229.625 143.375 229.625 142.961C229.625 142.557 229.565 142.202 229.445 141.895C229.326 141.587 229.15 141.348 228.918 141.176C228.686 141.001 228.4 140.914 228.059 140.914C227.707 140.914 227.414 141.005 227.18 141.188C226.945 141.367 226.768 141.612 226.648 141.922C226.531 142.232 226.473 142.578 226.473 142.961C226.473 143.354 226.533 143.699 226.652 143.996C226.772 144.293 226.949 144.525 227.184 144.691C227.421 144.858 227.712 144.941 228.059 144.941ZM238.056 140V140.937H234.778V140H238.056ZM235.657 138.562H236.825V144.238C236.825 144.465 236.859 144.635 236.927 144.75C236.994 144.862 237.082 144.939 237.188 144.98C237.298 145.02 237.416 145.039 237.544 145.039C237.638 145.039 237.72 145.033 237.79 145.02C237.86 145.007 237.915 144.996 237.954 144.988L238.165 145.953C238.097 145.979 238.001 146.005 237.876 146.031C237.751 146.06 237.595 146.076 237.407 146.078C237.1 146.083 236.813 146.029 236.548 145.914C236.282 145.799 236.067 145.622 235.903 145.383C235.739 145.143 235.657 144.842 235.657 144.48V138.562ZM239.348 146V140H240.516V146H239.348ZM239.938 139.074C239.734 139.074 239.56 139.007 239.414 138.871C239.271 138.733 239.199 138.569 239.199 138.379C239.199 138.186 239.271 138.022 239.414 137.887C239.56 137.749 239.734 137.68 239.938 137.68C240.141 137.68 240.314 137.749 240.457 137.887C240.603 138.022 240.676 138.186 240.676 138.379C240.676 138.569 240.603 138.733 240.457 138.871C240.314 139.007 240.141 139.074 239.938 139.074ZM242.087 146V140H243.208V140.977H243.282C243.407 140.646 243.612 140.388 243.896 140.203C244.179 140.016 244.519 139.922 244.915 139.922C245.316 139.922 245.652 140.016 245.923 140.203C246.196 140.391 246.398 140.648 246.528 140.977H246.591C246.734 140.656 246.962 140.401 247.274 140.211C247.587 140.018 247.959 139.922 248.392 139.922C248.936 139.922 249.38 140.092 249.724 140.434C250.07 140.775 250.243 141.289 250.243 141.977V146H249.075V142.086C249.075 141.68 248.965 141.385 248.743 141.203C248.522 141.021 248.257 140.93 247.95 140.93C247.57 140.93 247.274 141.047 247.063 141.281C246.853 141.513 246.747 141.811 246.747 142.176V146H245.583V142.012C245.583 141.686 245.481 141.424 245.278 141.227C245.075 141.029 244.811 140.93 244.485 140.93C244.264 140.93 244.06 140.988 243.872 141.105C243.687 141.22 243.537 141.38 243.423 141.586C243.311 141.792 243.255 142.03 243.255 142.301V146H242.087ZM254.395 146.121C253.803 146.121 253.294 145.995 252.867 145.742C252.443 145.487 252.115 145.129 251.883 144.668C251.654 144.204 251.539 143.661 251.539 143.039C251.539 142.424 251.654 141.883 251.883 141.414C252.115 140.945 252.438 140.579 252.852 140.316C253.268 140.053 253.755 139.922 254.313 139.922C254.651 139.922 254.979 139.978 255.297 140.09C255.615 140.202 255.9 140.378 256.152 140.617C256.405 140.857 256.604 141.168 256.75 141.551C256.896 141.931 256.969 142.393 256.969 142.937V143.352H252.199V142.477H255.824C255.824 142.169 255.762 141.897 255.637 141.66C255.512 141.421 255.336 141.232 255.109 141.094C254.885 140.956 254.622 140.887 254.32 140.887C253.992 140.887 253.706 140.967 253.461 141.129C253.219 141.288 253.031 141.496 252.898 141.754C252.768 142.009 252.703 142.286 252.703 142.586V143.27C252.703 143.671 252.773 144.012 252.914 144.293C253.057 144.574 253.257 144.789 253.512 144.937C253.767 145.083 254.065 145.156 254.406 145.156C254.628 145.156 254.829 145.125 255.012 145.062C255.194 144.997 255.352 144.901 255.484 144.773C255.617 144.646 255.719 144.488 255.789 144.301L256.895 144.5C256.806 144.826 256.647 145.111 256.418 145.355C256.191 145.598 255.906 145.786 255.563 145.922C255.221 146.055 254.832 146.121 254.395 146.121ZM259.034 146.074C258.821 146.074 258.637 145.999 258.483 145.848C258.33 145.694 258.253 145.509 258.253 145.293C258.253 145.079 258.33 144.897 258.483 144.746C258.637 144.592 258.821 144.516 259.034 144.516C259.248 144.516 259.431 144.592 259.585 144.746C259.739 144.897 259.815 145.079 259.815 145.293C259.815 145.436 259.779 145.568 259.706 145.687C259.636 145.805 259.542 145.898 259.425 145.969C259.308 146.039 259.177 146.074 259.034 146.074ZM259.034 141.707C258.821 141.707 258.637 141.63 258.483 141.477C258.33 141.323 258.253 141.139 258.253 140.926C258.253 140.712 258.33 140.53 258.483 140.379C258.637 140.225 258.821 140.148 259.034 140.148C259.248 140.148 259.431 140.225 259.585 140.379C259.739 140.53 259.815 140.712 259.815 140.926C259.815 141.069 259.779 141.201 259.706 141.32C259.636 141.437 259.542 141.531 259.425 141.602C259.308 141.672 259.177 141.707 259.034 141.707ZM267.311 138V146H266.1V139.211H266.053L264.139 140.461V139.305L266.135 138H267.311ZM273.569 142.437V146H272.401V138H273.554V140.977H273.628C273.769 140.654 273.983 140.397 274.272 140.207C274.562 140.017 274.939 139.922 275.405 139.922C275.817 139.922 276.176 140.007 276.483 140.176C276.793 140.345 277.033 140.598 277.202 140.934C277.374 141.267 277.46 141.684 277.46 142.184V146H276.292V142.324C276.292 141.884 276.179 141.543 275.952 141.301C275.726 141.056 275.41 140.934 275.007 140.934C274.731 140.934 274.483 140.992 274.265 141.109C274.049 141.227 273.878 141.398 273.753 141.625C273.631 141.849 273.569 142.12 273.569 142.437ZM281.546 146.121C280.983 146.121 280.493 145.992 280.073 145.734C279.654 145.477 279.328 145.116 279.097 144.652C278.865 144.189 278.749 143.647 278.749 143.027C278.749 142.405 278.865 141.861 279.097 141.395C279.328 140.928 279.654 140.566 280.073 140.309C280.493 140.051 280.983 139.922 281.546 139.922C282.108 139.922 282.599 140.051 283.019 140.309C283.438 140.566 283.763 140.928 283.995 141.395C284.227 141.861 284.343 142.405 284.343 143.027C284.343 143.647 284.227 144.189 283.995 144.652C283.763 145.116 283.438 145.477 283.019 145.734C282.599 145.992 282.108 146.121 281.546 146.121ZM281.55 145.141C281.914 145.141 282.216 145.044 282.456 144.852C282.696 144.659 282.873 144.402 282.987 144.082C283.104 143.762 283.163 143.409 283.163 143.023C283.163 142.641 283.104 142.289 282.987 141.969C282.873 141.646 282.696 141.387 282.456 141.191C282.216 140.996 281.914 140.898 281.55 140.898C281.183 140.898 280.878 140.996 280.636 141.191C280.396 141.387 280.218 141.646 280.101 141.969C279.986 142.289 279.929 142.641 279.929 143.023C279.929 143.409 279.986 143.762 280.101 144.082C280.218 144.402 280.396 144.659 280.636 144.852C280.878 145.044 281.183 145.141 281.55 145.141ZM289.447 143.512V140H290.619V146H289.471V144.961H289.408C289.27 145.281 289.049 145.548 288.744 145.762C288.442 145.973 288.066 146.078 287.615 146.078C287.23 146.078 286.889 145.993 286.592 145.824C286.298 145.652 286.066 145.398 285.896 145.062C285.73 144.727 285.646 144.311 285.646 143.816V140H286.814V143.676C286.814 144.085 286.928 144.41 287.154 144.652C287.381 144.895 287.675 145.016 288.037 145.016C288.256 145.016 288.473 144.961 288.689 144.852C288.908 144.742 289.089 144.577 289.232 144.355C289.378 144.134 289.45 143.853 289.447 143.512ZM292.188 146V140H293.317V140.953H293.38C293.489 140.63 293.682 140.376 293.958 140.191C294.237 140.004 294.552 139.91 294.903 139.91C294.976 139.91 295.062 139.913 295.161 139.918C295.263 139.923 295.342 139.93 295.399 139.937V141.055C295.353 141.042 295.269 141.027 295.149 141.012C295.03 140.993 294.91 140.984 294.79 140.984C294.514 140.984 294.268 141.043 294.052 141.16C293.838 141.275 293.669 141.435 293.544 141.641C293.419 141.844 293.356 142.076 293.356 142.336V146H292.188Z" fill="#787878"/>
<rect x="47" y="80" width="319" height="10" rx="5" fill="#0E0E0E" fill-opacity="0.1"/>
<rect x="47" y="80" width="319" height="10" rx="5" fill="url(#paint0_linear_70_1409)"/>
<g filter="url(#filter0_d_70_1409)">
<rect x="39" y="73" width="24" height="24" rx="12" fill="#FFBD00"/>
</g>
<g filter="url(#filter1_d_70_1409)">
<rect x="354" y="73" width="24" height="24" rx="12" fill="#FF6054"/>
</g>
<g filter="url(#filter2_dd_70_1409)">
<rect x="35" y="20" width="32" height="40" rx="8" fill="white"/>
<path d="M52.5341 34.3636V46H50.7727V36.125H50.7045L47.9205 37.9432V36.2614L50.8239 34.3636H52.5341Z" fill="black"/>
<path d="M51.3603 66.6256C51.1636 66.83 50.8364 66.83 50.6397 66.6256L43.1545 58.8467C42.8488 58.529 43.0739 58 43.5148 58L58.4852 58C58.9261 58 59.1512 58.529 58.8455 58.8467L51.3603 66.6256Z" fill="white"/>
</g>
<g filter="url(#filter3_dd_70_1409)">
<rect x="346" y="20" width="40" height="40" rx="8" fill="white"/>
<path d="M363.534 34.3636V46H361.773V36.125H361.705L358.92 37.9432V36.2614L361.824 34.3636H363.534ZM371.097 34.3636V46H369.335V36.125H369.267L366.483 37.9432V36.2614L369.386 34.3636H371.097Z" fill="black"/>
<path d="M366.36 66.6256C366.164 66.83 365.836 66.83 365.64 66.6256L358.154 58.8467C357.849 58.529 358.074 58 358.515 58L373.485 58C373.926 58 374.151 58.529 373.846 58.8467L366.36 66.6256Z" fill="white"/>
</g>
<defs>
<filter id="filter0_d_70_1409" x="31" y="63" width="44" height="44" filterUnits="userSpaceOnUse" color-interpolation-filters="sRGB">
<feFlood flood-opacity="0" result="BackgroundImageFix"/>
<feColorMatrix in="SourceAlpha" type="matrix" values="0 0 0 0 0 0 0 0 0 0 0 0 0 0 0 0 0 0 127 0" result="hardAlpha"/>
<feOffset dx="2"/>
<feGaussianBlur stdDeviation="5"/>
<feComposite in2="hardAlpha" operator="out"/>
<feColorMatrix type="matrix" values="0 0 0 0 0 0 0 0 0 0 0 0 0 0 0 0 0 0 0.24 0"/>
<feBlend mode="normal" in2="BackgroundImageFix" result="effect1_dropShadow_70_1409"/>
<feBlend mode="normal" in="SourceGraphic" in2="effect1_dropShadow_70_1409" result="shape"/>
</filter>
<filter id="filter1_d_70_1409" x="342" y="63" width="44" height="44" filterUnits="userSpaceOnUse" color-interpolation-filters="sRGB">
<feFlood flood-opacity="0" result="BackgroundImageFix"/>
<feColorMatrix in="SourceAlpha" type="matrix" values="0 0 0 0 0 0 0 0 0 0 0 0 0 0 0 0 0 0 127 0" result="hardAlpha"/>
<feOffset dx="-2"/>
<feGaussianBlur stdDeviation="5"/>
<feComposite in2="hardAlpha" operator="out"/>
<feColorMatrix type="matrix" values="0 0 0 0 0 0 0 0 0 0 0 0 0 0 0 0 0 0 0.24 0"/>
<feBlend mode="normal" in2="BackgroundImageFix" result="effect1_dropShadow_70_1409"/>
<feBlend mode="normal" in="SourceGraphic" in2="effect1_dropShadow_70_1409" result="shape"/>
</filter>
<filter id="filter2_dd_70_1409" x="0" y="0" width="102" height="117" filterUnits="userSpaceOnUse" color-interpolation-filters="sRGB">
<feFlood flood-opacity="0" result="BackgroundImageFix"/>
<feColorMatrix in="SourceAlpha" type="matrix" values="0 0 0 0 0 0 0 0 0 0 0 0 0 0 0 0 0 0 127 0" result="hardAlpha"/>
<feOffset dy="15"/>
<feGaussianBlur stdDeviation="17.5"/>
<feComposite in2="hardAlpha" operator="out"/>
<feColorMatrix type="matrix" values="0 0 0 0 0.403922 0 0 0 0 0.431373 0 0 0 0 0.462745 0 0 0 0.08 0"/>
<feBlend mode="normal" in2="BackgroundImageFix" result="effect1_dropShadow_70_1409"/>
<feColorMatrix in="SourceAlpha" type="matrix" values="0 0 0 0 0 0 0 0 0 0 0 0 0 0 0 0 0 0 127 0" result="hardAlpha"/>
<feOffset dy="5"/>
<feGaussianBlur stdDeviation="7.5"/>
<feComposite in2="hardAlpha" operator="out"/>
<feColorMatrix type="matrix" values="0 0 0 0 0 0 0 0 0 0 0 0 0 0 0 0 0 0 0.12 0"/>
<feBlend mode="normal" in2="effect1_dropShadow_70_1409" result="effect2_dropShadow_70_1409"/>
<feBlend mode="normal" in="SourceGraphic" in2="effect2_dropShadow_70_1409" result="shape"/>
</filter>
<filter id="filter3_dd_70_1409" x="311" y="0" width="110" height="117" filterUnits="userSpaceOnUse" color-interpolation-filters="sRGB">
<feFlood flood-opacity="0" result="BackgroundImageFix"/>
<feColorMatrix in="SourceAlpha" type="matrix" values="0 0 0 0 0 0 0 0 0 0 0 0 0 0 0 0 0 0 127 0" result="hardAlpha"/>
<feOffset dy="15"/>
<feGaussianBlur stdDeviation="17.5"/>
<feComposite in2="hardAlpha" operator="out"/>
<feColorMatrix type="matrix" values="0 0 0 0 0.403922 0 0 0 0 0.431373 0 0 0 0 0.462745 0 0 0 0.08 0"/>
<feBlend mode="normal" in2="BackgroundImageFix" result="effect1_dropShadow_70_1409"/>
<feColorMatrix in="SourceAlpha" type="matrix" values="0 0 0 0 0 0 0 0 0 0 0 0 0 0 0 0 0 0 127 0" result="hardAlpha"/>
<feOffset dy="5"/>
<feGaussianBlur stdDeviation="7.5"/>
<feComposite in2="hardAlpha" operator="out"/>
<feColorMatrix type="matrix" values="0 0 0 0 0 0 0 0 0 0 0 0 0 0 0 0 0 0 0.12 0"/>
<feBlend mode="normal" in2="effect1_dropShadow_70_1409" result="effect2_dropShadow_70_1409"/>
<feBlend mode="normal" in="SourceGraphic" in2="effect2_dropShadow_70_1409" result="shape"/>
</filter>
<linearGradient id="paint0_linear_70_1409" x1="47" y1="85" x2="366" y2="85.0001" gradientUnits="userSpaceOnUse">
<stop stop-color="#FFBD00"/>
<stop offset="1" stop-color="#FF6054"/>
</linearGradient>
</defs>
</svg>
