<svg width="340" height="325" viewBox="0 0 340 325" fill="none" xmlns="http://www.w3.org/2000/svg">
<g filter="url(#filter0_b_140_601)">
<rect x="10" y="96" width="320" height="87" rx="12" fill="#CDC7B7" style="mix-blend-mode:luminosity"/>
<rect x="10" y="96" width="320" height="87" rx="12" fill="white" fill-opacity="0.5"/>
<rect x="10" y="96" width="320" height="87" rx="12" fill="#CDC7B7" style="mix-blend-mode:soft-light"/>
<path d="M279.801 120V112.898H279.702L277.575 114.416V113.127L279.801 111.545H281.114V120H279.801ZM283.449 120V111.141H284.72V114.604H284.814C285.125 113.924 285.734 113.514 286.66 113.514C288.084 113.514 288.869 114.363 288.869 115.881V120H287.603V116.18C287.603 115.125 287.164 114.604 286.232 114.604C285.3 114.604 284.72 115.242 284.72 116.268V120H283.449ZM295.431 120.105C294.219 120.105 293.322 119.367 293.322 118.213V118.201C293.322 117.064 294.177 116.402 295.695 116.309L297.418 116.209V115.646C297.418 114.949 296.978 114.562 296.117 114.562C295.414 114.562 294.951 114.82 294.799 115.271L294.793 115.295H293.568L293.574 115.254C293.726 114.211 294.728 113.514 296.176 113.514C297.775 113.514 298.677 114.311 298.677 115.646V120H297.418V119.098H297.318C296.943 119.742 296.275 120.105 295.431 120.105ZM294.588 118.16C294.588 118.746 295.086 119.092 295.771 119.092C296.72 119.092 297.418 118.471 297.418 117.65V117.105L295.865 117.205C294.986 117.258 294.588 117.574 294.588 118.148V118.16ZM303.04 122.244C301.423 122.244 300.427 121.535 300.274 120.475L300.286 120.463H301.569L301.575 120.475C301.681 120.914 302.196 121.225 303.057 121.225C304.106 121.225 304.727 120.732 304.727 119.865V118.611H304.634C304.247 119.303 303.544 119.689 302.671 119.689C301.036 119.689 300.028 118.43 300.028 116.637V116.625C300.028 114.809 301.042 113.525 302.694 113.525C303.585 113.525 304.276 113.965 304.645 114.68H304.722V113.637H305.987V119.871C305.987 121.318 304.845 122.244 303.04 122.244ZM303.022 118.641C304.1 118.641 304.751 117.82 304.751 116.631V116.619C304.751 115.436 304.095 114.604 303.022 114.604C301.938 114.604 301.329 115.436 301.329 116.619V116.631C301.329 117.814 301.938 118.641 303.022 118.641ZM310.391 120.123C308.521 120.123 307.379 118.875 307.379 116.824V116.812C307.379 114.768 308.527 113.514 310.391 113.514C312.248 113.514 313.396 114.762 313.396 116.812V116.824C313.396 118.875 312.254 120.123 310.391 120.123ZM310.391 119.062C311.48 119.062 312.102 118.23 312.102 116.824V116.812C312.102 115.4 311.48 114.574 310.391 114.574C309.295 114.574 308.68 115.4 308.68 116.812V116.824C308.68 118.236 309.295 119.062 310.391 119.062Z" fill="black" fill-opacity="0.2"/>
<path d="M279.801 120V112.898H279.702L277.575 114.416V113.127L279.801 111.545H281.114V120H279.801ZM283.449 120V111.141H284.72V114.604H284.814C285.125 113.924 285.734 113.514 286.66 113.514C288.084 113.514 288.869 114.363 288.869 115.881V120H287.603V116.18C287.603 115.125 287.164 114.604 286.232 114.604C285.3 114.604 284.72 115.242 284.72 116.268V120H283.449ZM295.431 120.105C294.219 120.105 293.322 119.367 293.322 118.213V118.201C293.322 117.064 294.177 116.402 295.695 116.309L297.418 116.209V115.646C297.418 114.949 296.978 114.562 296.117 114.562C295.414 114.562 294.951 114.82 294.799 115.271L294.793 115.295H293.568L293.574 115.254C293.726 114.211 294.728 113.514 296.176 113.514C297.775 113.514 298.677 114.311 298.677 115.646V120H297.418V119.098H297.318C296.943 119.742 296.275 120.105 295.431 120.105ZM294.588 118.16C294.588 118.746 295.086 119.092 295.771 119.092C296.72 119.092 297.418 118.471 297.418 117.65V117.105L295.865 117.205C294.986 117.258 294.588 117.574 294.588 118.148V118.16ZM303.04 122.244C301.423 122.244 300.427 121.535 300.274 120.475L300.286 120.463H301.569L301.575 120.475C301.681 120.914 302.196 121.225 303.057 121.225C304.106 121.225 304.727 120.732 304.727 119.865V118.611H304.634C304.247 119.303 303.544 119.689 302.671 119.689C301.036 119.689 300.028 118.43 300.028 116.637V116.625C300.028 114.809 301.042 113.525 302.694 113.525C303.585 113.525 304.276 113.965 304.645 114.68H304.722V113.637H305.987V119.871C305.987 121.318 304.845 122.244 303.04 122.244ZM303.022 118.641C304.1 118.641 304.751 117.82 304.751 116.631V116.619C304.751 115.436 304.095 114.604 303.022 114.604C301.938 114.604 301.329 115.436 301.329 116.619V116.631C301.329 117.814 301.938 118.641 303.022 118.641ZM310.391 120.123C308.521 120.123 307.379 118.875 307.379 116.824V116.812C307.379 114.768 308.527 113.514 310.391 113.514C312.248 113.514 313.396 114.762 313.396 116.812V116.824C313.396 118.875 312.254 120.123 310.391 120.123ZM310.391 119.062C311.48 119.062 312.102 118.23 312.102 116.824V116.812C312.102 115.4 311.48 114.574 310.391 114.574C309.295 114.574 308.68 115.4 308.68 116.812V116.824C308.68 118.236 309.295 119.062 310.391 119.062Z" fill="black" fill-opacity="0.36" style="mix-blend-mode:overlay"/>
<path d="M48.0605 120V111.545H51.3945C53.1289 111.545 54.207 112.553 54.207 114.123V114.135C54.207 115.271 53.5977 116.197 52.5664 116.543L54.4648 120H52.9473L51.2246 116.748H49.373V120H48.0605ZM49.373 115.682H51.2656C52.2734 115.682 52.8594 115.131 52.8594 114.17V114.158C52.8594 113.221 52.2383 112.646 51.2246 112.646H49.373V115.682ZM55.3058 120L58.3585 111.545H59.7765L62.8292 120H61.4464L60.6847 117.715H57.4503L56.6827 120H55.3058ZM59.0148 113.027L57.8019 116.66H60.3331L59.1144 113.027H59.0148ZM65.592 120V116.537L62.6155 111.545H64.0745L66.2014 115.23H66.301L68.428 111.545H69.887L66.9045 116.537V120H65.592ZM73.9154 120.205C72.0052 120.205 70.7806 119.238 70.6634 117.814L70.6576 117.738H71.9466L71.9525 117.803C72.0228 118.57 72.8373 119.062 73.9681 119.062C75.0462 119.062 75.8138 118.523 75.8138 117.738V117.732C75.8138 117.082 75.3568 116.66 74.2377 116.42L73.3119 116.221C71.5951 115.857 70.8568 115.061 70.8568 113.812V113.807C70.8627 112.348 72.1283 111.34 73.9212 111.34C75.7142 111.34 76.8861 112.354 76.9798 113.666L76.9857 113.748H75.7142L75.7025 113.672C75.5912 112.98 74.9291 112.477 73.9037 112.482C72.9134 112.482 72.181 112.945 72.181 113.742V113.748C72.181 114.375 72.6263 114.785 73.722 115.02L74.642 115.225C76.4173 115.605 77.1439 116.32 77.1439 117.574V117.58C77.1439 119.197 75.8841 120.205 73.9154 120.205Z" fill="black" fill-opacity="0.2"/>
<path d="M48.0605 120V111.545H51.3945C53.1289 111.545 54.207 112.553 54.207 114.123V114.135C54.207 115.271 53.5977 116.197 52.5664 116.543L54.4648 120H52.9473L51.2246 116.748H49.373V120H48.0605ZM49.373 115.682H51.2656C52.2734 115.682 52.8594 115.131 52.8594 114.17V114.158C52.8594 113.221 52.2383 112.646 51.2246 112.646H49.373V115.682ZM55.3058 120L58.3585 111.545H59.7765L62.8292 120H61.4464L60.6847 117.715H57.4503L56.6827 120H55.3058ZM59.0148 113.027L57.8019 116.66H60.3331L59.1144 113.027H59.0148ZM65.592 120V116.537L62.6155 111.545H64.0745L66.2014 115.23H66.301L68.428 111.545H69.887L66.9045 116.537V120H65.592ZM73.9154 120.205C72.0052 120.205 70.7806 119.238 70.6634 117.814L70.6576 117.738H71.9466L71.9525 117.803C72.0228 118.57 72.8373 119.062 73.9681 119.062C75.0462 119.062 75.8138 118.523 75.8138 117.738V117.732C75.8138 117.082 75.3568 116.66 74.2377 116.42L73.3119 116.221C71.5951 115.857 70.8568 115.061 70.8568 113.812V113.807C70.8627 112.348 72.1283 111.34 73.9212 111.34C75.7142 111.34 76.8861 112.354 76.9798 113.666L76.9857 113.748H75.7142L75.7025 113.672C75.5912 112.98 74.9291 112.477 73.9037 112.482C72.9134 112.482 72.181 112.945 72.181 113.742V113.748C72.181 114.375 72.6263 114.785 73.722 115.02L74.642 115.225C76.4173 115.605 77.1439 116.32 77.1439 117.574V117.58C77.1439 119.197 75.8841 120.205 73.9154 120.205Z" fill="black" fill-opacity="0.36" style="mix-blend-mode:overlay"/>
<g clip-path="url(#clip0_140_601)">
<path fill-rule="evenodd" clip-rule="evenodd" d="M35.4444 106H24.5556C22.0396 106 20 108.04 20 110.556V121.444C20 123.96 22.0396 126 24.5556 126H35.4444C37.9604 126 40 123.96 40 121.444V110.556C40 108.04 37.9604 106 35.4444 106Z" fill="#DFEDF5"/>
<path fill-rule="evenodd" clip-rule="evenodd" d="M35.4444 106H24.5556C22.0396 106 20 108.04 20 110.556V121.444C20 123.96 22.0396 126 24.5556 126H35.4444C37.9604 126 40 123.96 40 121.444V110.556C40 108.04 37.9604 106 35.4444 106Z" fill="white"/>
</g>
<path d="M23.2373 147V137.136H24.7686V147H23.2373ZM29.735 147.048C28.1012 147.048 27.4313 146.474 27.4313 145.045V140.745H26.2692V139.576H27.4313V137.703H28.942V139.576H30.5348V140.745H28.942V144.689C28.942 145.489 29.2428 145.817 29.9743 145.817C30.1998 145.817 30.3297 145.811 30.5348 145.79V146.973C30.2955 147.014 30.0221 147.048 29.735 147.048ZM32.4046 141.148L33.0061 137.136H34.5852L33.4505 141.148H32.4046ZM38.4989 147.144C36.7079 147.144 35.5732 146.303 35.4296 145.059V145.052H36.913L36.9198 145.059C37.1044 145.619 37.6445 145.995 38.5263 145.995C39.4423 145.995 40.078 145.578 40.078 144.97V144.956C40.078 144.491 39.7294 144.177 38.8681 143.979L37.6855 143.705C36.2841 143.384 35.6347 142.748 35.6347 141.661V141.654C35.6347 140.362 36.8378 139.433 38.5195 139.433C40.2148 139.433 41.3017 140.28 41.4316 141.49V141.497H40.0165V141.483C39.873 140.964 39.3466 140.574 38.5126 140.574C37.6991 140.574 37.1112 140.978 37.1112 141.572V141.586C37.1112 142.051 37.453 142.338 38.287 142.536L39.4628 142.803C40.8915 143.138 41.5751 143.746 41.5751 144.819V144.833C41.5751 146.207 40.2626 147.144 38.4989 147.144ZM51.05 147.239C48.5754 147.239 47.051 145.77 47.051 143.603V137.136H48.5822V143.486C48.5822 144.915 49.4777 145.886 51.05 145.886C52.6223 145.886 53.5109 144.915 53.5109 143.486V137.136H55.0422V143.603C55.0422 145.77 53.5314 147.239 51.05 147.239ZM60.1248 147L56.6112 137.136H58.2723L60.911 145.154H61.0272L63.6659 137.136H65.327L61.8133 147H60.1248ZM73.9679 147.185C71.7804 147.185 70.2355 146.009 70.2355 144.334V144.32C70.2355 143.076 71.131 142.085 72.423 141.805V141.771C71.3155 141.456 70.5909 140.629 70.5909 139.583V139.569C70.5909 138.059 72.006 136.951 73.9679 136.951C75.9366 136.951 77.3448 138.059 77.3448 139.569V139.583C77.3448 140.629 76.6271 141.456 75.5196 141.771V141.805C76.8116 142.085 77.7071 143.076 77.7071 144.32V144.334C77.7071 146.009 76.1622 147.185 73.9679 147.185ZM73.9679 141.258C75.0753 141.258 75.8273 140.615 75.8273 139.713V139.699C75.8273 138.797 75.0685 138.168 73.9679 138.168C72.8673 138.168 72.1085 138.797 72.1085 139.699V139.713C72.1085 140.615 72.8673 141.258 73.9679 141.258ZM73.9679 145.954C75.2325 145.954 76.128 145.236 76.128 144.238V144.225C76.128 143.213 75.2394 142.481 73.9679 142.481C72.7032 142.481 71.8146 143.213 71.8146 144.225V144.238C71.8146 145.236 72.7101 145.954 73.9679 145.954ZM80.0486 143.732L79.905 137.129H81.5662L81.4295 143.732H80.0486ZM80.7459 147.15C80.1101 147.15 79.6863 146.74 79.6863 146.132C79.6863 145.517 80.1101 145.106 80.7459 145.106C81.3748 145.106 81.7918 145.517 81.7918 146.132C81.7918 146.74 81.3748 147.15 80.7459 147.15ZM91.9707 147.239C89.1748 147.239 87.4112 145.243 87.4112 142.071V142.058C87.4112 138.927 89.1954 136.896 91.9571 136.896C94.1993 136.896 95.792 138.168 96.1475 140.075L96.1612 140.144H94.6299L94.6094 140.075C94.2539 138.906 93.3106 138.25 91.9571 138.25C90.1319 138.25 88.9766 139.727 88.9766 142.051V142.064C88.9766 144.423 90.1387 145.886 91.9912 145.886C93.6045 145.886 94.7051 144.867 94.7188 143.35V143.131H92.1827V141.894H96.2295V143.117C96.2295 145.619 94.5547 147.239 91.9707 147.239ZM101.148 147.144C98.9743 147.144 97.6618 145.66 97.6618 143.309V143.302C97.6618 140.984 99.0016 139.433 101.073 139.433C103.144 139.433 104.416 140.93 104.416 143.158V143.678H99.152C99.1794 145.1 99.9587 145.927 101.182 145.927C102.132 145.927 102.7 145.455 102.878 145.072L102.905 145.018L104.334 145.011L104.32 145.072C104.074 146.05 103.049 147.144 101.148 147.144ZM101.08 140.649C100.068 140.649 99.3024 141.34 99.1725 142.618H102.946C102.83 141.292 102.085 140.649 101.08 140.649ZM108.842 147.048C107.208 147.048 106.538 146.474 106.538 145.045V140.745H105.376V139.576H106.538V137.703H108.049V139.576H109.642V140.745H108.049V144.689C108.049 145.489 108.35 145.817 109.081 145.817C109.307 145.817 109.437 145.811 109.642 145.79V146.973C109.403 147.014 109.129 147.048 108.842 147.048ZM119.295 147.239C116.423 147.239 114.687 145.236 114.687 142.071V142.058C114.687 138.886 116.464 136.896 119.295 136.896C122.131 136.896 123.895 138.893 123.895 142.058V142.071C123.895 145.229 122.145 147.239 119.295 147.239ZM119.295 145.886C121.168 145.886 122.33 144.382 122.33 142.071V142.058C122.33 139.727 121.161 138.25 119.295 138.25C117.428 138.25 116.253 139.727 116.253 142.058V142.071C116.253 144.382 117.394 145.886 119.295 145.886ZM128.137 147.144C126.462 147.144 125.594 146.139 125.594 144.382V139.576H127.077V144.033C127.077 145.264 127.529 145.872 128.615 145.872C129.805 145.872 130.441 145.127 130.441 143.931V139.576H131.917V147H130.441V145.879H130.324C129.969 146.679 129.217 147.144 128.137 147.144ZM136.72 147.048C135.086 147.048 134.416 146.474 134.416 145.045V140.745H133.254V139.576H134.416V137.703H135.927V139.576H137.519V140.745H135.927V144.689C135.927 145.489 136.227 145.817 136.959 145.817C137.184 145.817 137.314 145.811 137.519 145.79V146.973C137.28 147.014 137.007 147.048 136.72 147.048ZM141.7 147.144C139.909 147.144 138.774 146.303 138.63 145.059V145.052H140.114L140.121 145.059C140.305 145.619 140.845 145.995 141.727 145.995C142.643 145.995 143.279 145.578 143.279 144.97V144.956C143.279 144.491 142.93 144.177 142.069 143.979L140.886 143.705C139.485 143.384 138.835 142.748 138.835 141.661V141.654C138.835 140.362 140.039 139.433 141.72 139.433C143.416 139.433 144.502 140.28 144.632 141.49V141.497H143.217V141.483C143.074 140.964 142.547 140.574 141.713 140.574C140.9 140.574 140.312 140.978 140.312 141.572V141.586C140.312 142.051 140.654 142.338 141.488 142.536L142.664 142.803C144.092 143.138 144.776 143.746 144.776 144.819V144.833C144.776 146.207 143.463 147.144 141.7 147.144ZM147.179 138.25C146.666 138.25 146.249 137.833 146.249 137.327C146.249 136.814 146.666 136.397 147.179 136.397C147.685 136.397 148.109 136.814 148.109 137.327C148.109 137.833 147.685 138.25 147.179 138.25ZM146.434 147V139.576H147.91V147H146.434ZM152.637 147.123C150.771 147.123 149.561 145.626 149.561 143.295V143.281C149.561 140.93 150.751 139.446 152.637 139.446C153.656 139.446 154.524 139.952 154.921 140.752H155.037V136.664H156.513V147H155.037V145.831H154.921C154.49 146.645 153.677 147.123 152.637 147.123ZM153.061 145.858C154.299 145.858 155.057 144.881 155.057 143.295V143.281C155.057 141.695 154.292 140.718 153.061 140.718C151.817 140.718 151.072 141.688 151.072 143.281V143.295C151.072 144.888 151.817 145.858 153.061 145.858ZM161.699 147.144C159.525 147.144 158.212 145.66 158.212 143.309V143.302C158.212 140.984 159.552 139.433 161.623 139.433C163.695 139.433 164.966 140.93 164.966 143.158V143.678H159.703C159.73 145.1 160.509 145.927 161.733 145.927C162.683 145.927 163.25 145.455 163.428 145.072L163.456 145.018L164.884 145.011L164.871 145.072C164.624 146.05 163.599 147.144 161.699 147.144ZM161.63 140.649C160.619 140.649 159.853 141.34 159.723 142.618H163.497C163.38 141.292 162.635 140.649 161.63 140.649ZM167.123 143.732L166.98 137.129H168.641L168.504 143.732H167.123ZM167.82 147.15C167.185 147.15 166.761 146.74 166.761 146.132C166.761 145.517 167.185 145.106 167.82 145.106C168.449 145.106 168.866 145.517 168.866 146.132C168.866 146.74 168.449 147.15 167.82 147.15Z" fill="black" fill-opacity="0.5"/>
<path d="M23.2373 147V137.136H24.7686V147H23.2373ZM29.735 147.048C28.1012 147.048 27.4313 146.474 27.4313 145.045V140.745H26.2692V139.576H27.4313V137.703H28.942V139.576H30.5348V140.745H28.942V144.689C28.942 145.489 29.2428 145.817 29.9743 145.817C30.1998 145.817 30.3297 145.811 30.5348 145.79V146.973C30.2955 147.014 30.0221 147.048 29.735 147.048ZM32.4046 141.148L33.0061 137.136H34.5852L33.4505 141.148H32.4046ZM38.4989 147.144C36.7079 147.144 35.5732 146.303 35.4296 145.059V145.052H36.913L36.9198 145.059C37.1044 145.619 37.6445 145.995 38.5263 145.995C39.4423 145.995 40.078 145.578 40.078 144.97V144.956C40.078 144.491 39.7294 144.177 38.8681 143.979L37.6855 143.705C36.2841 143.384 35.6347 142.748 35.6347 141.661V141.654C35.6347 140.362 36.8378 139.433 38.5195 139.433C40.2148 139.433 41.3017 140.28 41.4316 141.49V141.497H40.0165V141.483C39.873 140.964 39.3466 140.574 38.5126 140.574C37.6991 140.574 37.1112 140.978 37.1112 141.572V141.586C37.1112 142.051 37.453 142.338 38.287 142.536L39.4628 142.803C40.8915 143.138 41.5751 143.746 41.5751 144.819V144.833C41.5751 146.207 40.2626 147.144 38.4989 147.144ZM51.05 147.239C48.5754 147.239 47.051 145.77 47.051 143.603V137.136H48.5822V143.486C48.5822 144.915 49.4777 145.886 51.05 145.886C52.6223 145.886 53.5109 144.915 53.5109 143.486V137.136H55.0422V143.603C55.0422 145.77 53.5314 147.239 51.05 147.239ZM60.1248 147L56.6112 137.136H58.2723L60.911 145.154H61.0272L63.6659 137.136H65.327L61.8133 147H60.1248ZM73.9679 147.185C71.7804 147.185 70.2355 146.009 70.2355 144.334V144.32C70.2355 143.076 71.131 142.085 72.423 141.805V141.771C71.3155 141.456 70.5909 140.629 70.5909 139.583V139.569C70.5909 138.059 72.006 136.951 73.9679 136.951C75.9366 136.951 77.3448 138.059 77.3448 139.569V139.583C77.3448 140.629 76.6271 141.456 75.5196 141.771V141.805C76.8116 142.085 77.7071 143.076 77.7071 144.32V144.334C77.7071 146.009 76.1622 147.185 73.9679 147.185ZM73.9679 141.258C75.0753 141.258 75.8273 140.615 75.8273 139.713V139.699C75.8273 138.797 75.0685 138.168 73.9679 138.168C72.8673 138.168 72.1085 138.797 72.1085 139.699V139.713C72.1085 140.615 72.8673 141.258 73.9679 141.258ZM73.9679 145.954C75.2325 145.954 76.128 145.236 76.128 144.238V144.225C76.128 143.213 75.2394 142.481 73.9679 142.481C72.7032 142.481 71.8146 143.213 71.8146 144.225V144.238C71.8146 145.236 72.7101 145.954 73.9679 145.954ZM80.0486 143.732L79.905 137.129H81.5662L81.4295 143.732H80.0486ZM80.7459 147.15C80.1101 147.15 79.6863 146.74 79.6863 146.132C79.6863 145.517 80.1101 145.106 80.7459 145.106C81.3748 145.106 81.7918 145.517 81.7918 146.132C81.7918 146.74 81.3748 147.15 80.7459 147.15ZM91.9707 147.239C89.1748 147.239 87.4112 145.243 87.4112 142.071V142.058C87.4112 138.927 89.1954 136.896 91.9571 136.896C94.1993 136.896 95.792 138.168 96.1475 140.075L96.1612 140.144H94.6299L94.6094 140.075C94.2539 138.906 93.3106 138.25 91.9571 138.25C90.1319 138.25 88.9766 139.727 88.9766 142.051V142.064C88.9766 144.423 90.1387 145.886 91.9912 145.886C93.6045 145.886 94.7051 144.867 94.7188 143.35V143.131H92.1827V141.894H96.2295V143.117C96.2295 145.619 94.5547 147.239 91.9707 147.239ZM101.148 147.144C98.9743 147.144 97.6618 145.66 97.6618 143.309V143.302C97.6618 140.984 99.0016 139.433 101.073 139.433C103.144 139.433 104.416 140.93 104.416 143.158V143.678H99.152C99.1794 145.1 99.9587 145.927 101.182 145.927C102.132 145.927 102.7 145.455 102.878 145.072L102.905 145.018L104.334 145.011L104.32 145.072C104.074 146.05 103.049 147.144 101.148 147.144ZM101.08 140.649C100.068 140.649 99.3024 141.34 99.1725 142.618H102.946C102.83 141.292 102.085 140.649 101.08 140.649ZM108.842 147.048C107.208 147.048 106.538 146.474 106.538 145.045V140.745H105.376V139.576H106.538V137.703H108.049V139.576H109.642V140.745H108.049V144.689C108.049 145.489 108.35 145.817 109.081 145.817C109.307 145.817 109.437 145.811 109.642 145.79V146.973C109.403 147.014 109.129 147.048 108.842 147.048ZM119.295 147.239C116.423 147.239 114.687 145.236 114.687 142.071V142.058C114.687 138.886 116.464 136.896 119.295 136.896C122.131 136.896 123.895 138.893 123.895 142.058V142.071C123.895 145.229 122.145 147.239 119.295 147.239ZM119.295 145.886C121.168 145.886 122.33 144.382 122.33 142.071V142.058C122.33 139.727 121.161 138.25 119.295 138.25C117.428 138.25 116.253 139.727 116.253 142.058V142.071C116.253 144.382 117.394 145.886 119.295 145.886ZM128.137 147.144C126.462 147.144 125.594 146.139 125.594 144.382V139.576H127.077V144.033C127.077 145.264 127.529 145.872 128.615 145.872C129.805 145.872 130.441 145.127 130.441 143.931V139.576H131.917V147H130.441V145.879H130.324C129.969 146.679 129.217 147.144 128.137 147.144ZM136.72 147.048C135.086 147.048 134.416 146.474 134.416 145.045V140.745H133.254V139.576H134.416V137.703H135.927V139.576H137.519V140.745H135.927V144.689C135.927 145.489 136.227 145.817 136.959 145.817C137.184 145.817 137.314 145.811 137.519 145.79V146.973C137.28 147.014 137.007 147.048 136.72 147.048ZM141.7 147.144C139.909 147.144 138.774 146.303 138.63 145.059V145.052H140.114L140.121 145.059C140.305 145.619 140.845 145.995 141.727 145.995C142.643 145.995 143.279 145.578 143.279 144.97V144.956C143.279 144.491 142.93 144.177 142.069 143.979L140.886 143.705C139.485 143.384 138.835 142.748 138.835 141.661V141.654C138.835 140.362 140.039 139.433 141.72 139.433C143.416 139.433 144.502 140.28 144.632 141.49V141.497H143.217V141.483C143.074 140.964 142.547 140.574 141.713 140.574C140.9 140.574 140.312 140.978 140.312 141.572V141.586C140.312 142.051 140.654 142.338 141.488 142.536L142.664 142.803C144.092 143.138 144.776 143.746 144.776 144.819V144.833C144.776 146.207 143.463 147.144 141.7 147.144ZM147.179 138.25C146.666 138.25 146.249 137.833 146.249 137.327C146.249 136.814 146.666 136.397 147.179 136.397C147.685 136.397 148.109 136.814 148.109 137.327C148.109 137.833 147.685 138.25 147.179 138.25ZM146.434 147V139.576H147.91V147H146.434ZM152.637 147.123C150.771 147.123 149.561 145.626 149.561 143.295V143.281C149.561 140.93 150.751 139.446 152.637 139.446C153.656 139.446 154.524 139.952 154.921 140.752H155.037V136.664H156.513V147H155.037V145.831H154.921C154.49 146.645 153.677 147.123 152.637 147.123ZM153.061 145.858C154.299 145.858 155.057 144.881 155.057 143.295V143.281C155.057 141.695 154.292 140.718 153.061 140.718C151.817 140.718 151.072 141.688 151.072 143.281V143.295C151.072 144.888 151.817 145.858 153.061 145.858ZM161.699 147.144C159.525 147.144 158.212 145.66 158.212 143.309V143.302C158.212 140.984 159.552 139.433 161.623 139.433C163.695 139.433 164.966 140.93 164.966 143.158V143.678H159.703C159.73 145.1 160.509 145.927 161.733 145.927C162.683 145.927 163.25 145.455 163.428 145.072L163.456 145.018L164.884 145.011L164.871 145.072C164.624 146.05 163.599 147.144 161.699 147.144ZM161.63 140.649C160.619 140.649 159.853 141.34 159.723 142.618H163.497C163.38 141.292 162.635 140.649 161.63 140.649ZM167.123 143.732L166.98 137.129H168.641L168.504 143.732H167.123ZM167.82 147.15C167.185 147.15 166.761 146.74 166.761 146.132C166.761 145.517 167.185 145.106 167.82 145.106C168.449 145.106 168.866 145.517 168.866 146.132C168.866 146.74 168.449 147.15 167.82 147.15Z" fill="black" fill-opacity="0.6" style="mix-blend-mode:overlay"/>
<g filter="url(#filter1_b_140_601)">
<path d="M23 183H317V183C317 187.418 313.418 191 309 191H31C26.5817 191 23 187.418 23 183V183Z" fill="#CDC7B7" fill-opacity="0.4" style="mix-blend-mode:luminosity"/>
<path d="M23 183H317V183C317 187.418 313.418 191 309 191H31C26.5817 191 23 187.418 23 183V183Z" fill="white" fill-opacity="0.4"/>
<path d="M23 183H317V183C317 187.418 313.418 191 309 191H31C26.5817 191 23 187.418 23 183V183Z" fill="black" fill-opacity="0.4" style="mix-blend-mode:soft-light"/>
</g>
<g filter="url(#filter2_b_140_601)">
<path d="M35 191H305V191C305 195.418 301.418 199 297 199H43C38.5817 199 35 195.418 35 191V191Z" fill="#CDC7B7" fill-opacity="0.2" style="mix-blend-mode:luminosity"/>
<path d="M35 191H305V191C305 195.418 301.418 199 297 199H43C38.5817 199 35 195.418 35 191V191Z" fill="white" fill-opacity="0.25"/>
<path d="M35 191H305V191C305 195.418 301.418 199 297 199H43C38.5817 199 35 195.418 35 191V191Z" fill="black" fill-opacity="0.3" style="mix-blend-mode:soft-light"/>
</g>
<path d="M25.8203 170.141C24.0742 170.141 22.9434 169.168 22.832 167.832L22.8262 167.762H23.8398L23.8457 167.82C23.9277 168.652 24.6953 169.227 25.8203 169.227C26.9277 169.227 27.6836 168.605 27.6836 167.709V167.697C27.6836 166.66 26.9395 166.08 25.7559 166.08H24.6953V165.189H25.709C26.7168 165.189 27.4199 164.568 27.4199 163.725V163.713C27.4199 162.828 26.8398 162.318 25.8086 162.318C24.8125 162.318 24.1035 162.846 24.0156 163.701L24.0098 163.76H22.9961L23.002 163.701C23.1367 162.324 24.2266 161.404 25.8086 161.404C27.4199 161.404 28.4805 162.301 28.4805 163.584V163.596C28.4805 164.639 27.7422 165.354 26.6875 165.576V165.6C27.918 165.705 28.7559 166.473 28.7559 167.674V167.686C28.7559 169.098 27.5137 170.141 25.8203 170.141ZM33.6077 170V163.684H34.6272V164.645H34.7209C35.0022 163.965 35.5998 163.572 36.426 163.572C37.2815 163.572 37.8791 164.023 38.1721 164.68H38.2659C38.6057 164.012 39.3264 163.572 40.1995 163.572C41.4885 163.572 42.2092 164.311 42.2092 165.635V170H41.1897V165.869C41.1897 164.938 40.762 164.475 39.8713 164.475C38.9924 164.475 38.4123 165.137 38.4123 165.939V170H37.3928V165.711C37.3928 164.961 36.8772 164.475 36.0803 164.475C35.2541 164.475 34.6272 165.195 34.6272 166.086V170H33.6077ZM46.5248 170.111C44.7259 170.111 43.6127 168.869 43.6127 166.848V166.836C43.6127 164.809 44.7259 163.572 46.5248 163.572C48.3236 163.572 49.4369 164.809 49.4369 166.836V166.848C49.4369 168.869 48.3236 170.111 46.5248 170.111ZM46.5248 169.209C47.7201 169.209 48.3939 168.336 48.3939 166.848V166.836C48.3939 165.342 47.7201 164.475 46.5248 164.475C45.3295 164.475 44.6556 165.342 44.6556 166.836V166.848C44.6556 168.336 45.3295 169.209 46.5248 169.209ZM50.8989 170V163.684H51.9184V164.621H52.0122C52.2524 163.959 52.8442 163.572 53.6997 163.572C53.893 163.572 54.1098 163.596 54.2095 163.613V164.604C53.9985 164.568 53.8052 164.545 53.5825 164.545C52.6098 164.545 51.9184 165.16 51.9184 166.086V170H50.8989ZM57.7516 170.111C55.9469 170.111 54.857 168.846 54.857 166.865V166.859C54.857 164.908 55.9703 163.572 57.6871 163.572C59.4039 163.572 60.4469 164.85 60.4469 166.736V167.135H55.9C55.9293 168.441 56.65 169.203 57.775 169.203C58.6305 169.203 59.1578 168.799 59.3277 168.418L59.3512 168.365H60.3707L60.359 168.412C60.1422 169.268 59.2398 170.111 57.7516 170.111ZM57.6813 164.48C56.7438 164.48 56.0289 165.119 55.9176 166.32H59.4098C59.3043 165.072 58.6129 164.48 57.6813 164.48ZM65.1639 170V163.684H66.1834V164.633H66.2772C66.5936 163.965 67.1854 163.572 68.117 163.572C69.535 163.572 70.326 164.41 70.326 165.91V170H69.3065V166.156C69.3065 165.02 68.8377 164.475 67.8299 164.475C66.8221 164.475 66.1834 165.154 66.1834 166.262V170H65.1639ZM74.6474 170.111C72.8486 170.111 71.7353 168.869 71.7353 166.848V166.836C71.7353 164.809 72.8486 163.572 74.6474 163.572C76.4463 163.572 77.5595 164.809 77.5595 166.836V166.848C77.5595 168.869 76.4463 170.111 74.6474 170.111ZM74.6474 169.209C75.8427 169.209 76.5166 168.336 76.5166 166.848V166.836C76.5166 165.342 75.8427 164.475 74.6474 164.475C73.4521 164.475 72.7783 165.342 72.7783 166.836V166.848C72.7783 168.336 73.4521 169.209 74.6474 169.209ZM81.2657 170.047C79.9649 170.047 79.42 169.566 79.42 168.359V164.527H78.4239V163.684H79.42V162.049H80.4747V163.684H81.8575V164.527H80.4747V168.102C80.4747 168.846 80.7325 169.145 81.3887 169.145C81.5704 169.145 81.67 169.139 81.8575 169.121V169.988C81.6583 170.023 81.4649 170.047 81.2657 170.047ZM83.8 162.465C83.4133 162.465 83.0969 162.148 83.0969 161.762C83.0969 161.375 83.4133 161.059 83.8 161.059C84.1867 161.059 84.5031 161.375 84.5031 161.762C84.5031 162.148 84.1867 162.465 83.8 162.465ZM83.2844 170V163.684H84.3039V170H83.2844ZM86.5277 170V164.527H85.4788V163.684H86.5277V162.98C86.5277 161.721 87.1605 161.117 88.3616 161.117C88.6077 161.117 88.8304 161.135 89.0413 161.176V161.99C88.9183 161.967 88.7484 161.961 88.5667 161.961C87.8402 161.961 87.5472 162.318 87.5472 163.01V163.684H88.9827V164.527H87.5472V170H86.5277ZM90.8725 162.465C90.4858 162.465 90.1694 162.148 90.1694 161.762C90.1694 161.375 90.4858 161.059 90.8725 161.059C91.2592 161.059 91.5756 161.375 91.5756 161.762C91.5756 162.148 91.2592 162.465 90.8725 162.465ZM90.3569 170V163.684H91.3764V170H90.3569ZM95.7623 170.111C93.9927 170.111 92.8619 168.828 92.8619 166.824V166.812C92.8619 164.85 93.9869 163.572 95.7564 163.572C97.2916 163.572 98.2115 164.457 98.399 165.582L98.4048 165.617H97.3912L97.3853 165.6C97.2271 164.979 96.6646 164.475 95.7564 164.475C94.6197 164.475 93.9048 165.389 93.9048 166.812V166.824C93.9048 168.277 94.6314 169.209 95.7564 169.209C96.606 169.209 97.1451 168.834 97.3795 168.131L97.3912 168.096L98.399 168.09L98.3873 168.154C98.1295 169.297 97.2798 170.111 95.7623 170.111ZM101.507 170.111C100.306 170.111 99.3981 169.385 99.3981 168.236V168.225C99.3981 167.1 100.23 166.449 101.701 166.361L103.511 166.25V165.676C103.511 164.896 103.037 164.475 102.093 164.475C101.338 164.475 100.84 164.756 100.675 165.248L100.67 165.266H99.6501L99.6559 165.23C99.82 164.24 100.781 163.572 102.129 163.572C103.67 163.572 104.531 164.363 104.531 165.676V170H103.511V169.068H103.418C103.019 169.742 102.357 170.111 101.507 170.111ZM100.441 168.213C100.441 168.852 100.986 169.227 101.718 169.227C102.756 169.227 103.511 168.547 103.511 167.645V167.07L101.824 167.176C100.863 167.234 100.441 167.574 100.441 168.201V168.213ZM108.518 170.047C107.218 170.047 106.673 169.566 106.673 168.359V164.527H105.677V163.684H106.673V162.049H107.727V163.684H109.11V164.527H107.727V168.102C107.727 168.846 107.985 169.145 108.641 169.145C108.823 169.145 108.923 169.139 109.11 169.121V169.988C108.911 170.023 108.718 170.047 108.518 170.047ZM111.053 162.465C110.666 162.465 110.35 162.148 110.35 161.762C110.35 161.375 110.666 161.059 111.053 161.059C111.439 161.059 111.756 161.375 111.756 161.762C111.756 162.148 111.439 162.465 111.053 162.465ZM110.537 170V163.684H111.557V170H110.537ZM115.954 170.111C114.155 170.111 113.042 168.869 113.042 166.848V166.836C113.042 164.809 114.155 163.572 115.954 163.572C117.753 163.572 118.866 164.809 118.866 166.836V166.848C118.866 168.869 117.753 170.111 115.954 170.111ZM115.954 169.209C117.149 169.209 117.823 168.336 117.823 166.848V166.836C117.823 165.342 117.149 164.475 115.954 164.475C114.759 164.475 114.085 165.342 114.085 166.836V166.848C114.085 168.336 114.759 169.209 115.954 169.209ZM120.328 170V163.684H121.348V164.633H121.442C121.758 163.965 122.35 163.572 123.281 163.572C124.699 163.572 125.49 164.41 125.49 165.91V170H124.471V166.156C124.471 165.02 124.002 164.475 122.994 164.475C121.986 164.475 121.348 165.154 121.348 166.262V170H120.328ZM129.384 170.111C127.978 170.111 127.011 169.432 126.894 168.389H127.937C128.107 168.916 128.611 169.262 129.419 169.262C130.269 169.262 130.872 168.857 130.872 168.283V168.271C130.872 167.844 130.55 167.545 129.771 167.357L128.792 167.123C127.609 166.842 127.075 166.326 127.075 165.418V165.412C127.075 164.363 128.083 163.572 129.425 163.572C130.749 163.572 131.669 164.234 131.81 165.266H130.808C130.673 164.768 130.181 164.422 129.419 164.422C128.669 164.422 128.118 164.809 128.118 165.365V165.377C128.118 165.805 128.435 166.074 129.179 166.256L130.152 166.49C131.341 166.777 131.915 167.293 131.915 168.195V168.207C131.915 169.332 130.82 170.111 129.384 170.111Z" fill="black" fill-opacity="0.2"/>
<path d="M25.8203 170.141C24.0742 170.141 22.9434 169.168 22.832 167.832L22.8262 167.762H23.8398L23.8457 167.82C23.9277 168.652 24.6953 169.227 25.8203 169.227C26.9277 169.227 27.6836 168.605 27.6836 167.709V167.697C27.6836 166.66 26.9395 166.08 25.7559 166.08H24.6953V165.189H25.709C26.7168 165.189 27.4199 164.568 27.4199 163.725V163.713C27.4199 162.828 26.8398 162.318 25.8086 162.318C24.8125 162.318 24.1035 162.846 24.0156 163.701L24.0098 163.76H22.9961L23.002 163.701C23.1367 162.324 24.2266 161.404 25.8086 161.404C27.4199 161.404 28.4805 162.301 28.4805 163.584V163.596C28.4805 164.639 27.7422 165.354 26.6875 165.576V165.6C27.918 165.705 28.7559 166.473 28.7559 167.674V167.686C28.7559 169.098 27.5137 170.141 25.8203 170.141ZM33.6077 170V163.684H34.6272V164.645H34.7209C35.0022 163.965 35.5998 163.572 36.426 163.572C37.2815 163.572 37.8791 164.023 38.1721 164.68H38.2659C38.6057 164.012 39.3264 163.572 40.1995 163.572C41.4885 163.572 42.2092 164.311 42.2092 165.635V170H41.1897V165.869C41.1897 164.938 40.762 164.475 39.8713 164.475C38.9924 164.475 38.4123 165.137 38.4123 165.939V170H37.3928V165.711C37.3928 164.961 36.8772 164.475 36.0803 164.475C35.2541 164.475 34.6272 165.195 34.6272 166.086V170H33.6077ZM46.5248 170.111C44.7259 170.111 43.6127 168.869 43.6127 166.848V166.836C43.6127 164.809 44.7259 163.572 46.5248 163.572C48.3236 163.572 49.4369 164.809 49.4369 166.836V166.848C49.4369 168.869 48.3236 170.111 46.5248 170.111ZM46.5248 169.209C47.7201 169.209 48.3939 168.336 48.3939 166.848V166.836C48.3939 165.342 47.7201 164.475 46.5248 164.475C45.3295 164.475 44.6556 165.342 44.6556 166.836V166.848C44.6556 168.336 45.3295 169.209 46.5248 169.209ZM50.8989 170V163.684H51.9184V164.621H52.0122C52.2524 163.959 52.8442 163.572 53.6997 163.572C53.893 163.572 54.1098 163.596 54.2095 163.613V164.604C53.9985 164.568 53.8052 164.545 53.5825 164.545C52.6098 164.545 51.9184 165.16 51.9184 166.086V170H50.8989ZM57.7516 170.111C55.9469 170.111 54.857 168.846 54.857 166.865V166.859C54.857 164.908 55.9703 163.572 57.6871 163.572C59.4039 163.572 60.4469 164.85 60.4469 166.736V167.135H55.9C55.9293 168.441 56.65 169.203 57.775 169.203C58.6305 169.203 59.1578 168.799 59.3277 168.418L59.3512 168.365H60.3707L60.359 168.412C60.1422 169.268 59.2398 170.111 57.7516 170.111ZM57.6813 164.48C56.7438 164.48 56.0289 165.119 55.9176 166.32H59.4098C59.3043 165.072 58.6129 164.48 57.6813 164.48ZM65.1639 170V163.684H66.1834V164.633H66.2772C66.5936 163.965 67.1854 163.572 68.117 163.572C69.535 163.572 70.326 164.41 70.326 165.91V170H69.3065V166.156C69.3065 165.02 68.8377 164.475 67.8299 164.475C66.8221 164.475 66.1834 165.154 66.1834 166.262V170H65.1639ZM74.6474 170.111C72.8486 170.111 71.7353 168.869 71.7353 166.848V166.836C71.7353 164.809 72.8486 163.572 74.6474 163.572C76.4463 163.572 77.5595 164.809 77.5595 166.836V166.848C77.5595 168.869 76.4463 170.111 74.6474 170.111ZM74.6474 169.209C75.8427 169.209 76.5166 168.336 76.5166 166.848V166.836C76.5166 165.342 75.8427 164.475 74.6474 164.475C73.4521 164.475 72.7783 165.342 72.7783 166.836V166.848C72.7783 168.336 73.4521 169.209 74.6474 169.209ZM81.2657 170.047C79.9649 170.047 79.42 169.566 79.42 168.359V164.527H78.4239V163.684H79.42V162.049H80.4747V163.684H81.8575V164.527H80.4747V168.102C80.4747 168.846 80.7325 169.145 81.3887 169.145C81.5704 169.145 81.67 169.139 81.8575 169.121V169.988C81.6583 170.023 81.4649 170.047 81.2657 170.047ZM83.8 162.465C83.4133 162.465 83.0969 162.148 83.0969 161.762C83.0969 161.375 83.4133 161.059 83.8 161.059C84.1867 161.059 84.5031 161.375 84.5031 161.762C84.5031 162.148 84.1867 162.465 83.8 162.465ZM83.2844 170V163.684H84.3039V170H83.2844ZM86.5277 170V164.527H85.4788V163.684H86.5277V162.98C86.5277 161.721 87.1605 161.117 88.3616 161.117C88.6077 161.117 88.8304 161.135 89.0413 161.176V161.99C88.9183 161.967 88.7484 161.961 88.5667 161.961C87.8402 161.961 87.5472 162.318 87.5472 163.01V163.684H88.9827V164.527H87.5472V170H86.5277ZM90.8725 162.465C90.4858 162.465 90.1694 162.148 90.1694 161.762C90.1694 161.375 90.4858 161.059 90.8725 161.059C91.2592 161.059 91.5756 161.375 91.5756 161.762C91.5756 162.148 91.2592 162.465 90.8725 162.465ZM90.3569 170V163.684H91.3764V170H90.3569ZM95.7623 170.111C93.9927 170.111 92.8619 168.828 92.8619 166.824V166.812C92.8619 164.85 93.9869 163.572 95.7564 163.572C97.2916 163.572 98.2115 164.457 98.399 165.582L98.4048 165.617H97.3912L97.3853 165.6C97.2271 164.979 96.6646 164.475 95.7564 164.475C94.6197 164.475 93.9048 165.389 93.9048 166.812V166.824C93.9048 168.277 94.6314 169.209 95.7564 169.209C96.606 169.209 97.1451 168.834 97.3795 168.131L97.3912 168.096L98.399 168.09L98.3873 168.154C98.1295 169.297 97.2798 170.111 95.7623 170.111ZM101.507 170.111C100.306 170.111 99.3981 169.385 99.3981 168.236V168.225C99.3981 167.1 100.23 166.449 101.701 166.361L103.511 166.25V165.676C103.511 164.896 103.037 164.475 102.093 164.475C101.338 164.475 100.84 164.756 100.675 165.248L100.67 165.266H99.6501L99.6559 165.23C99.82 164.24 100.781 163.572 102.129 163.572C103.67 163.572 104.531 164.363 104.531 165.676V170H103.511V169.068H103.418C103.019 169.742 102.357 170.111 101.507 170.111ZM100.441 168.213C100.441 168.852 100.986 169.227 101.718 169.227C102.756 169.227 103.511 168.547 103.511 167.645V167.07L101.824 167.176C100.863 167.234 100.441 167.574 100.441 168.201V168.213ZM108.518 170.047C107.218 170.047 106.673 169.566 106.673 168.359V164.527H105.677V163.684H106.673V162.049H107.727V163.684H109.11V164.527H107.727V168.102C107.727 168.846 107.985 169.145 108.641 169.145C108.823 169.145 108.923 169.139 109.11 169.121V169.988C108.911 170.023 108.718 170.047 108.518 170.047ZM111.053 162.465C110.666 162.465 110.35 162.148 110.35 161.762C110.35 161.375 110.666 161.059 111.053 161.059C111.439 161.059 111.756 161.375 111.756 161.762C111.756 162.148 111.439 162.465 111.053 162.465ZM110.537 170V163.684H111.557V170H110.537ZM115.954 170.111C114.155 170.111 113.042 168.869 113.042 166.848V166.836C113.042 164.809 114.155 163.572 115.954 163.572C117.753 163.572 118.866 164.809 118.866 166.836V166.848C118.866 168.869 117.753 170.111 115.954 170.111ZM115.954 169.209C117.149 169.209 117.823 168.336 117.823 166.848V166.836C117.823 165.342 117.149 164.475 115.954 164.475C114.759 164.475 114.085 165.342 114.085 166.836V166.848C114.085 168.336 114.759 169.209 115.954 169.209ZM120.328 170V163.684H121.348V164.633H121.442C121.758 163.965 122.35 163.572 123.281 163.572C124.699 163.572 125.49 164.41 125.49 165.91V170H124.471V166.156C124.471 165.02 124.002 164.475 122.994 164.475C121.986 164.475 121.348 165.154 121.348 166.262V170H120.328ZM129.384 170.111C127.978 170.111 127.011 169.432 126.894 168.389H127.937C128.107 168.916 128.611 169.262 129.419 169.262C130.269 169.262 130.872 168.857 130.872 168.283V168.271C130.872 167.844 130.55 167.545 129.771 167.357L128.792 167.123C127.609 166.842 127.075 166.326 127.075 165.418V165.412C127.075 164.363 128.083 163.572 129.425 163.572C130.749 163.572 131.669 164.234 131.81 165.266H130.808C130.673 164.768 130.181 164.422 129.419 164.422C128.669 164.422 128.118 164.809 128.118 165.365V165.377C128.118 165.805 128.435 166.074 129.179 166.256L130.152 166.49C131.341 166.777 131.915 167.293 131.915 168.195V168.207C131.915 169.332 130.82 170.111 129.384 170.111Z" fill="black" fill-opacity="0.36" style="mix-blend-mode:overlay"/>
</g>
<path d="M38 119.765H22C22.184 115.445 25.6953 112 30 112C34.3047 112 37.816 115.445 38 119.765Z" fill="#FFBD00"/>
<path d="M35.5294 119.765H24.4707C24.6521 116.827 27.0584 114.502 30 114.502C32.9417 114.502 35.348 116.827 35.5294 119.765Z" fill="#FFA300"/>
<path d="M33.3053 119.765H26.6948C26.8032 118.009 28.2416 116.619 30.0001 116.619C31.7585 116.619 33.1969 118.009 33.3053 119.765Z" fill="#FF6054"/>
<defs>
<filter id="filter0_b_140_601" x="-80" y="6" width="500" height="283" filterUnits="userSpaceOnUse" color-interpolation-filters="sRGB">
<feFlood flood-opacity="0" result="BackgroundImageFix"/>
<feGaussianBlur in="BackgroundImageFix" stdDeviation="45"/>
<feComposite in2="SourceAlpha" operator="in" result="effect1_backgroundBlur_140_601"/>
<feBlend mode="normal" in="SourceGraphic" in2="effect1_backgroundBlur_140_601" result="shape"/>
</filter>
<filter id="filter1_b_140_601" x="-51" y="109" width="442" height="156" filterUnits="userSpaceOnUse" color-interpolation-filters="sRGB">
<feFlood flood-opacity="0" result="BackgroundImageFix"/>
<feGaussianBlur in="BackgroundImageFix" stdDeviation="37"/>
<feComposite in2="SourceAlpha" operator="in" result="effect1_backgroundBlur_140_601"/>
<feBlend mode="normal" in="SourceGraphic" in2="effect1_backgroundBlur_140_601" result="shape"/>
</filter>
<filter id="filter2_b_140_601" x="-39" y="117" width="418" height="156" filterUnits="userSpaceOnUse" color-interpolation-filters="sRGB">
<feFlood flood-opacity="0" result="BackgroundImageFix"/>
<feGaussianBlur in="BackgroundImageFix" stdDeviation="37"/>
<feComposite in2="SourceAlpha" operator="in" result="effect1_backgroundBlur_140_601"/>
<feBlend mode="normal" in="SourceGraphic" in2="effect1_backgroundBlur_140_601" result="shape"/>
</filter>
<clipPath id="clip0_140_601">
<rect width="20" height="20" fill="white" transform="translate(20 106)"/>
</clipPath>
</defs>
</svg>
