<svg width="340" height="325" viewBox="0 0 340 325" fill="none" xmlns="http://www.w3.org/2000/svg">
<g opacity="0.6">
<rect x="119.446" y="30" width="102.108" height="27.0462" rx="9.01538" fill="#9B9585"/>
<path fill-rule="evenodd" clip-rule="evenodd" d="M134.261 43.9217C134.041 43.7017 134.041 43.3449 134.261 43.1248L139.896 37.4902C140.116 37.2702 140.472 37.2702 140.692 37.4902C140.912 37.7103 140.912 38.067 140.692 38.2871L135.456 43.5233L140.692 48.7595C140.912 48.9795 140.912 49.3363 140.692 49.5563C140.472 49.7764 140.116 49.7764 139.896 49.5563L134.261 43.9217Z" fill="white" fill-opacity="0.2"/>
<path d="M154.602 48.5078V39.3369H151.359V37.9209H159.481V39.3369H156.246V48.5078H154.602ZM161.906 48.6619C159.69 48.6619 158.245 47.1285 158.245 44.6487V44.634C158.245 42.1689 159.705 40.6428 161.899 40.6428C164.1 40.6428 165.567 42.1615 165.567 44.634V44.6487C165.567 47.1358 164.114 48.6619 161.906 48.6619ZM161.913 47.3339C163.153 47.3339 163.946 46.3508 163.946 44.6487V44.634C163.946 42.9466 163.139 41.9708 161.899 41.9708C160.681 41.9708 159.866 42.9466 159.866 44.634V44.6487C159.866 46.3581 160.673 47.3339 161.913 47.3339ZM169.525 48.6619C167.559 48.6619 166.297 47.1065 166.297 44.6487V44.6414C166.297 42.1835 167.574 40.6428 169.511 40.6428C170.604 40.6428 171.484 41.1931 171.946 42.1028H171.976V37.9209H173.568V48.5078H171.976V47.2019H171.946C171.484 48.1043 170.633 48.6619 169.525 48.6619ZM169.944 47.2973C171.139 47.2973 171.983 46.2554 171.983 44.6487V44.6414C171.983 43.0419 171.132 42.0001 169.944 42.0001C168.696 42.0001 167.919 43.0126 167.919 44.6414V44.6487C167.919 46.2921 168.689 47.2973 169.944 47.2973ZM177.313 48.6472C175.773 48.6472 174.738 47.7008 174.738 46.3141V46.2995C174.738 44.9568 175.78 44.1351 177.607 44.0251L179.705 43.9003V43.3207C179.705 42.4697 179.155 41.9561 178.172 41.9561C177.255 41.9561 176.69 42.389 176.558 43.0053L176.543 43.0713H175.046L175.054 42.9906C175.164 41.6626 176.316 40.6428 178.216 40.6428C180.101 40.6428 181.297 41.6406 181.297 43.1887V48.5078H179.705V47.2899H179.676C179.228 48.119 178.333 48.6472 177.313 48.6472ZM176.338 46.2774C176.338 46.9524 176.895 47.378 177.746 47.378C178.861 47.378 179.705 46.6223 179.705 45.6171V45.0155L177.82 45.1329C176.866 45.1916 176.338 45.6098 176.338 46.2628V46.2774ZM183.583 51.083C183.275 51.083 182.945 51.0463 182.754 51.0096V49.7697C182.878 49.7991 183.062 49.8284 183.275 49.8284C184.023 49.8284 184.434 49.6303 184.698 48.882L184.83 48.5151L182.02 40.7896H183.737L185.681 47.0698H185.732L187.677 40.7896H189.349L186.473 48.8673C185.901 50.4667 185.094 51.083 183.583 51.083Z" fill="white"/>
<path fill-rule="evenodd" clip-rule="evenodd" d="M206.739 43.1248C206.959 43.3449 206.959 43.7017 206.739 43.9217L201.104 49.5563C200.884 49.7764 200.527 49.7764 200.307 49.5563C200.087 49.3363 200.087 48.9795 200.307 48.7595L205.543 43.5233L200.307 38.2871C200.087 38.067 200.087 37.7103 200.307 37.4902C200.527 37.2702 200.884 37.2702 201.104 37.4902L206.739 43.1248Z" fill="white" fill-opacity="0.6"/>
</g>
<rect x="24" y="69.0667" width="293" height="226.136" rx="36.0615" fill="#CDC7B7"/>
<path d="M110.622 282.532V271.945H112.265V276.42H117.702V271.945H119.345V282.532H117.702V277.844H112.265V282.532H110.622ZM124.265 282.686C122.049 282.686 120.604 281.153 120.604 278.673V278.658C120.604 276.193 122.064 274.667 124.258 274.667C126.459 274.667 127.926 276.186 127.926 278.658V278.673C127.926 281.16 126.473 282.686 124.265 282.686ZM124.272 281.358C125.512 281.358 126.304 280.375 126.304 278.673V278.658C126.304 276.971 125.497 275.995 124.258 275.995C123.04 275.995 122.225 276.971 122.225 278.658V278.673C122.225 280.382 123.032 281.358 124.272 281.358ZM131.627 282.686C129.933 282.686 128.964 281.593 128.964 279.817V274.814H130.549V279.509C130.549 280.676 131.092 281.321 132.192 281.321C133.308 281.321 134.027 280.522 134.027 279.318V274.814H135.619V282.532H134.027V281.373H133.99C133.586 282.15 132.801 282.686 131.627 282.686ZM137.038 282.532V274.814H138.623V276.134H138.66C138.909 275.232 139.555 274.667 140.435 274.667C140.663 274.667 140.861 274.704 140.986 274.726V276.2C140.861 276.149 140.582 276.112 140.274 276.112C139.254 276.112 138.623 276.78 138.623 277.932V282.532H137.038ZM141.877 282.532V271.945H143.462V282.532H141.877ZM145.85 285.107C145.542 285.107 145.212 285.07 145.021 285.034V283.794C145.146 283.823 145.329 283.853 145.542 283.853C146.29 283.853 146.701 283.655 146.965 282.906L147.097 282.539L144.287 274.814H146.004L147.948 281.094H148L149.944 274.814H151.617L148.741 282.891C148.169 284.491 147.361 285.107 145.85 285.107ZM159.776 282.708C157.12 282.708 155.484 281.131 155.484 278.812V271.945H157.127V278.68C157.127 280.221 158.088 281.255 159.776 281.255C161.463 281.255 162.417 280.221 162.417 278.68V271.945H164.053V278.812C164.053 281.131 162.439 282.708 159.776 282.708ZM168.84 282.532L165.069 271.945H166.837L169.728 280.705H169.765L172.655 271.945H174.423L170.652 282.532H168.84ZM178.349 282.532V271.945H179.992V282.532H178.349ZM181.603 282.532V274.814H183.188V275.98H183.224C183.628 275.195 184.42 274.667 185.587 274.667C187.282 274.667 188.257 275.76 188.257 277.536V282.532H186.665V277.836C186.665 276.677 186.122 276.024 185.022 276.024C183.907 276.024 183.188 276.831 183.188 278.035V282.532H181.603ZM192.524 282.686C190.558 282.686 189.296 281.131 189.296 278.673V278.666C189.296 276.208 190.572 274.667 192.509 274.667C193.602 274.667 194.483 275.217 194.945 276.127H194.974V271.945H196.566V282.532H194.974V281.226H194.945C194.483 282.128 193.632 282.686 192.524 282.686ZM192.942 281.321C194.138 281.321 194.982 280.28 194.982 278.673V278.666C194.982 277.066 194.131 276.024 192.942 276.024C191.695 276.024 190.917 277.037 190.917 278.666V278.673C190.917 280.316 191.687 281.321 192.942 281.321ZM201.339 282.686C199.072 282.686 197.7 281.138 197.7 278.702V278.695C197.7 276.281 199.094 274.667 201.258 274.667C203.423 274.667 204.751 276.222 204.751 278.541V279.076H199.285C199.314 280.536 200.114 281.387 201.376 281.387C202.315 281.387 202.938 280.903 203.137 280.324L203.159 280.265H204.663L204.648 280.346C204.398 281.571 203.21 282.686 201.339 282.686ZM201.266 275.966C200.239 275.966 199.446 276.663 199.307 277.954H203.181C203.048 276.619 202.3 275.966 201.266 275.966ZM205.121 282.532L207.674 278.68L205.158 274.814H206.941L208.621 277.609H208.658L210.316 274.814H212.069L209.531 278.629L212.04 282.532H210.294L208.584 279.693H208.548L206.838 282.532H205.121Z" fill="white" fill-opacity="0.8"/>
<path fill-rule="evenodd" clip-rule="evenodd" d="M222.945 278.1C223.055 278.21 223.055 278.388 222.945 278.498L220.127 281.315C220.017 281.425 219.839 281.425 219.729 281.315C219.619 281.205 219.619 281.027 219.729 280.917L222.347 278.299L219.729 275.681C219.619 275.571 219.619 275.392 219.729 275.282C219.839 275.172 220.017 275.172 220.127 275.282L222.945 278.1Z" fill="white" fill-opacity="0.5" stroke="white" stroke-opacity="0.5" stroke-width="0.751282" stroke-linecap="round" stroke-linejoin="round"/>
<g clip-path="url(#clip0_140_446)">
<g clip-path="url(#clip1_140_446)">
<rect x="33.7666" y="81.8384" width="61.6051" height="157.018" rx="30.0513" fill="#E3D8C8"/>
<rect x="33.7666" y="165.231" width="61.6051" height="73.6256" rx="30.0513" fill="#FFBD00"/>
<rect x="50.2947" y="133.677" width="28.0308" height="27.0154" rx="13.5077" fill="#FFBD00"/>
<path d="M65.1648 152.185V150.079H59.8677V148.648L64.3651 141.598H66.7422V148.7H68.2022V150.079H66.7422V152.185H65.1648ZM61.3937 148.722H65.1794V142.896H65.1354L61.3937 148.678V148.722Z" fill="white"/>
<path d="M56.393 254.505C54.6616 254.505 53.0651 253.302 53.0651 250.255V250.244C53.0651 247.421 54.327 245.754 56.4459 245.754C57.9543 245.754 59.0871 246.616 59.3571 247.878L59.3747 247.949H58.0541L58.0365 247.89C57.7958 247.256 57.2441 246.857 56.4341 246.857C54.9785 246.857 54.3857 248.26 54.3329 249.938C54.327 250.015 54.327 250.091 54.327 250.167H54.3564C54.6909 249.404 55.5478 248.806 56.6982 248.806C58.3182 248.806 59.4862 249.985 59.4862 251.588V251.6C59.4862 253.29 58.1773 254.505 56.393 254.505ZM54.5853 251.605C54.5853 252.609 55.3718 253.401 56.3754 253.401C57.3791 253.401 58.1773 252.621 58.1773 251.635V251.623C58.1773 250.602 57.426 249.874 56.393 249.874C55.3659 249.874 54.5853 250.596 54.5853 251.6V251.605ZM62.4416 254.476C61.209 254.476 60.3814 253.718 60.3814 252.609V252.597C60.3814 251.523 61.2149 250.866 62.6763 250.778L64.355 250.678V250.214C64.355 249.534 63.9148 249.123 63.1283 249.123C62.3946 249.123 61.9427 249.469 61.837 249.962L61.8253 250.015H60.6279L60.6338 249.95C60.7218 248.888 61.6433 248.072 63.1635 248.072C64.6719 248.072 65.6286 248.87 65.6286 250.109V254.364H64.355V253.39H64.3315C63.9735 254.053 63.2574 254.476 62.4416 254.476ZM61.6609 252.58C61.6609 253.12 62.107 253.46 62.7879 253.46C63.68 253.46 64.355 252.856 64.355 252.051V251.57L62.8465 251.664C62.0835 251.711 61.6609 252.046 61.6609 252.568V252.58ZM66.741 254.364V248.189H68.0088V249.146H68.0381C68.3023 248.5 68.9303 248.072 69.7403 248.072C70.5913 248.072 71.2135 248.512 71.46 249.287H71.4893C71.8063 248.536 72.5341 248.072 73.4145 248.072C74.6353 248.072 75.4336 248.882 75.4336 250.12V254.364H74.1599V250.426C74.1599 249.622 73.7315 249.158 72.9802 249.158C72.2289 249.158 71.7065 249.721 71.7065 250.502V254.364H70.4622V250.332C70.4622 249.616 70.0103 249.158 69.2942 249.158C68.5429 249.158 68.0088 249.751 68.0088 250.549V254.364H66.741Z" fill="white"/>
<rect x="104.387" y="81.8384" width="61.6051" height="157.018" rx="30.0513" fill="#E3D8C8"/>
<rect x="104.387" y="165.231" width="61.6051" height="73.6256" rx="30.0513" fill="#FFBD00"/>
<rect x="120.915" y="133.677" width="28.0308" height="27.0154" rx="13.5077" fill="#FFBD00"/>
<path d="M135.785 152.185V150.079H130.488V148.648L134.985 141.598H137.363V148.7H138.823V150.079H137.363V152.185H135.785ZM132.014 148.722H135.8V142.896H135.756L132.014 148.678V148.722Z" fill="white"/>
<path d="M124.296 254.364L128.058 247.033V247.004H123.592V245.894H129.355V247.033L125.675 254.364H124.296ZM131.865 254.476C130.632 254.476 129.804 253.718 129.804 252.609V252.597C129.804 251.523 130.638 250.866 132.099 250.778L133.778 250.678V250.214C133.778 249.534 133.338 249.123 132.551 249.123C131.818 249.123 131.366 249.469 131.26 249.962L131.248 250.015H130.051L130.057 249.95C130.145 248.888 131.066 248.072 132.587 248.072C134.095 248.072 135.052 248.87 135.052 250.109V254.364H133.778V253.39H133.755C133.396 254.053 132.68 254.476 131.865 254.476ZM131.084 252.58C131.084 253.12 131.53 253.46 132.211 253.46C133.103 253.46 133.778 252.856 133.778 252.051V251.57L132.27 251.664C131.507 251.711 131.084 252.046 131.084 252.568V252.58ZM136.164 254.364V248.189H137.432V249.146H137.461C137.725 248.5 138.353 248.072 139.163 248.072C140.014 248.072 140.636 248.512 140.883 249.287H140.912C141.229 248.536 141.957 248.072 142.838 248.072C144.058 248.072 144.857 248.882 144.857 250.12V254.364H143.583V250.426C143.583 249.622 143.154 249.158 142.403 249.158C141.652 249.158 141.13 249.721 141.13 250.502V254.364H139.885V250.332C139.885 249.616 139.433 249.158 138.717 249.158C137.966 249.158 137.432 249.751 137.432 250.549V254.364H136.164Z" fill="white"/>
<rect x="175.008" y="81.8384" width="61.6051" height="157.018" rx="30.0513" fill="#E3D8C8"/>
<rect x="175.008" y="165.231" width="61.6051" height="73.6256" rx="30.0513" fill="#FFBD00"/>
<rect x="191.536" y="133.677" width="28.0308" height="27.0154" rx="13.5077" fill="#FFBD00"/>
<path d="M206.406 152.185V150.079H201.109V148.648L205.606 141.598H207.983V148.7H209.443V150.079H207.983V152.185H206.406ZM202.635 148.722H206.421V142.896H206.377L202.635 148.678V148.722Z" fill="white"/>
<path d="M197.499 254.505C195.627 254.505 194.3 253.501 194.3 252.069V252.057C194.3 250.989 195.069 250.144 196.173 249.903V249.874C195.228 249.604 194.611 248.9 194.611 248.002V247.99C194.611 246.699 195.814 245.754 197.499 245.754C199.184 245.754 200.393 246.699 200.393 247.99V248.002C200.393 248.9 199.776 249.604 198.831 249.874V249.903C199.935 250.144 200.698 250.989 200.698 252.057V252.069C200.698 253.501 199.377 254.505 197.499 254.505ZM197.499 249.434C198.444 249.434 199.09 248.888 199.09 248.119V248.107C199.09 247.332 198.438 246.792 197.499 246.792C196.56 246.792 195.914 247.332 195.914 248.107V248.119C195.914 248.888 196.56 249.434 197.499 249.434ZM197.499 253.454C198.579 253.454 199.348 252.838 199.348 251.981V251.969C199.348 251.107 198.585 250.484 197.499 250.484C196.413 250.484 195.65 251.107 195.65 251.969V251.981C195.65 252.838 196.419 253.454 197.499 253.454ZM203.53 254.476C202.297 254.476 201.47 253.718 201.47 252.609V252.597C201.47 251.523 202.303 250.866 203.765 250.778L205.443 250.678V250.214C205.443 249.534 205.003 249.123 204.217 249.123C203.483 249.123 203.031 249.469 202.925 249.962L202.914 250.015H201.716L201.722 249.95C201.81 248.888 202.732 248.072 204.252 248.072C205.76 248.072 206.717 248.87 206.717 250.109V254.364H205.443V253.39H205.42C205.062 254.053 204.346 254.476 203.53 254.476ZM202.749 252.58C202.749 253.12 203.195 253.46 203.876 253.46C204.768 253.46 205.443 252.856 205.443 252.051V251.57L203.935 251.664C203.172 251.711 202.749 252.046 202.749 252.568V252.58ZM207.829 254.364V248.189H209.097V249.146H209.127C209.391 248.5 210.019 248.072 210.829 248.072C211.68 248.072 212.302 248.512 212.548 249.287H212.578C212.895 248.536 213.622 248.072 214.503 248.072C215.724 248.072 216.522 248.882 216.522 250.12V254.364H215.248V250.426C215.248 249.622 214.82 249.158 214.069 249.158C213.317 249.158 212.795 249.721 212.795 250.502V254.364H211.551V250.332C211.551 249.616 211.099 249.158 210.383 249.158C209.631 249.158 209.097 249.751 209.097 250.549V254.364H207.829Z" fill="white"/>
<rect x="245.628" y="81.8384" width="61.6051" height="157.018" rx="30.0513" fill="#E3D8C8"/>
<rect x="245.628" y="152.459" width="61.6051" height="86.3974" rx="30.0513" fill="#FFBD00"/>
<rect x="262.908" y="120.905" width="28.0308" height="27.0154" rx="13.5077" fill="#FFBD00"/>
<path d="M276.531 139.589C274.41 139.589 272.936 138.305 272.789 136.559L272.781 136.471H274.352L274.359 136.53C274.498 137.483 275.364 138.217 276.545 138.217C277.881 138.217 278.812 137.293 278.812 135.979V135.965C278.805 134.666 277.873 133.749 276.56 133.749C275.907 133.749 275.342 133.94 274.916 134.321C274.718 134.49 274.55 134.695 274.41 134.93H272.972L273.493 128.826H279.803V130.213H274.821L274.498 133.565H274.535C275.012 132.854 275.892 132.45 276.934 132.45C278.959 132.45 280.419 133.91 280.419 135.935V135.95C280.419 138.1 278.812 139.589 276.531 139.589Z" fill="white"/>
<path d="M268.137 245.754C269.869 245.754 271.465 246.957 271.465 250.003V250.015C271.465 252.838 270.203 254.505 268.084 254.505C266.576 254.505 265.443 253.642 265.173 252.38L265.156 252.31H266.47L266.494 252.368C266.734 253.002 267.286 253.401 268.096 253.401C269.552 253.401 270.145 251.999 270.197 250.32C270.203 250.244 270.203 250.167 270.203 250.091H270.174C269.839 250.854 268.982 251.453 267.832 251.453C266.212 251.453 265.038 250.273 265.038 248.671V248.659C265.038 246.969 266.347 245.754 268.137 245.754ZM268.131 250.385C269.164 250.385 269.945 249.663 269.945 248.659V248.653C269.945 247.649 269.158 246.857 268.149 246.857C267.151 246.857 266.347 247.638 266.347 248.624V248.635C266.347 249.657 267.104 250.385 268.131 250.385ZM274.303 254.476C273.071 254.476 272.243 253.718 272.243 252.609V252.597C272.243 251.523 273.076 250.866 274.538 250.778L276.217 250.678V250.214C276.217 249.534 275.776 249.123 274.99 249.123C274.256 249.123 273.804 249.469 273.699 249.962L273.687 250.015H272.489L272.495 249.95C272.583 248.888 273.505 248.072 275.025 248.072C276.534 248.072 277.49 248.87 277.49 250.109V254.364H276.217V253.39H276.193C275.835 254.053 275.119 254.476 274.303 254.476ZM273.523 252.58C273.523 253.12 273.969 253.46 274.649 253.46C275.542 253.46 276.217 252.856 276.217 252.051V251.57L274.708 251.664C273.945 251.711 273.523 252.046 273.523 252.568V252.58ZM278.603 254.364V248.189H279.87V249.146H279.9C280.164 248.5 280.792 248.072 281.602 248.072C282.453 248.072 283.075 248.512 283.322 249.287H283.351C283.668 248.536 284.396 248.072 285.276 248.072C286.497 248.072 287.295 248.882 287.295 250.12V254.364H286.021V250.426C286.021 249.622 285.593 249.158 284.842 249.158C284.09 249.158 283.568 249.721 283.568 250.502V254.364H282.324V250.332C282.324 249.616 281.872 249.158 281.156 249.158C280.404 249.158 279.87 249.751 279.87 250.549V254.364H278.603Z" fill="white"/>
</g>
</g>
<defs>
<clipPath id="clip0_140_446">
<rect x="33.7666" y="81.8384" width="273.467" height="175.526" fill="white"/>
</clipPath>
<clipPath id="clip1_140_446">
<rect x="33.7666" y="81.8384" width="273.467" height="175.526" fill="white"/>
</clipPath>
</defs>
</svg>
