<svg width="293" height="266" viewBox="0 0 293 266" fill="none" xmlns="http://www.w3.org/2000/svg">
<g opacity="0.6">
<rect x="95.4462" y="0.519287" width="102.108" height="27.0462" rx="9.01538" fill="#9B9585"/>
<path fill-rule="evenodd" clip-rule="evenodd" d="M110.261 14.441C110.041 14.2209 110.041 13.8642 110.261 13.6441L115.896 8.00952C116.116 7.78947 116.473 7.78947 116.693 8.00952C116.913 8.22956 116.913 8.58633 116.693 8.80637L111.457 14.0426L116.693 19.2787C116.913 19.4988 116.913 19.8556 116.693 20.0756C116.473 20.2956 116.116 20.2956 115.896 20.0756L110.261 14.441Z" fill="white" fill-opacity="0.2"/>
<path d="M130.602 19.0271V9.85618H127.36V8.44019H135.481V9.85618H132.246V19.0271H130.602ZM137.906 19.1812C135.691 19.1812 134.245 17.6478 134.245 15.168V15.1533C134.245 12.6882 135.705 11.1621 137.899 11.1621C140.1 11.1621 141.567 12.6808 141.567 15.1533V15.168C141.567 17.6551 140.115 19.1812 137.906 19.1812ZM137.914 17.8532C139.153 17.8532 139.946 16.8701 139.946 15.168V15.1533C139.946 13.4659 139.139 12.4901 137.899 12.4901C136.681 12.4901 135.867 13.4659 135.867 15.1533V15.168C135.867 16.8774 136.674 17.8532 137.914 17.8532ZM145.526 19.1812C143.559 19.1812 142.297 17.6258 142.297 15.168V15.1606C142.297 12.7028 143.574 11.1621 145.511 11.1621C146.604 11.1621 147.484 11.7124 147.947 12.6221H147.976V8.44019H149.568V19.0271H147.976V17.7212H147.947C147.484 18.6236 146.633 19.1812 145.526 19.1812ZM145.944 17.8165C147.14 17.8165 147.983 16.7747 147.983 15.168V15.1606C147.983 13.5612 147.132 12.5194 145.944 12.5194C144.697 12.5194 143.919 13.5319 143.919 15.1606V15.168C143.919 16.8114 144.689 17.8165 145.944 17.8165ZM153.314 19.1665C151.773 19.1665 150.738 18.2201 150.738 16.8334V16.8187C150.738 15.4761 151.78 14.6544 153.607 14.5444L155.705 14.4196V13.84C155.705 12.989 155.155 12.4754 154.172 12.4754C153.255 12.4754 152.69 12.9083 152.558 13.5245L152.543 13.5906H151.047L151.054 13.5099C151.164 12.1819 152.316 11.1621 154.216 11.1621C156.102 11.1621 157.298 12.1599 157.298 13.708V19.0271H155.705V17.8092H155.676C155.229 18.6383 154.333 19.1665 153.314 19.1665ZM152.338 16.7967C152.338 17.4717 152.895 17.8972 153.747 17.8972C154.862 17.8972 155.705 17.1416 155.705 16.1364V15.5348L153.82 15.6522C152.866 15.7109 152.338 16.1291 152.338 16.7821V16.7967ZM159.583 21.6023C159.275 21.6023 158.945 21.5656 158.754 21.5289V20.289C158.879 20.3184 159.062 20.3477 159.275 20.3477C160.023 20.3477 160.434 20.1496 160.698 19.4013L160.83 19.0344L158.02 11.3089H159.737L161.681 17.5891H161.733L163.677 11.3089H165.35L162.474 19.3866C161.901 20.986 161.094 21.6023 159.583 21.6023Z" fill="white"/>
<path fill-rule="evenodd" clip-rule="evenodd" d="M182.739 13.6441C182.959 13.8642 182.959 14.2209 182.739 14.441L177.104 20.0756C176.884 20.2956 176.527 20.2956 176.307 20.0756C176.087 19.8556 176.087 19.4988 176.307 19.2787L181.544 14.0426L176.307 8.80637C176.087 8.58633 176.087 8.22956 176.307 8.00952C176.527 7.78947 176.884 7.78947 177.104 8.00952L182.739 13.6441Z" fill="white" fill-opacity="0.6"/>
</g>
<rect y="39.5859" width="293" height="226.136" rx="36.0615" fill="#CDC7B7"/>
<path d="M86.6219 253.051V242.464H88.2653V246.94H93.7019V242.464H95.3453V253.051H93.7019V248.363H88.2653V253.051H86.6219ZM100.265 253.205C98.049 253.205 96.6037 251.672 96.6037 249.192V249.177C96.6037 246.712 98.0637 245.186 100.257 245.186C102.458 245.186 103.926 246.705 103.926 249.177V249.192C103.926 251.679 102.473 253.205 100.265 253.205ZM100.272 251.877C101.512 251.877 102.304 250.894 102.304 249.192V249.177C102.304 247.49 101.497 246.514 100.257 246.514C99.0395 246.514 98.2251 247.49 98.2251 249.177V249.192C98.2251 250.902 99.0321 251.877 100.272 251.877ZM107.627 253.205C105.932 253.205 104.964 252.112 104.964 250.337V245.333H106.549V250.029C106.549 251.195 107.092 251.841 108.192 251.841C109.307 251.841 110.026 251.041 110.026 249.838V245.333H111.618V253.051H110.026V251.892H109.99C109.586 252.67 108.801 253.205 107.627 253.205ZM113.038 253.051V245.333H114.623V246.654H114.66C114.909 245.751 115.555 245.186 116.435 245.186C116.663 245.186 116.861 245.223 116.985 245.245V246.72C116.861 246.668 116.582 246.632 116.274 246.632C115.254 246.632 114.623 247.299 114.623 248.451V253.051H113.038ZM117.877 253.051V242.464H119.462V253.051H117.877ZM121.85 255.626C121.542 255.626 121.212 255.59 121.021 255.553V254.313C121.146 254.343 121.329 254.372 121.542 254.372C122.29 254.372 122.701 254.174 122.965 253.425L123.097 253.059L120.287 245.333H122.004L123.948 251.613H124L125.944 245.333H127.617L124.741 253.411C124.168 255.01 123.361 255.626 121.85 255.626ZM135.775 253.227C133.12 253.227 131.483 251.65 131.483 249.332V242.464H133.127V249.199C133.127 250.74 134.088 251.775 135.775 251.775C137.463 251.775 138.417 250.74 138.417 249.199V242.464H140.053V249.332C140.053 251.65 138.439 253.227 135.775 253.227ZM144.84 253.051L141.069 242.464H142.837L145.728 251.224H145.765L148.655 242.464H150.423L146.652 253.051H144.84ZM154.349 253.051V242.464H155.992V253.051H154.349ZM157.603 253.051V245.333H159.188V246.5H159.224C159.628 245.715 160.42 245.186 161.587 245.186C163.281 245.186 164.257 246.279 164.257 248.055V253.051H162.665V248.356C162.665 247.197 162.122 246.544 161.022 246.544C159.907 246.544 159.188 247.351 159.188 248.554V253.051H157.603ZM168.524 253.205C166.557 253.205 165.296 251.65 165.296 249.192V249.185C165.296 246.727 166.572 245.186 168.509 245.186C169.602 245.186 170.483 245.737 170.945 246.646H170.974V242.464H172.566V253.051H170.974V251.745H170.945C170.483 252.648 169.632 253.205 168.524 253.205ZM168.942 251.841C170.138 251.841 170.981 250.799 170.981 249.192V249.185C170.981 247.585 170.13 246.544 168.942 246.544C167.695 246.544 166.917 247.556 166.917 249.185V249.192C166.917 250.836 167.687 251.841 168.942 251.841ZM177.339 253.205C175.072 253.205 173.7 251.657 173.7 249.221V249.214C173.7 246.8 175.094 245.186 177.258 245.186C179.423 245.186 180.75 246.742 180.75 249.06V249.596H175.285C175.314 251.056 176.114 251.907 177.376 251.907C178.315 251.907 178.938 251.423 179.136 250.843L179.158 250.784H180.662L180.648 250.865C180.398 252.09 179.21 253.205 177.339 253.205ZM177.266 246.485C176.238 246.485 175.446 247.182 175.307 248.473H179.18C179.048 247.138 178.3 246.485 177.266 246.485ZM181.121 253.051L183.674 249.199L181.158 245.333H182.941L184.621 248.128H184.657L186.316 245.333H188.069L185.531 249.148L188.04 253.051H186.294L184.584 250.212H184.547L182.838 253.051H181.121Z" fill="white" fill-opacity="0.8"/>
<path fill-rule="evenodd" clip-rule="evenodd" d="M198.945 248.619C199.055 248.729 199.055 248.907 198.945 249.017L196.127 251.835C196.017 251.945 195.839 251.945 195.729 251.835C195.619 251.725 195.619 251.546 195.729 251.436L198.347 248.818L195.729 246.2C195.619 246.09 195.619 245.912 195.729 245.802C195.839 245.691 196.017 245.691 196.127 245.802L198.945 248.619Z" fill="white" fill-opacity="0.5" stroke="white" stroke-opacity="0.5" stroke-width="0.751282" stroke-linecap="round" stroke-linejoin="round"/>
<g clip-path="url(#clip0_114_410)">
<g clip-path="url(#clip1_114_410)">
<rect x="9.76672" y="52.3577" width="61.6051" height="157.018" rx="30.0513" fill="#E3D8C8"/>
<rect x="9.76672" y="135.75" width="61.6051" height="73.6256" rx="30.0513" fill="#FFBD00"/>
<rect x="26.2949" y="104.196" width="28.0308" height="27.0154" rx="13.5077" fill="#FFBD00"/>
<path d="M41.165 122.704V120.598H35.8679V119.168L40.3653 112.117H42.7424V119.219H44.2024V120.598H42.7424V122.704H41.165ZM37.3939 119.241H41.1797V113.416H41.1357L37.3939 119.197V119.241Z" fill="white"/>
<path d="M32.3932 225.024C30.6617 225.024 29.0652 223.821 29.0652 220.775V220.763C29.0652 217.94 30.3271 216.273 32.446 216.273C33.9544 216.273 35.0872 217.136 35.3572 218.398L35.3748 218.468H34.0542L34.0366 218.409C33.7959 217.775 33.2442 217.376 32.4342 217.376C30.9786 217.376 30.3858 218.779 30.333 220.458C30.3271 220.534 30.3271 220.61 30.3271 220.687H30.3565C30.691 219.924 31.548 219.325 32.6984 219.325C34.3183 219.325 35.4863 220.505 35.4863 222.107V222.119C35.4863 223.809 34.1775 225.024 32.3932 225.024ZM30.5854 222.125C30.5854 223.128 31.3719 223.921 32.3755 223.921C33.3792 223.921 34.1775 223.14 34.1775 222.154V222.142C34.1775 221.121 33.4262 220.393 32.3932 220.393C31.366 220.393 30.5854 221.115 30.5854 222.119V222.125ZM38.4417 224.995C37.2091 224.995 36.3815 224.238 36.3815 223.128V223.117C36.3815 222.043 37.215 221.385 38.6765 221.297L40.3551 221.197V220.734C40.3551 220.053 39.9149 219.642 39.1284 219.642C38.3947 219.642 37.9428 219.988 37.8371 220.481L37.8254 220.534H36.628L36.6339 220.47C36.722 219.407 37.6434 218.591 39.1636 218.591C40.6721 218.591 41.6288 219.39 41.6288 220.628V224.883H40.3551V223.909H40.3316C39.9736 224.572 39.2575 224.995 38.4417 224.995ZM37.6611 223.099C37.6611 223.639 38.1071 223.979 38.788 223.979C39.6801 223.979 40.3551 223.375 40.3551 222.571V222.089L38.8467 222.183C38.0836 222.23 37.6611 222.565 37.6611 223.087V223.099ZM42.7411 224.883V218.709H44.0089V219.665H44.0383C44.3024 219.02 44.9304 218.591 45.7404 218.591C46.5914 218.591 47.2136 219.032 47.4601 219.806H47.4895C47.8064 219.055 48.5342 218.591 49.4146 218.591C50.6355 218.591 51.4337 219.401 51.4337 220.64V224.883H50.16V220.945C50.16 220.141 49.7316 219.677 48.9803 219.677C48.229 219.677 47.7066 220.241 47.7066 221.021V224.883H46.4623V220.851C46.4623 220.135 46.0104 219.677 45.2943 219.677C44.543 219.677 44.0089 220.27 44.0089 221.068V224.883H42.7411Z" fill="white"/>
<rect x="80.3872" y="52.3577" width="61.6051" height="157.018" rx="30.0513" fill="#E3D8C8"/>
<rect x="80.3872" y="135.75" width="61.6051" height="73.6256" rx="30.0513" fill="#FFBD00"/>
<rect x="96.9154" y="104.196" width="28.0308" height="27.0154" rx="13.5077" fill="#FFBD00"/>
<path d="M111.786 122.704V120.598H106.488V119.168L110.986 112.117H113.363V119.219H114.823V120.598H113.363V122.704H111.786ZM108.014 119.241H111.8V113.416H111.756L108.014 119.197V119.241Z" fill="white"/>
<path d="M100.296 224.883L104.058 217.552V217.523H99.5918V216.414H105.356V217.552L101.675 224.883H100.296ZM107.865 224.995C106.632 224.995 105.805 224.238 105.805 223.128V223.117C105.805 222.043 106.638 221.385 108.1 221.297L109.778 221.197V220.734C109.778 220.053 109.338 219.642 108.552 219.642C107.818 219.642 107.366 219.988 107.26 220.481L107.249 220.534H106.051L106.057 220.47C106.145 219.407 107.067 218.591 108.587 218.591C110.095 218.591 111.052 219.39 111.052 220.628V224.883H109.778V223.909H109.755C109.397 224.572 108.681 224.995 107.865 224.995ZM107.084 223.099C107.084 223.639 107.53 223.979 108.211 223.979C109.103 223.979 109.778 223.375 109.778 222.571V222.089L108.27 222.183C107.507 222.23 107.084 222.565 107.084 223.087V223.099ZM112.164 224.883V218.709H113.432V219.665H113.461C113.726 219.02 114.354 218.591 115.164 218.591C116.015 218.591 116.637 219.032 116.883 219.806H116.913C117.23 219.055 117.957 218.591 118.838 218.591C120.059 218.591 120.857 219.401 120.857 220.64V224.883H119.583V220.945C119.583 220.141 119.155 219.677 118.403 219.677C117.652 219.677 117.13 220.241 117.13 221.021V224.883H115.885V220.851C115.885 220.135 115.434 219.677 114.717 219.677C113.966 219.677 113.432 220.27 113.432 221.068V224.883H112.164Z" fill="white"/>
<rect x="151.008" y="52.3577" width="61.6051" height="157.018" rx="30.0513" fill="#E3D8C8"/>
<rect x="151.008" y="135.75" width="61.6051" height="73.6256" rx="30.0513" fill="#FFBD00"/>
<rect x="167.536" y="104.196" width="28.0308" height="27.0154" rx="13.5077" fill="#FFBD00"/>
<path d="M182.406 122.704V120.598H177.109V119.168L181.606 112.117H183.983V119.219H185.443V120.598H183.983V122.704H182.406ZM178.635 119.241H182.421V113.416H182.377L178.635 119.197V119.241Z" fill="white"/>
<path d="M173.499 225.024C171.627 225.024 170.3 224.021 170.3 222.588V222.577C170.3 221.508 171.069 220.663 172.173 220.423V220.393C171.228 220.123 170.612 219.419 170.612 218.521V218.509C170.612 217.218 171.815 216.273 173.499 216.273C175.184 216.273 176.393 217.218 176.393 218.509V218.521C176.393 219.419 175.777 220.123 174.832 220.393V220.423C175.935 220.663 176.698 221.508 176.698 222.577V222.588C176.698 224.021 175.377 225.024 173.499 225.024ZM173.499 219.953C174.444 219.953 175.09 219.407 175.09 218.638V218.627C175.09 217.852 174.438 217.312 173.499 217.312C172.56 217.312 171.915 217.852 171.915 218.627V218.638C171.915 219.407 172.56 219.953 173.499 219.953ZM173.499 223.974C174.579 223.974 175.348 223.357 175.348 222.5V222.489C175.348 221.626 174.585 221.004 173.499 221.004C172.413 221.004 171.65 221.626 171.65 222.489V222.5C171.65 223.357 172.419 223.974 173.499 223.974ZM179.53 224.995C178.298 224.995 177.47 224.238 177.47 223.128V223.117C177.47 222.043 178.303 221.385 179.765 221.297L181.444 221.197V220.734C181.444 220.053 181.003 219.642 180.217 219.642C179.483 219.642 179.031 219.988 178.926 220.481L178.914 220.534H177.717L177.722 220.47C177.81 219.407 178.732 218.591 180.252 218.591C181.761 218.591 182.717 219.39 182.717 220.628V224.883H181.444V223.909H181.42C181.062 224.572 180.346 224.995 179.53 224.995ZM178.75 223.099C178.75 223.639 179.196 223.979 179.876 223.979C180.769 223.979 181.444 223.375 181.444 222.571V222.089L179.935 222.183C179.172 222.23 178.75 222.565 178.75 223.087V223.099ZM183.83 224.883V218.709H185.097V219.665H185.127C185.391 219.02 186.019 218.591 186.829 218.591C187.68 218.591 188.302 219.032 188.549 219.806H188.578C188.895 219.055 189.623 218.591 190.503 218.591C191.724 218.591 192.522 219.401 192.522 220.64V224.883H191.249V220.945C191.249 220.141 190.82 219.677 190.069 219.677C189.317 219.677 188.795 220.241 188.795 221.021V224.883H187.551V220.851C187.551 220.135 187.099 219.677 186.383 219.677C185.632 219.677 185.097 220.27 185.097 221.068V224.883H183.83Z" fill="white"/>
<rect x="221.628" y="52.3577" width="61.6051" height="157.018" rx="30.0513" fill="#E3D8C8"/>
<rect x="221.628" y="122.978" width="61.6051" height="86.3974" rx="30.0513" fill="#FFBD00"/>
<rect x="238.908" y="91.4243" width="28.0308" height="27.0154" rx="13.5077" fill="#FFBD00"/>
<path d="M252.531 110.108C250.41 110.108 248.936 108.824 248.789 107.078L248.781 106.99H250.352L250.359 107.049C250.498 108.003 251.364 108.736 252.545 108.736C253.881 108.736 254.812 107.812 254.812 106.499V106.484C254.805 105.185 253.873 104.268 252.56 104.268C251.907 104.268 251.342 104.459 250.916 104.84C250.718 105.009 250.55 105.215 250.41 105.449H248.972L249.493 99.3452H255.803V100.732H250.821L250.498 104.085H250.535C251.012 103.373 251.892 102.97 252.934 102.97C254.959 102.97 256.419 104.43 256.419 106.455V106.469C256.419 108.619 254.812 110.108 252.531 110.108Z" fill="white"/>
<path d="M244.137 216.273C245.869 216.273 247.465 217.476 247.465 220.522V220.534C247.465 223.357 246.203 225.024 244.085 225.024C242.576 225.024 241.443 224.161 241.173 222.899L241.156 222.829H242.47L242.494 222.888C242.735 223.522 243.286 223.921 244.096 223.921C245.552 223.921 246.145 222.518 246.197 220.839C246.203 220.763 246.203 220.687 246.203 220.61H246.174C245.839 221.373 244.983 221.972 243.832 221.972C242.212 221.972 241.038 220.792 241.038 219.19V219.178C241.038 217.488 242.347 216.273 244.137 216.273ZM244.131 220.904C245.164 220.904 245.945 220.182 245.945 219.178V219.172C245.945 218.169 245.159 217.376 244.149 217.376C243.151 217.376 242.347 218.157 242.347 219.143V219.155C242.347 220.176 243.104 220.904 244.131 220.904ZM250.303 224.995C249.071 224.995 248.243 224.238 248.243 223.128V223.117C248.243 222.043 249.077 221.385 250.538 221.297L252.217 221.197V220.734C252.217 220.053 251.776 219.642 250.99 219.642C250.256 219.642 249.804 219.988 249.699 220.481L249.687 220.534H248.49L248.495 220.47C248.584 219.407 249.505 218.591 251.025 218.591C252.534 218.591 253.49 219.39 253.49 220.628V224.883H252.217V223.909H252.193C251.835 224.572 251.119 224.995 250.303 224.995ZM249.523 223.099C249.523 223.639 249.969 223.979 250.65 223.979C251.542 223.979 252.217 223.375 252.217 222.571V222.089L250.708 222.183C249.945 222.23 249.523 222.565 249.523 223.087V223.099ZM254.603 224.883V218.709H255.87V219.665H255.9C256.164 219.02 256.792 218.591 257.602 218.591C258.453 218.591 259.075 219.032 259.322 219.806H259.351C259.668 219.055 260.396 218.591 261.276 218.591C262.497 218.591 263.295 219.401 263.295 220.64V224.883H262.022V220.945C262.022 220.141 261.593 219.677 260.842 219.677C260.091 219.677 259.568 220.241 259.568 221.021V224.883H258.324V220.851C258.324 220.135 257.872 219.677 257.156 219.677C256.405 219.677 255.87 220.27 255.87 221.068V224.883H254.603Z" fill="white"/>
</g>
</g>
<defs>
<clipPath id="clip0_114_410">
<rect x="9.76672" y="52.3577" width="273.467" height="175.526" fill="white"/>
</clipPath>
<clipPath id="clip1_114_410">
<rect x="9.76672" y="52.3577" width="273.467" height="175.526" fill="white"/>
</clipPath>
</defs>
</svg>
